<svg version="1.1" xmlns="http://www.w3.org/2000/svg" viewBox="0 0 805.1860119047615 706.1443433029907" width="805.1860119047615" height="706.1443433029907">
  <!-- svg-source:excalidraw -->
  
  <defs>
    <style>
      @font-face {
        font-family: "Virgil";
        src: url("https://excalidraw.com/Virgil.woff2");
      }
      @font-face {
        font-family: "Cascadia";
        src: url("https://excalidraw.com/Cascadia.woff2");
      }
    </style>
  </defs>
  <rect x="0" y="0" width="805.1860119047615" height="706.1443433029907" fill="transparent"></rect><g stroke-linecap="round" transform="translate(10 10) rotate(0 392.59300595238074 343.07217165149535)"><path d="M-0.03 -0.8 L788.75 1.93 L782.05 684.52 L-1.99 689.37" stroke="none" stroke-width="0" fill="#14213d"></path><path d="M-0.03 -0.06 C211.03 3.48, 421.64 3.31, 785.34 0.12 M786.12 0.8 C784.32 242.41, 782.46 485.2, 783.74 687.59 M784.5 687.25 C491.99 683.85, 197.7 681.76, -0.09 684.63 M-1.47 685.83 C4.04 489.04, 5.16 292.38, -0.48 0.81" stroke="#e5e5e5" stroke-width="4.5" fill="none" stroke-dasharray="8 12"></path></g><g stroke-linecap="round" transform="translate(217.02833763864612 46.55352305096358) rotate(0 171.53608582574768 41.658763700538714)"><path d="M0 0 C0 0, 0 0, 0 0 M0 0 C0 0, 0 0, 0 0 M0.26 6.61 C0.67 5.25, 2.56 3.79, 4.68 0.25 M-0.43 6.43 C1.1 4.65, 2.1 3.43, 5.21 0.27 M0.63 11.02 C4.6 8.39, 8.7 2.96, 9.43 -0.02 M0.45 11.35 C3.36 8.97, 6.68 5.01, 11.4 -0.33 M0.61 20.14 C6.17 12.84, 10.23 7.5, 16.84 1.63 M0.11 18.78 C3.04 14.43, 6.18 9.82, 15.16 -0.06 M-1.53 23.82 C5.82 19.92, 7.2 15.85, 22.45 1.78 M0.94 24.23 C8.43 15.79, 15.57 5.12, 20.57 0.59 M0.59 32.28 C6.37 22, 17.62 13.05, 24.31 1.98 M0.58 29.87 C6.35 22.03, 13.98 13.97, 26.36 -0.19 M-1.92 38.54 C10.93 22.12, 23.59 6.87, 33.18 0.69 M-1.11 36.07 C12.65 22.46, 25.63 7.39, 31.57 0.59 M0.82 42.52 C11.29 31.21, 16.82 22.51, 38.8 1.45 M1.11 43.49 C15.48 26.26, 28.13 9.75, 37.59 0.65 M-0.67 47.48 C13.53 31.11, 31.14 14.59, 43.07 0.94 M-0.99 49.23 C13.47 32.75, 25.4 18.82, 42.48 0.31 M1.29 52.82 C12.23 38.62, 26.51 22.16, 46.65 1.17 M0.49 55.51 C13.89 40.72, 25.03 25.55, 46.72 0.49 M-1.85 62.28 C15.88 46.06, 26.3 28.43, 54.08 1.56 M-0.6 61.62 C11.22 48.41, 22.85 34.97, 53.62 0.58 M1.56 68.73 C20.72 41.4, 44.3 15.7, 56.41 -0.9 M-0.76 66.61 C19.68 43.83, 41.28 20.22, 59.03 0.43 M1.33 74.63 C16.87 53.52, 31.76 34.44, 64.33 0.42 M0.2 73.47 C19.34 51.05, 38.44 28.39, 63.72 0.29 M-0.7 80.35 C24.43 48.08, 53.65 21.72, 66.8 1.98 M0.29 79.33 C21.29 53.52, 43.7 27.41, 69.17 0.69 M2.5 84.3 C26.15 57.14, 49.73 27.8, 76.15 -1.84 M1.62 83.36 C22.47 60.29, 42.44 37.2, 73.9 0.45 M5.01 83.3 C25.89 63.79, 43.05 40.6, 78.73 1.4 M7.53 82.99 C24.97 61.87, 45.48 39.79, 79.25 0.57 M10.02 86.03 C37.42 52.78, 64.13 24.69, 84.03 -1.72 M11.79 85.15 C39.81 52.87, 66.04 22.27, 85.7 0.17 M16.8 85.82 C45.24 53.82, 71.3 19.6, 91.31 1.73 M16.76 84.84 C37.72 59.34, 58.07 35.92, 90.74 0.45 M23.38 85.29 C48.91 51.99, 79.69 17.31, 94.69 -0.94 M21.25 83.67 C42.25 60.94, 64.69 35.53, 95.07 0.62 M27.69 84.48 C42.83 66.68, 57.17 50.78, 101.82 0.18 M26.85 83.72 C47.44 60.51, 66.96 39.39, 100.54 -0.17 M34.14 85.01 C58.09 54.16, 88.2 24.12, 106.98 1.61 M33.76 83.54 C52.81 62.26, 71.39 39.93, 106.35 -0.89 M38.15 82.89 C63.71 53.08, 91.93 20.27, 109.73 -1.26 M38.38 84.8 C60.76 56.73, 85.58 29.23, 110.95 -0.71 M44.01 84.96 C60.32 64.2, 80.1 39.78, 115.34 -1.41 M42.49 84.47 C61.68 62.84, 77.83 42.42, 115.64 -0.25 M46.81 85.21 C66.34 63.73, 81.74 42.69, 120.72 0.25 M48.28 85.07 C78.07 50.57, 105.61 17.37, 121.69 0.51 M52.91 85.7 C74.25 59.87, 93.39 36.93, 128.32 -0.78 M54.04 83.26 C74.68 61.47, 96.76 35.94, 127.41 0.51 M58.53 84.67 C81.23 58.98, 102.9 31.51, 130.63 0.33 M59.94 83.88 C89.17 50.16, 118.39 16.91, 131.86 0.24 M62.93 84.63 C82.78 64.01, 101.35 42.18, 136.73 1.8 M64.38 83.8 C89.85 55.16, 113.12 26.83, 136.58 -0.29 M71 84.55 C83.21 67.74, 98.77 47.57, 141.49 -0.57 M69.79 83.92 C89.27 60.59, 110.13 38.32, 143.98 0.36 M74.37 83.93 C93.99 58.98, 114.27 35.26, 148.18 -1.32 M74.92 83.08 C95.28 59.76, 116.42 34.69, 149.11 1.02 M82.1 82.96 C106.16 55.77, 132.19 27.93, 153.54 -1.18 M80.69 83.98 C108.95 51.16, 137.52 18.67, 153.98 -0.18 M85.71 82.62 C106.17 59.03, 127.01 35.13, 158.5 1.03 M86.46 83.17 C106.61 58.73, 129.27 33.77, 159.39 0.18 M89.89 84.82 C109.04 63.03, 125.9 46.55, 165.19 0.55 M91.88 84.94 C111.2 60.7, 130.55 36.42, 165.2 0.68 M97.6 84.51 C115.63 64.43, 133.42 41.34, 167.69 -1.19 M97.2 83.27 C115.73 60.03, 136.38 38.2, 170.19 1.05 M100.65 85.85 C125.62 56.38, 148.57 30.72, 177.04 -0.48 M101.04 83.77 C126.11 55.92, 150.79 28.45, 174.37 0.07 M108.89 82.25 C133.35 51.99, 161.53 19.84, 179.95 0.83 M106.75 83.63 C121.22 67.81, 136.1 50.09, 180.73 -0.44 M112.81 84.59 C130.71 64.48, 148.79 44.21, 183.88 -0.57 M112.22 83.53 C135.18 57.33, 158.84 30.4, 185.63 0.24 M116.63 85.28 C142.33 58.07, 164.68 33, 191.67 -1.31 M118.14 83.61 C147.28 50.47, 175.91 16.95, 190.58 -0.26 M121 82.4 C147.88 55.78, 168.32 29.96, 194.68 0.77 M121.9 83.39 C139.99 64.86, 157.72 46.6, 196.54 0.51 M128.04 83.85 C154 56.25, 181.28 24.75, 199.4 -1.21 M127.8 83.68 C147.97 61.42, 169.33 38.86, 201.76 -0.26 M132.04 83.44 C151.83 62.97, 169.6 44.89, 208.6 0.88 M132.95 84.59 C152.95 62.6, 171.71 40.89, 206.06 -0.69 M140.53 85.04 C155.17 63.66, 170.37 47.4, 211.91 -1.63 M139.55 83.39 C164.19 54.25, 190.49 24.18, 212.67 -0.24 M144.94 82.69 C163.93 62.64, 183.44 42.11, 219 -2.12 M144.68 84.49 C160.75 65.45, 175.63 47.87, 218.54 0.16 M149.05 85.48 C172.65 59.55, 195.85 31.49, 222.15 1.47 M149.98 84.13 C170.31 60.65, 191.31 36.72, 222.14 0.13 M154.9 85.93 C177.45 56.74, 199.54 32.03, 229.41 -1.27 M154.76 84.53 C176.67 58.91, 200.01 31.2, 227.77 -0.32 M160.69 84.37 C174.28 65.99, 188.71 48.79, 231.24 -1.06 M159.04 84.13 C175.1 65.72, 189.62 48.76, 233.39 -0.75 M165.29 85.78 C188.66 56.99, 211.99 34.08, 236.91 -0.07 M165.29 84.23 C192.67 52.6, 218.07 20.94, 238.26 0.32 M170.79 83.96 C198.93 53.24, 227.06 21.76, 244.5 0.44 M170.14 84.97 C198.05 52.57, 225.71 19.5, 244.04 -0.37 M175.68 85.64 C199.11 57.57, 221.12 31.58, 250.72 0.54 M176.78 83.23 C194.09 64.19, 210.96 44.45, 247.89 -0.63 M181.49 82.58 C204.85 57.16, 227.76 29.73, 255.43 -1.54 M180.72 84.6 C208.24 53.86, 233.53 23.28, 254.13 -0.14 M185.84 83.74 C208.96 57.82, 230.9 28.68, 260.28 -1.28 M186.14 83.26 C212.87 56.26, 237.1 26.73, 260.02 -0.51 M193.15 83.37 C218.91 54.49, 244.07 23.87, 265.75 0.27 M191.66 84.01 C206.98 64.65, 223.68 46.84, 264.11 0.64 M195.7 85.13 C213.2 62.33, 234.01 45.54, 269.88 0.64 M196.69 84.12 C222.81 53.33, 250.43 23.72, 270.03 -0.34 M200.31 86.26 C223.6 59.82, 241.77 38.47, 277.32 0 M203.22 85.33 C228.42 55.38, 255.3 25.1, 274.82 0.75 M209.4 85.65 C232.88 52.74, 260.01 24.85, 281.99 1.33 M208.14 83.73 C233.45 55.73, 257.41 27.87, 280.72 -0.04 M211.69 84.01 C232.22 58.43, 255.81 35.24, 288.21 -1.46 M213.07 83.76 C229.92 64.83, 248.34 43.65, 285.51 -0.93 M219.26 83.97 C238.33 61.39, 257.71 37.22, 293.29 0.6 M218.64 84.09 C243.55 55.87, 269.44 25.95, 292.3 -0.43 M222.21 86.21 C240.84 61.6, 259.5 42.32, 296.69 -0.37 M224.31 83.6 C245.1 59.89, 266.8 34.28, 297.85 0.57 M229.79 85.57 C256.1 56.53, 280.07 25.12, 302.62 -0.92 M228.7 83.29 C247.91 61.86, 269.02 37.37, 302.38 0.76 M232.97 83.22 C252.54 60.6, 272.88 41.47, 309.19 -2.19 M233.41 84.25 C250.61 66.38, 265.98 47.12, 307.9 0.32 M241.67 82.74 C262.64 59.25, 279.93 37.12, 311.02 -1.77 M239.29 83.53 C253.8 66.04, 269.44 49.23, 311.99 0.89 M243.26 82.26 C263.28 63.42, 283.1 42.63, 316.35 -1.57 M244.28 84.19 C263.18 65.09, 279.69 45.19, 318.14 -0.53 M251.79 82.58 C272.72 60.78, 293.84 36.62, 321.71 0.3 M249.74 83.1 C269.75 62.81, 286.88 42.92, 323.55 0.41 M254.54 83.32 C273.33 64.38, 286.65 48.66, 328.99 1.65 M256.22 85 C275.98 59.4, 297.8 35.67, 329.45 -0.72 M260.56 83.76 C288.1 53.63, 312.66 23.79, 332.11 0.36 M261.15 85.12 C284.51 56.78, 307.09 30.78, 332.9 0.88 M266.5 83.23 C294.44 51.66, 319.17 21.94, 338.11 -1.54 M265.93 83.37 C293.93 50.41, 323 17.22, 339.11 -0.89 M270.56 85.5 C299.48 53.53, 328.96 22.02, 345.16 -0.94 M271 84.56 C293.9 59.17, 315.73 32.89, 344.61 1.7 M276.96 83.62 C300.83 55.68, 321.37 30.97, 344.35 6.19 M277.53 85.06 C298.55 59.71, 320.16 36.94, 344.25 7.92 M282.56 84.09 C294.79 64.95, 313.01 47.83, 345.46 11.64 M281.19 84.74 C304.26 56.9, 328.62 31.54, 344.14 13.17 M285.98 82.94 C303.59 66.41, 317.63 47.53, 341.72 18.42 M286.53 84.92 C304.88 65.36, 321.13 44.79, 343.6 18.25 M294.21 85.89 C308.96 65.64, 325.97 44.77, 342.84 24.31 M292.71 84.32 C304.46 70.12, 316.41 56.73, 343.4 24.79 M299.78 84.45 C309.64 67.27, 326.33 54.62, 345.71 30.04 M297.87 84.93 C312.01 65.66, 328.68 49.47, 343.59 31.19 M303.33 84.06 C316.75 68.7, 331.28 48.52, 342.8 36.13 M302.92 84.05 C312.8 72.2, 323.13 60.79, 343.17 37.26 M306.77 84.21 C323.03 68.39, 335.97 54.9, 344.09 43.28 M307.87 84.13 C318.36 72.03, 328.57 61.66, 343.14 42.46 M311.91 82.58 C319.18 76.25, 328.84 67.1, 343 48.74 M313.62 84.78 C324.82 71.24, 336.89 59.88, 343.64 50.08 M317.55 83.12 C328.66 72.69, 334.73 65.52, 344.8 55.18 M318.28 84.66 C327.17 75.28, 335.21 65.64, 343.57 55.88 M326.15 84.23 C331.57 75.4, 337.96 66.12, 345.32 62.83 M324.99 83.45 C331.81 75.8, 338.19 68.31, 344.42 62.11 M328.91 82.86 C334.48 79.94, 338.58 74.06, 343.32 66.34 M330.24 83.76 C334.18 78.07, 340.28 72.64, 343.93 68.12 M335.94 83.14 C338.65 81.04, 340.53 77.97, 342.94 74.74 M335.39 84.87 C336.83 82.63, 338.38 80.05, 343.42 74.33 M340.29 83.44 C341.35 83.46, 341.71 82.4, 344.11 80.6 M340.4 83.89 C341.01 82.91, 341.54 82.4, 343.71 80.04" stroke="#fca311" stroke-width="0.5" fill="none"></path><path d="M-0.05 0.39 C103.48 0.46, 207.18 0.17, 343.17 0.71 M0.33 0.12 C95.65 -1.97, 191.46 -1.92, 343.67 0.49 M344.46 0.34 C344.08 30.01, 341.48 61.28, 341.18 83.06 M342.88 -0.6 C342.42 17.52, 342.55 34.54, 343.58 83.31 M342.03 82.78 C246.35 85.48, 152.04 85.19, -0.48 83.86 M343.16 83.63 C222.75 86.15, 103.4 85.29, 0.43 83.42 M-1.33 85.23 C-0.29 51.61, 1.59 19.26, -1.88 1.43 M0.62 84.28 C0.63 63.63, 0.82 45.86, 0.09 0.14" stroke="#e5e5e5" stroke-width="1" fill="none"></path></g><g stroke-linecap="round" transform="translate(222.54199754018885 41.03986314942176) rotate(0 171.53608582574768 41.658763700538714)"><path d="M0.16 -0.73 L344.45 1.36 L343.08 84.55 L0.98 81.54" stroke="none" stroke-width="0" fill="#fca311"></path><path d="M0.39 -0.36 C81.97 -0.41, 163.22 0.18, 343.78 -0.28 M0.12 -0.08 C88.58 -1.14, 177.86 -0.54, 343.56 0.45 M343.41 1.47 C342.03 19.25, 342.6 38.88, 342.81 81.5 M342.48 -0.15 C342.41 19.98, 342 40.5, 343.06 83.12 M342.54 82.66 C210.61 82.64, 76.79 81.05, 0.54 83.98 M343.38 83.07 C209.23 84.08, 73.96 84.04, 0.1 83.85 M1.92 82.4 C-0.74 65.51, -1.42 43.88, 1.43 -1.45 M0.96 83.3 C0.06 64.95, 1.23 46.32, 0.14 0.77" stroke="#e5e5e5" stroke-width="1" fill="none"></path></g><g transform="translate(228.91705494828375 57.274528415071245) rotate(0 162 28.5)"><text x="162" y="40" font-family="Virgil, Segoe UI Emoji" font-size="45.08948541705373px" fill="#ffff" text-anchor="middle" style="white-space: pre;" direction="ltr">#30DaysOfQC</text></g><g stroke-linecap="round" transform="translate(105.18953247527236 219.77264561211052) rotate(0 303.74585910527986 211.20679808754213)"><path d="M0 0 C0 0, 0 0, 0 0 M0 0 C0 0, 0 0, 0 0 M1.48 13.11 C5.4 6.49, 7.3 0.78, 8.83 2.06 M-1.37 12.06 C1.78 9.72, 5.15 6.56, 12.2 1.41 M1.99 27.32 C6.33 12.85, 14.5 7.78, 19.7 -0.78 M1.53 24.68 C8.19 17.75, 14.23 8.19, 20.49 -1.93 M0.14 36.78 C11.55 26.53, 23.38 8.4, 28.86 0.45 M-0.29 35.42 C8.59 24.26, 19.55 11.34, 31.33 -1.81 M1.19 45.26 C12.16 40.5, 21.62 31.11, 42.13 0.24 M1.79 47.39 C14.42 29.41, 32.4 13.06, 42.38 0.34 M2.23 63.02 C19.78 37.99, 37.28 20.1, 50.16 2.81 M-0.84 61.24 C18.46 40.04, 37.82 19.61, 54.18 1.11 M-0.66 71.86 C9.76 60.27, 28.13 45.54, 64.22 -1.57 M0.15 74.32 C13.9 56.27, 30 40.16, 62.42 1.67 M-0.8 81.59 C27.41 59.07, 52.17 30.29, 72.38 3.12 M1.22 83.49 C28.85 51.31, 58.35 17.19, 73.79 -2.13 M-1.3 98.57 C25.7 73.79, 49.82 46.25, 83.87 2.43 M-1.81 96.08 C18.14 76.24, 36.48 55.34, 85.86 -1.66 M-0.21 106.4 C34.87 71.32, 70.96 32.89, 93.22 -0.8 M0.73 108.93 C27.77 71.27, 59.95 36.65, 94.97 -1.36 M1.8 118.22 C19.03 96.69, 45.85 66.05, 108.59 -2.74 M0.29 123.08 C23.26 93.04, 50.77 64.62, 108.09 -0.6 M0.32 133.44 C44.67 79.66, 86.82 32.97, 115.34 2.01 M0.65 134.86 C31.45 104.01, 60.56 67.96, 118.07 1.16 M-1.2 146.25 C40.73 93.12, 90.13 39.83, 130.88 1.07 M1.06 146.8 C37.53 99.74, 77.38 56.81, 126.08 -0.5 M-3.45 161.73 C38.6 114.38, 76.37 75.74, 140.61 0.58 M-0.45 158.48 C45.94 106.13, 94.76 52.03, 137.59 -0.23 M1.27 170.56 C55.38 108.3, 109.38 40.25, 147.01 -1.59 M-0.64 169.72 C58.43 106.28, 113.1 43.56, 148.8 -0.11 M2.31 181.48 C35.84 140.23, 73.42 99.87, 159.94 -1.02 M0.58 182.65 C67.02 112.98, 129.11 41.81, 158.37 1.38 M-2.14 196.54 C35.08 149.97, 70.46 110.52, 168.38 -0.57 M-0.07 194.28 C53.11 131.24, 107.45 68.49, 169.8 0.55 M2.8 206.25 C45.69 149.93, 100.25 89.54, 177.7 2.88 M-0.14 205.71 C42.91 157.02, 89.55 104.42, 181.32 0.3 M0.39 222.07 C64.12 140.63, 134.36 62.76, 192.29 -0.69 M0.97 220.87 C40.34 175.38, 81.51 129.73, 189.59 -1.27 M-0.59 229.38 C59.52 166.87, 116.83 96.34, 201.36 2.29 M-1.17 233.04 C41.12 183.45, 81.27 137.81, 201.5 0.09 M1.41 246 C78.87 157.94, 156.38 66.86, 212.39 0.25 M0.77 243.51 C86.41 146.08, 168.2 51.17, 212.83 1.28 M1.61 254.81 C73.7 174.64, 142.23 96.35, 224 -1.85 M-0.86 256.28 C77.81 165.67, 157.25 74.17, 223.45 -0.06 M2.59 267.06 C74.15 181.17, 149.31 93.2, 235.41 -1.02 M-0.81 266.71 C45.98 209.65, 93.42 155.07, 233.99 0.81 M0.1 278.32 C51.66 217.07, 105.58 159.48, 243.99 -1.03 M-1.39 279.94 C66.21 198.31, 137.36 118.37, 243.17 0.97 M-1.16 291.98 C57.24 223.86, 118.65 151.26, 252.96 -1.83 M0.86 293.25 C77.25 209.16, 153.56 122.09, 255.13 -0.4 M0.49 303.62 C70.98 219.47, 144.87 140.56, 263.49 -0.4 M-0.87 305.14 C104.15 185.13, 207.61 67.29, 264.76 -1.21 M0.17 317.1 C56.26 249.48, 117.1 184.4, 277.4 -0.13 M0 315.85 C75.04 228.76, 147.75 144.19, 276.73 -0.23 M1.83 326.99 C104.06 209.36, 208.39 90.56, 286.91 -1.37 M-0.47 328.66 C90.99 229.75, 179.45 126.94, 287 0.06 M-1.72 340.63 C72.87 257.24, 147.99 171, 298.28 1.64 M0.36 341.3 C79.4 255.75, 157.12 167.05, 296.32 -0.77 M0.26 353.79 C123.5 216.52, 240.23 80.87, 308.56 0.87 M-0.21 354.5 C104.65 233.07, 207.95 113.92, 307.26 -0.59 M-0.7 364.35 C93.1 262.3, 185.39 157.63, 319.91 -1.43 M-0.32 365.81 C113.55 240.16, 224.5 111.44, 318.48 0.41 M-0.87 378.91 C81.91 283.22, 162.27 189.03, 330.36 1.25 M0.86 377.02 C127.71 229.1, 257.09 79.75, 328.92 -0.52 M1.59 389.68 C117.95 251.24, 235.63 115.75, 339.56 0.23 M-0.24 389.73 C124.81 252.39, 247.08 111.7, 339.2 -1.06 M-1.12 401.76 C86.36 302.67, 174.08 199.84, 349.15 -1.11 M-0.98 402.74 C86.96 303.88, 173.04 206.6, 349.1 0.81 M0.09 413.63 C140.53 258.62, 279.17 98.45, 361.07 -0.52 M0.3 414.55 C91.52 311.58, 182.02 206.14, 360.23 0.11 M2.15 425.75 C123.01 281.71, 244.13 143.78, 372.05 1.23 M2.34 424.85 C115.48 296.5, 226.09 169.52, 370.44 -0.18 M12.76 424.9 C99.43 322.29, 185.02 221.91, 381.1 0.43 M12.51 424.6 C134.25 283.84, 255.36 144.86, 381.21 0.64 M22.2 423.37 C102.58 332.79, 180.18 245, 390.59 0.66 M23.27 425.01 C102.46 338.51, 177.85 251.95, 392.08 -0.52 M34.99 425.41 C135.82 305.44, 237.45 188.88, 401.52 -0.07 M34.08 424.88 C119.95 329.51, 204.39 230.88, 402.29 -0.15 M43.91 424.02 C131.46 329.05, 214.94 230.32, 412.02 0.15 M44.48 424.4 C134.37 318.36, 225.51 213.53, 413.86 -0.06 M54.08 423.35 C190.81 266.91, 324.93 110.74, 425.47 0.64 M55.62 424.45 C183.38 279.76, 309.21 133.43, 423.58 -0.15 M65.45 425.74 C194.6 279.15, 318.8 131.7, 433 1.24 M65.38 424.22 C195.97 272.35, 328.23 120.36, 434.12 0.86 M77.72 425.26 C184.14 296.74, 295.47 170.66, 443.96 -1.02 M76.37 423.68 C221.27 260.79, 364.28 96.51, 444.43 -0.14 M85.61 423.55 C196.95 295.26, 310.33 163.84, 455.67 0.81 M87.83 424.4 C196.26 297.68, 308.19 169.41, 456.05 -0.17 M96.62 423.41 C225.44 275.2, 353.98 127.59, 467.86 1.09 M97.22 424.05 C184.58 323.79, 269.3 225.46, 466.68 -0.55 M107.06 425.4 C215.86 296.22, 323.36 172.89, 478.01 0.68 M108.16 423.59 C214.82 297.82, 323.07 174.67, 476.53 0.37 M119.79 424.63 C239.52 287.83, 357.25 152.22, 486.26 0.47 M119.16 423.38 C219.15 308.56, 322.19 190.56, 488.26 0.08 M129.9 423.4 C232.66 304.36, 336.67 181.32, 497.06 1.25 M130 423.97 C272.25 262.32, 410.35 102.95, 498.92 -0.88 M139.24 424.71 C261.71 285.11, 381.86 147.4, 508.13 0.4 M140.04 423.81 C240.03 305.82, 341.39 190.24, 509.54 0.36 M151.69 422.59 C246.41 314.65, 342.23 204.29, 518.5 -1.77 M151.42 423.24 C246.38 317.23, 337.9 210.85, 520.24 0.24 M162.06 424.37 C302.41 262.24, 441.25 100.72, 530.26 1.06 M160.98 423.8 C275.07 296.32, 387.68 167.7, 530.2 -0.78 M169.98 425.74 C253.01 332.68, 334 239.45, 540.65 -1.29 M170.75 424.99 C260.53 324.14, 349.78 220.97, 540.8 -0.57 M180.94 423.65 C254.4 338.17, 329.03 251.43, 550.13 -0.38 M182.54 425.31 C325.36 256.09, 472.7 88.71, 550.77 -0.88 M191.33 423.91 C329.01 268.7, 468.33 108.64, 560.91 -1.27 M192.34 424.46 C313.58 285.24, 433.53 147.04, 562.57 -0.1 M202.35 425.28 C292.88 325.82, 380.76 221.09, 572.23 -0.22 M204.1 424.34 C323.43 290.99, 440.64 155.83, 572.68 -0.38 M214.61 423.34 C338.23 283.88, 462.87 140.1, 581.44 0.01 M214.64 424.29 C328.37 295.79, 442.76 162.52, 582.15 0.35 M223.48 423.18 C308.67 327.03, 394.81 227.36, 594.67 -0.24 M224.76 425.09 C366.69 262.01, 507.84 100.62, 592.75 -0.2 M236.76 423.29 C354.95 283.57, 476.19 141.94, 605.44 0.57 M236.04 425.07 C331.1 317.62, 426.2 208.67, 604.58 -0.07 M244.41 425.08 C337.14 324.15, 423.12 219.8, 612.34 1.86 M245.94 424.12 C328.86 327.48, 413.02 231.28, 611.24 2.99 M255.4 423.17 C398.31 259.79, 536.72 98.62, 613.01 15.1 M255.81 424.54 C346.51 322.29, 436.39 220, 611.23 15.44 M267.47 424.47 C348.79 334.79, 423.92 246.39, 611.44 26.66 M267.56 423.91 C354.75 322.8, 440.4 223.12, 611.93 27.75 M278.38 425.73 C403.49 279.19, 526.18 137.95, 610.7 39.09 M277.29 423.94 C358.21 333.47, 435.87 243.1, 610.94 40.65 M287.62 422.95 C374.46 327.15, 457.85 231.06, 612.37 52.64 M287.97 424.92 C409.46 282.8, 532.85 140.57, 611.4 52.35 M298.12 424.29 C395.98 309.64, 493.83 200.19, 611.06 65.96 M298.22 424.93 C414.52 285.17, 533.8 150.94, 611.65 64.96 M308.37 423.96 C408.27 308.44, 505.26 199.2, 612.02 75.99 M308.73 423.75 C398.92 325.08, 486.87 225.55, 610.9 76.14 M320.96 425.29 C400.96 332.89, 478.43 238.84, 611.82 89.91 M320.81 424.48 C407.02 322.79, 495.03 222.48, 612.11 89.36 M329.34 422.7 C420.84 321.19, 507.77 218.84, 609.89 100.02 M330.16 425.16 C437.05 299.02, 545.85 172.83, 612.33 101.16 M339.54 425.23 C434.37 320.83, 527.99 213.08, 610.74 114.96 M340.68 425.08 C409.8 346.82, 478.94 267.12, 612.82 114.1 M353.08 423.65 C415.02 349.81, 475.18 282.04, 612.96 123.69 M352.78 424.01 C407.18 354.59, 464.76 288.05, 612.5 124.61 M363.38 423.96 C458.08 309.06, 557.1 195.38, 609.56 139.11 M362.39 423.71 C448.73 325.73, 533.97 228.28, 611.36 137.79 M371.58 425.98 C468 321.24, 558.46 212, 612.31 150.33 M372.32 424.67 C441.22 345.73, 510.87 266.11, 610.96 150.17 M386.05 421.64 C455.88 340.88, 528.88 256.4, 612.51 163.9 M383.44 424.51 C453.49 344.28, 522.19 266.79, 612.94 161.89 M393.97 425.87 C441.79 368.91, 486.02 315.33, 609.62 176.72 M393.98 424.33 C445.18 365.43, 494.12 307.77, 610.98 172.8 M404.62 425.32 C451.93 374.28, 497.01 325.06, 609.69 186.11 M404.02 426.02 C468.57 351.16, 531.77 278.34, 611.04 184.79 M412.71 422.16 C460.91 375.2, 502.3 325.37, 611.41 196.34 M415.52 424.91 C453.78 376.22, 496.33 330.65, 612.52 198.66 M424.92 423.72 C497.85 341.13, 576.05 255.46, 610.67 210.6 M425.25 424.25 C500.28 342.35, 571.58 259.19, 612.56 212.28 M436.94 427.14 C480.68 371.11, 524.91 321.94, 611.66 222.81 M436.19 425.49 C497.28 357.59, 557.3 288.08, 610.77 223.58 M447.13 424.61 C513.06 347.84, 577.92 274.69, 608.84 231.84 M447.98 423.99 C507.88 350.06, 572.76 277.53, 612.57 235.38 M460.69 422.65 C503.99 378.74, 546.52 325.13, 614.25 250.74 M456.2 423.25 C502.21 374.56, 545.18 325.09, 611.79 246.23 M466.65 423.53 C507.03 378.43, 552.93 326.68, 611.33 256.88 M469.04 424.25 C497.85 389, 528.05 350.7, 612.19 258.8 M482.07 424.17 C522.3 372.06, 564.07 327.76, 614.24 269.84 M480.5 423.32 C508.47 391.59, 539.15 355.27, 610.41 273.01 M486.3 422.37 C524.48 383.54, 554.5 349.7, 613.36 280.27 M490.2 424.44 C516.2 395.94, 541.04 367.2, 612.48 284.14 M504.32 425.15 C543.05 375.32, 585.4 326.09, 612.24 292.99 M500.21 423.42 C539.86 384.53, 572.77 342.48, 611.23 296.43 M512.39 424.58 C537.62 389.6, 565.01 360.57, 610.84 311.82 M511.78 424.61 C547.05 385.68, 583.2 342.96, 611.7 307.7 M520.26 421.54 C548.22 394.52, 576.77 356.34, 610.89 321.1 M520.53 423.68 C545.42 401.27, 565.47 374.85, 610.42 319.7 M535.79 425.41 C550.77 399.44, 570.7 379.89, 608.51 329.67 M532.46 425.6 C554.45 398.92, 577.1 374.01, 611.21 332.86 M545.19 421.88 C564.74 404.05, 585.4 376.92, 609.07 343.67 M543.82 422.77 C571.18 395.76, 594.65 365.24, 611.7 345.39 M557.27 420.63 C571.4 401.66, 595.68 376.92, 614.79 359.01 M553.03 425.13 C567.52 407.31, 581.17 390.76, 610.51 356.21 M567.69 423.14 C575.62 409.83, 588.07 392.4, 612.35 369.87 M564.48 422.29 C580.88 406.78, 596.35 390.12, 610.49 371.77 M571.23 422.38 C591.79 409.31, 600.35 390.2, 611.74 381.43 M576.47 425.68 C587.45 409.37, 599.74 396.87, 613.24 381.18 M581.98 426.63 C587.77 419.06, 594.09 414.18, 614.57 390.18 M585.06 422.65 C596.18 411.54, 604.34 403.88, 611.01 394.89 M597.67 427.17 C598.32 422.53, 606.24 414.87, 612.99 404.62 M595.94 422.59 C601.42 416.87, 607.27 411.22, 613.23 407.74" stroke="#e5e5e5" stroke-width="1" fill="none"></path><path d="M0.51 -0.6 C180.2 1.43, 360.94 0.98, 606.85 0.93 M-0.79 -0.01 C211.98 1.32, 425.99 1.14, 607.05 -0.34 M606.77 -1.2 C608.13 154.02, 607.98 310.13, 606.22 420.47 M607.6 -0.02 C604.51 119.07, 604.82 236.86, 608.44 422.92 M608.78 423.75 C473.88 419.41, 339.04 420.79, 1.47 424 M608.19 422.98 C416.97 421.09, 227.27 421.22, -0.6 423.09 M-0.04 423.44 C-5.04 321.7, -2.77 223.42, -1.64 -2.06 M-0.79 422.6 C-3.87 269.5, -4.16 117.21, 0.09 -0.39" stroke="#e5e5e5" stroke-width="2" fill="none"></path></g><g stroke-linecap="round" transform="translate(111.85826440868505 213.57997963625212) rotate(0 303.74585910527986 211.20679808754213)"><path d="M1.36 0.01 L608.73 0.98 L605.72 422.07 L1.87 421.88" stroke="none" stroke-width="0" fill="#e5e5e5"></path><path d="M-0.3 0.08 C200.17 -0.35, 400.05 -1.09, 607.96 0.4 M0 -0.36 C193.31 2.68, 386.17 2.17, 607.32 0.28 M606.89 -0.06 C608.13 133.79, 608.17 267.23, 606.52 422.21 M607.48 -0.16 C607.42 101.54, 607.05 203.56, 607.75 422 M608.16 422.88 C449.58 424.7, 292.66 425.11, 0.79 422.52 M607.78 422.24 C397.22 424.59, 186.75 424.23, 0.34 422.15 M0.51 422.04 C0.03 255.98, 0.25 87.21, -1.03 0.66 M0.09 422.63 C0.09 255.03, 0.45 87.55, -0.19 0.36" stroke="#e5e5e5" stroke-width="1" fill="none"></path></g><g stroke-linecap="round" transform="translate(142.9309534393691 236.46596642315376) rotate(0 23.588388102560543 23.588388102560543)"><path d="M5.99 7.86 C5.99 7.86, 5.99 7.86, 5.99 7.86 M5.99 7.86 C5.99 7.86, 5.99 7.86, 5.99 7.86 M4.99 22.82 C11.54 16.77, 17.13 7.44, 22.48 1.46 M3.84 22.25 C9.71 15.97, 16.96 8.04, 22.15 0.73 M6.19 31.38 C14.96 21.54, 23.2 12.34, 30.88 3.87 M4.93 32.66 C13.77 23.14, 23.88 11.33, 31.08 3.64 M7.92 42.71 C18.15 27.47, 29.19 19.37, 39.04 6.18 M9.98 41.26 C17.06 29.94, 25.7 20.34, 39.12 5.73 M15.12 45.48 C23.12 39.95, 30.15 29.95, 42.7 12.08 M15.77 44.58 C22.78 37.34, 30.13 29.1, 44.23 11.58 M21.03 49.29 C29.09 42.33, 37.65 30.95, 48.75 20.95 M21.4 50.66 C33.27 37.73, 43.38 25.98, 49.51 19.6 M4.05 36.49 C4.05 36.49, 4.05 36.49, 4.05 36.49 M4.05 36.49 C4.05 36.49, 4.05 36.49, 4.05 36.49 M19.5 42.93 C12.57 32.93, 6.09 28.65, -0.8 22.78 M20.53 41 C14.63 36.51, 9.24 29.46, 0.8 24.24 M36.54 43.69 C22.96 33.81, 13.66 23.61, 6.07 14.71 M36.24 43.25 C25.22 32.58, 13.92 23.66, 4.56 16.69 M43.28 37.13 C29.8 27.42, 22.2 20.32, 8.26 6.78 M41.69 37.55 C31.95 27.63, 20.72 18.91, 7.41 7.74 M48.31 30.46 C41.33 25.5, 34.57 18.23, 16.44 1.94 M47.69 30.41 C36.04 22.23, 26.91 13.26, 15.41 2.87 M50.35 23.5 C36.65 10.7, 28.52 4.19, 22.85 -0.95 M47.46 22.22 C37.52 12.47, 27.69 3.43, 20.48 -1.74" stroke="#fca311" stroke-width="1" fill="none"></path><path d="M20.88 -0.41 C25.58 -1.34, 31.74 0.29, 36.12 3.15 C40.49 6.01, 45.71 11.6, 47.14 16.74 C48.56 21.87, 46.89 29.14, 44.65 33.95 C42.41 38.76, 38.28 43.6, 33.72 45.6 C29.15 47.59, 22.15 47.37, 17.26 45.91 C12.38 44.44, 7.17 40.96, 4.41 36.81 C1.66 32.66, 0.45 25.86, 0.74 21.01 C1.03 16.15, 2.39 11.23, 6.14 7.68 C9.89 4.14, 20.06 0.82, 23.23 -0.26 C26.4 -1.33, 25.13 0.75, 25.17 1.23 M17.51 -0.37 C22.03 -1.87, 27.93 0.68, 32.29 3.24 C36.65 5.8, 41.42 10.47, 43.67 14.99 C45.92 19.51, 46.84 25.91, 45.79 30.35 C44.74 34.79, 41.4 38.82, 37.39 41.61 C33.37 44.4, 27.01 47.33, 21.68 47.09 C16.36 46.84, 8.87 43.86, 5.42 40.16 C1.96 36.45, 1.33 29.97, 0.98 24.85 C0.63 19.74, 0.47 13.61, 3.32 9.49 C6.17 5.37, 15.69 1.66, 18.06 0.13 C20.43 -1.4, 17.68 -0.21, 17.55 0.31" stroke="#14213d" stroke-width="2" fill="none"></path></g><g stroke-linecap="round" transform="translate(244.25215279683061 236.46596642315376) rotate(0 23.58838810256055 23.588388102560543)"><path d="M2.97 13.19 C2.97 13.19, 2.97 13.19, 2.97 13.19 M2.97 13.19 C2.97 13.19, 2.97 13.19, 2.97 13.19 M1.96 26.01 C8.41 21.9, 12.31 15.72, 19.84 5.34 M1.96 27.52 C6.83 20.43, 12.12 15.37, 19.55 7.36 M8.25 32.92 C13.05 27.81, 16.46 21.79, 33.43 4.24 M5.96 34.15 C13.01 25.89, 20.72 16.96, 32.78 2.66 M12.55 42.81 C21.54 27.79, 32.29 18.13, 41.07 7.2 M10.2 40.83 C17.48 32.68, 23.65 26.7, 39.75 7.98 M14.55 45.9 C28.38 35.34, 40.91 19.81, 46.1 13.1 M14.56 47.9 C26.46 35.54, 36.94 22.38, 45.42 11.64 M23.42 48.29 C28.29 43.04, 37.23 37.05, 45.77 24.42 M23.88 50.09 C32.89 40.19, 40.82 31.23, 46.83 22.33 M9.46 42.46 C9.46 42.46, 9.46 42.46, 9.46 42.46 M9.46 42.46 C9.46 42.46, 9.46 42.46, 9.46 42.46 M27.82 48.2 C18.18 42.65, 11.87 34.46, 3.57 25.75 M26.9 46.58 C17.6 39.16, 10.52 32.8, 4.8 26.71 M32.94 44.73 C26.92 35.85, 20.17 28.46, 3.14 18.45 M33.79 43.69 C23.47 33.95, 11.68 23.32, 4.09 17.65 M41.19 36.89 C28.25 26.34, 14.03 16.05, 7.46 9.24 M41.52 39.46 C29.41 29.24, 19.23 18.26, 6.22 9 M45.61 29.39 C36.1 20.69, 23.57 14.05, 10.6 2.28 M44.18 30.65 C36.53 24.35, 28.8 16.57, 11.87 2.15 M47.83 22.38 C39.74 18.67, 36.43 12.28, 15.74 -4.16 M49.11 22.83 C36.97 14.5, 27.12 4.65, 18.17 -3.76" stroke="#fca311" stroke-width="1" fill="none"></path><path d="M30.42 1.34 C35.19 2.37, 40.56 5.98, 43.17 10.05 C45.78 14.13, 46.74 20.57, 46.09 25.78 C45.44 30.98, 42.57 37.61, 39.26 41.28 C35.95 44.94, 31.22 47.6, 26.24 47.78 C21.26 47.97, 13.52 45.41, 9.39 42.4 C5.26 39.39, 2.52 34.6, 1.46 29.72 C0.4 24.85, 1.05 17.75, 3.01 13.15 C4.96 8.54, 8.3 3.96, 13.18 2.09 C18.06 0.22, 28.6 1.68, 32.28 1.93 C35.95 2.17, 35.38 3.23, 35.23 3.57 M16.63 0.59 C21.29 -1.14, 28.92 -0.42, 33.53 1.85 C38.14 4.12, 42 9.88, 44.29 14.19 C46.59 18.49, 48.48 23.11, 47.3 27.69 C46.12 32.26, 41.15 38.21, 37.2 41.66 C33.25 45.11, 28.39 48.62, 23.6 48.39 C18.8 48.17, 12.21 43.84, 8.41 40.31 C4.61 36.79, 1.34 31.92, 0.79 27.24 C0.25 22.57, 2.49 16.51, 5.17 12.26 C7.84 8.01, 15.01 3.32, 16.86 1.74 C18.7 0.16, 15.97 2.64, 16.23 2.8" stroke="#14213d" stroke-width="2" fill="none"></path></g><g stroke-linecap="round" transform="translate(345.57335215428975 236.46596642315376) rotate(0 23.58838810256055 23.588388102560543)"><path d="M6.83 5.94 C6.83 5.94, 6.83 5.94, 6.83 5.94 M6.83 5.94 C6.83 5.94, 6.83 5.94, 6.83 5.94 M1.65 24.64 C9.74 16.15, 15.8 10.01, 20.28 0.28 M3.16 23.66 C9.38 15.18, 17.62 6.11, 22.31 -0.28 M4.55 33.6 C16.25 19.27, 27 8.72, 32.31 1.33 M5.79 31.86 C12.97 24.21, 19.45 15.17, 30.73 2.65 M9.7 41.93 C15.15 32.08, 26.01 22.55, 38.78 3.58 M7.71 41.71 C16.5 30.61, 27.46 19.95, 39.56 6.04 M12.72 46.54 C23.96 38.04, 30.23 27.99, 44.91 13.06 M14.72 46.04 C25.98 33.2, 36.41 20.49, 43.45 11.38 M19.57 48.5 C28.53 43.21, 36.66 31.94, 50.43 19.79 M21.37 50.97 C31.98 38.01, 43.6 24.68, 48.34 17.91 M4.99 38.46 C4.99 38.46, 4.99 38.46, 4.99 38.46 M4.99 38.46 C4.99 38.46, 4.99 38.46, 4.99 38.46 M22.84 40.61 C17.75 36.82, 10.36 32.55, -1.06 25.18 M21.22 41.41 C13.4 36.36, 7.04 30.47, -0.1 23.57 M36.99 44.12 C23.82 35.1, 11.85 21.63, 5.35 18.47 M35.95 44.42 C24.72 34.47, 13.1 23.17, 4.55 17.26 M39.22 37.52 C27.96 26.07, 17.35 18.28, 7.79 9.09 M41.79 37.2 C29.39 27.84, 16.28 16.2, 7.55 8.5 M45.73 33.7 C32.87 20.04, 22.06 9.35, 10.61 0.34 M46.99 32.9 C35.59 22.35, 22.48 10.1, 10.47 0.41 M46.03 20.19 C40.34 16.58, 31.78 5.97, 21.49 1.33 M46.48 21.45 C38.3 14.08, 28.15 6.03, 21.89 0.87" stroke="#fca311" stroke-width="1" fill="none"></path><path d="M21.62 0.31 C26.41 -0.76, 32.55 0.4, 36.66 3.05 C40.76 5.7, 44.69 11.03, 46.25 16.18 C47.82 21.32, 47.98 29.24, 46.04 33.92 C44.1 38.6, 39.38 42.03, 34.61 44.24 C29.85 46.44, 22.44 48.18, 17.45 47.17 C12.46 46.16, 7.63 42.49, 4.68 38.19 C1.72 33.89, -0.6 26.7, -0.28 21.38 C0.03 16.05, 2.22 9.95, 6.56 6.26 C10.9 2.56, 21.87 0.15, 25.74 -0.8 C29.61 -1.74, 29.84 0.13, 29.79 0.58 M21.37 0.82 C26.11 0.12, 32.94 1.19, 37.34 4.13 C41.75 7.08, 46.73 13.64, 47.78 18.49 C48.84 23.33, 46.2 28.58, 43.66 33.21 C41.12 37.85, 36.75 43.97, 32.55 46.3 C28.34 48.63, 23.28 48.65, 18.45 47.18 C13.62 45.71, 6.48 41.59, 3.55 37.49 C0.62 33.4, 0.02 27.72, 0.87 22.62 C1.71 17.52, 5 10.75, 8.61 6.9 C12.21 3.05, 20.09 0.38, 22.52 -0.5 C24.95 -1.38, 23.36 0.95, 23.16 1.6" stroke="#14213d" stroke-width="2" fill="none"></path></g><g stroke-linecap="round" transform="translate(446.89455151175116 236.46596642315376) rotate(0 23.588388102560543 23.588388102560543)"><path d="M4.1 8.86 C4.1 8.86, 4.1 8.86, 4.1 8.86 M4.1 8.86 C4.1 8.86, 4.1 8.86, 4.1 8.86 M1.67 26.79 C7.95 17.93, 16.58 6.11, 20.29 3.91 M0.69 24.63 C6.68 18.57, 12.08 12.73, 19.73 3.01 M5.67 33.47 C9.67 26.55, 17.49 19.33, 29.19 3.24 M3.94 33.03 C10.61 25.33, 15.86 19.11, 30.5 3.28 M9.06 39.18 C19.61 29.1, 30.51 15.68, 36.46 6.51 M8.84 39.59 C17.43 31.02, 26.46 20.45, 38.91 6.13 M16.52 45.9 C26.01 34.25, 33.95 24.45, 44.56 13.8 M16.02 44.54 C21.65 37.19, 27.38 29.6, 42.88 12.12 M20.68 48.43 C29 43.47, 31.33 38.31, 49.25 21.11 M23.15 48.84 C32.41 38.38, 41.3 25.68, 47.38 19.92 M7.01 39.18 C7.01 39.18, 7.01 39.18, 7.01 39.18 M7.01 39.18 C7.01 39.18, 7.01 39.18, 7.01 39.18 M22.68 45.3 C14.06 35.36, 5.17 26.24, 1.47 23.44 M23.48 42.84 C15.13 35.31, 5.99 26.52, -0.14 23.34 M36.3 42.85 C29.62 35.66, 18.08 30.43, 5.09 15.83 M36.6 43.83 C24.01 32.64, 9.77 21.58, 3.89 15.04 M41.08 36.03 C27.07 25.49, 16.52 15.55, 6.71 7.71 M40.76 37.79 C31.12 27.44, 19 19.12, 6.11 7.09 M47.9 29.69 C34.93 22.54, 25.19 13.68, 12.81 3.51 M47.09 32.38 C39.13 24.2, 29.07 15.76, 12.89 2.83 M43.47 20.81 C40.75 14.74, 30.86 7.65, 22.11 0.23 M44.73 20.15 C40.33 15.02, 35.51 10.12, 21.65 -0.75" stroke="#fca311" stroke-width="1" fill="none"></path><path d="M19.09 0.35 C23.47 -0.99, 29.63 0.27, 33.89 2.86 C38.14 5.45, 42.51 11.05, 44.64 15.87 C46.77 20.69, 48.24 27.22, 46.69 31.78 C45.14 36.35, 39.66 40.73, 35.34 43.28 C31.02 45.83, 25.55 47.82, 20.77 47.08 C15.99 46.35, 10.19 42.68, 6.64 38.86 C3.08 35.03, -0.15 29.14, -0.56 24.12 C-0.97 19.1, 0.56 12.87, 4.2 8.75 C7.84 4.64, 17.88 0.84, 21.27 -0.56 C24.66 -1.96, 24.44 -0.12, 24.52 0.35 M25.56 0.02 C30.33 0.27, 35.67 4.41, 39.36 7.66 C43.06 10.91, 47.15 14.85, 47.72 19.52 C48.29 24.19, 45.44 31.03, 42.77 35.67 C40.1 40.32, 36.29 45.88, 31.71 47.39 C27.13 48.9, 20.02 46.82, 15.27 44.76 C10.52 42.71, 5.41 39.22, 3.19 35.06 C0.98 30.9, 0.91 24.72, 1.98 19.79 C3.04 14.85, 5.86 8.53, 9.57 5.46 C13.28 2.38, 21.53 2.27, 24.24 1.34 C26.95 0.4, 25.61 -0.35, 25.85 -0.14" stroke="#14213d" stroke-width="2" fill="none"></path></g><g stroke-linecap="round" transform="translate(548.2157508692096 236.46596642315376) rotate(0 23.588388102560543 23.588388102560543)"><path d="M2.77 11.68 C2.77 11.68, 2.77 11.68, 2.77 11.68 M2.77 11.68 C2.77 11.68, 2.77 11.68, 2.77 11.68 M1.64 26.75 C7.46 20.85, 10.31 12.77, 21.17 4.32 M-0.53 27.6 C5.83 20.43, 12.42 11.89, 20.28 4.34 M6.18 31.95 C16.99 21.27, 27.49 7.87, 32.28 0.23 M5.75 33.16 C11.07 25.33, 17.92 18.33, 32.33 2.32 M8.45 41.37 C21.79 28.56, 31.82 12.23, 38.61 7.01 M8.87 40.33 C17.96 31.77, 25.04 23.76, 38.23 7.33 M16.16 48.08 C23.05 37.57, 31.73 29.56, 46.6 9.93 M14.8 46.6 C21.3 38.26, 27.57 30.59, 44.91 10.62 M22.2 51.14 C30.33 40.4, 38.23 35.41, 49.9 22.21 M22.61 50.12 C30.81 40.52, 36.79 32.06, 48.71 20.72 M9.92 43.46 C9.92 43.46, 9.92 43.46, 9.92 43.46 M9.92 43.46 C9.92 43.46, 9.92 43.46, 9.92 43.46 M27.4 45.68 C16.98 38.69, 7.66 33.4, 3.13 28.13 M24.93 46.92 C18.53 40.74, 10.73 33.44, 3.03 25.74 M33.25 44.34 C25.64 34.97, 20.53 32.68, 5 18.72 M34.22 43.39 C26.17 35.67, 18.74 30.78, 4.21 17.56 M40.07 37.26 C31.74 31.1, 23.37 22.99, 7.12 8.45 M41.83 39.45 C30.93 29.6, 22.5 22.09, 6.5 8.28 M43.51 29.86 C34.09 20.37, 22.53 11.41, 12.99 2.18 M46.2 32.61 C37.79 24.48, 29.02 17.29, 12.31 2.54 M51.06 26.77 C42.19 15.46, 32.02 10.77, 19.03 -4.87 M50.41 25.34 C38.46 15.39, 26.44 5.2, 18.04 -2.24" stroke="#fca311" stroke-width="1" fill="none"></path><path d="M30.25 0.01 C34.85 0.92, 40.35 5.22, 43.29 9.73 C46.24 14.24, 48.4 22, 47.92 27.08 C47.45 32.16, 44.35 36.74, 40.45 40.2 C36.55 43.66, 29.65 47.33, 24.51 47.83 C19.38 48.34, 13.7 46.47, 9.66 43.24 C5.62 40.01, 1.49 33.65, 0.29 28.45 C-0.91 23.25, 0.15 16.61, 2.46 12.04 C4.76 7.47, 9.24 2.89, 14.13 1.01 C19.02 -0.86, 28.5 0.55, 31.8 0.79 C35.1 1.02, 34.02 1.89, 33.95 2.42 M23.32 -0.3 C28.41 -0.66, 36.18 2.92, 39.89 6.07 C43.6 9.23, 45.01 13.58, 45.59 18.63 C46.18 23.68, 45.47 31.71, 43.4 36.37 C41.32 41.02, 37.85 44.87, 33.15 46.55 C28.45 48.23, 20.07 48.05, 15.22 46.46 C10.37 44.86, 6.28 41.4, 4.04 36.98 C1.81 32.56, 0.99 25.25, 1.8 19.94 C2.62 14.63, 5.12 8.27, 8.93 5.12 C12.73 1.97, 22.34 1.68, 24.63 1.07 C26.93 0.46, 22.87 1.03, 22.69 1.44" stroke="#14213d" stroke-width="2" fill="none"></path></g><g stroke-linecap="round" transform="translate(649.5369502266699 236.46596642315376) rotate(0 23.588388102560543 23.588388102560543)"><path d="M0.89 14.03 C0.89 14.03, 0.89 14.03, 0.89 14.03 M0.89 14.03 C0.89 14.03, 0.89 14.03, 0.89 14.03 M0.38 28.06 C5.88 19.55, 9.22 17.83, 17.55 6.78 M1.23 26.51 C7.69 19.51, 12.78 12.54, 17.57 7.31 M4.3 34.42 C12.68 26.26, 18.36 16.87, 29.76 2.26 M5.51 32.64 C14.83 21.87, 24.96 11.25, 31.86 4.37 M10.94 41.2 C22.35 27.25, 30.24 15.19, 37.99 7.11 M9.89 40.97 C17.95 31.6, 26.57 21.89, 38.31 7.5 M16.26 46.54 C21 40.03, 28.24 33.66, 42.45 11.62 M14.78 46.33 C23.45 35.17, 32.79 25.02, 43.14 12.85 M25 49.23 C27.35 44.36, 35.44 38.78, 49.12 21.2 M23.99 49.53 C30.22 39.64, 37.61 32.39, 47.64 21.33 M10.76 42.5 C10.76 42.5, 10.76 42.5, 10.76 42.5 M10.76 42.5 C10.76 42.5, 10.76 42.5, 10.76 42.5 M26.4 45.9 C18.41 37.6, 11.75 32.48, 5.79 26.18 M27.64 46.31 C21.94 40.18, 14.74 36, 3.4 25.29 M36.64 41.7 C19.93 32.05, 10.5 20.68, 3.4 12.35 M35.69 42.71 C21.03 31.85, 9.77 20.78, 2.24 13.05 M39.73 36.98 C34.91 31.7, 27.96 25.93, 7.04 6.74 M41.92 36.73 C28.21 26.92, 16.28 15.88, 6.87 7.74 M44.17 30.76 C36.55 23.58, 29.77 18.16, 12.16 0.72 M46.92 31.23 C36 22.41, 26.14 14.79, 12.51 1.59 M51.52 24.35 C41.84 17.43, 38.26 14.32, 22.43 2.3 M50.09 23.6 C44.38 17.99, 38.1 13.67, 25.06 2.05" stroke="#fca311" stroke-width="1" fill="none"></path><path d="M28.46 0.73 C33 1.8, 38.62 6.53, 41.85 10.75 C45.08 14.97, 48.17 21.25, 47.85 26.07 C47.52 30.88, 43.44 36.12, 39.9 39.65 C36.36 43.18, 31.41 46.72, 26.6 47.23 C21.78 47.74, 15.39 45.61, 11.01 42.72 C6.63 39.83, 1.95 34.72, 0.3 29.89 C-1.34 25.06, -0.88 18.42, 1.15 13.73 C3.18 9.03, 7.29 3.7, 12.47 1.72 C17.66 -0.26, 28.37 1.43, 32.25 1.84 C36.13 2.25, 35.76 3.79, 35.77 4.18 M19.73 1.61 C24.43 0.39, 32.31 -0.02, 36.58 2.26 C40.84 4.54, 43.63 10.1, 45.33 15.29 C47.03 20.48, 48.36 28.68, 46.77 33.42 C45.18 38.16, 40.32 41.4, 35.79 43.74 C31.25 46.08, 24.44 48.12, 19.57 47.47 C14.69 46.81, 9.78 43.77, 6.55 39.81 C3.32 35.86, 0.41 28.82, 0.2 23.74 C0 18.65, 1.83 13.33, 5.31 9.32 C8.79 5.3, 18.47 1.02, 21.1 -0.37 C23.73 -1.76, 21 0.66, 21.08 0.97" stroke="#14213d" stroke-width="2" fill="none"></path></g><g stroke-linecap="round" transform="translate(142.9309534393691 318.2995282251137) rotate(0 23.588388102560543 23.58838810256055)"><path d="M9.67 3.11 C9.67 3.11, 9.67 3.11, 9.67 3.11 M9.67 3.11 C9.67 3.11, 9.67 3.11, 9.67 3.11 M6.45 21.42 C9.83 12.57, 20.01 4.86, 23.27 1.61 M4.9 21.13 C11.64 12.47, 18.37 5.94, 23.79 -0.23 M4.87 34.65 C14.48 22.29, 22.86 10.45, 29.15 5.11 M3.1 33.99 C10.12 26.65, 17.3 18.83, 31.26 4.7 M10.28 41.6 C18.37 27.58, 28.32 18.3, 36.85 7.18 M10.05 40.28 C19.47 29.89, 28.52 18.18, 37.24 6.6 M15 45.94 C25.47 35.36, 36.13 20.83, 43.46 11.55 M14.78 45.26 C23.8 34.42, 33.84 22.71, 44.7 10.42 M24.77 45.63 C30.99 42.49, 36.47 36.92, 48.85 18.97 M25.07 46.7 C32.75 36.21, 43.06 26.51, 48.97 19.02 M13.16 44.3 C13.16 44.3, 13.16 44.3, 13.16 44.3 M13.16 44.3 C13.16 44.3, 13.16 44.3, 13.16 44.3 M27.82 46.22 C21.82 43.85, 19.36 40.3, 6.55 27.09 M28.23 47.45 C23.15 42.46, 19.69 38.17, 5.66 28.71 M33.69 39.69 C24.83 34.42, 14.24 25.07, 1.51 15.54 M34.7 40.64 C21.74 31.44, 9.15 20.38, 2.22 12.91 M40.46 37.06 C32.58 28.88, 23.75 20.43, 6.43 8.52 M40.2 35.81 C34.03 30.45, 26.83 24.17, 7.43 6.47 M47.69 30.22 C35.01 19.7, 23.53 8.78, 10.29 0.23 M48.16 31.49 C35.37 21.35, 24.4 11.63, 11.16 -0.05 M50.86 21.45 C43.19 19.32, 39.67 11.48, 22.44 -2.82 M50.11 23.88 C42.65 17.87, 36.82 12.33, 22.19 -1.76" stroke="#fca311" stroke-width="1" fill="none"></path><path d="M25.65 -0.82 C30.63 -0.41, 37.5 4.02, 41.19 7.66 C44.87 11.3, 47.56 15.97, 47.77 21 C47.99 26.03, 45.46 33.47, 42.47 37.83 C39.48 42.18, 34.71 46.02, 29.85 47.11 C24.98 48.21, 17.88 46.81, 13.26 44.39 C8.64 41.97, 4.24 37.23, 2.14 32.59 C0.05 27.95, -0.54 21.43, 0.68 16.56 C1.9 11.68, 4.43 5.99, 9.47 3.34 C14.52 0.68, 26.56 0.51, 30.95 0.65 C35.34 0.78, 35.89 3.73, 35.8 4.15 M30.81 1.47 C35.34 2.32, 39.01 5.07, 41.6 9.26 C44.19 13.46, 46.35 21.34, 46.36 26.63 C46.37 31.91, 45.18 37.48, 41.68 40.99 C38.17 44.5, 30.44 47.11, 25.32 47.68 C20.21 48.25, 14.82 47.35, 11 44.42 C7.17 41.49, 3.72 35.3, 2.35 30.11 C0.99 24.92, 0.75 17.72, 2.81 13.26 C4.87 8.8, 10.38 5.3, 14.72 3.37 C19.06 1.45, 26.35 1.88, 28.83 1.72 C31.31 1.56, 29.77 1.97, 29.59 2.4" stroke="#14213d" stroke-width="2" fill="none"></path></g><g stroke-linecap="round" transform="translate(244.25215279683061 318.2995282251137) rotate(0 23.58838810256055 23.58838810256055)"><path d="M6.12 6.64 C6.12 6.64, 6.12 6.64, 6.12 6.64 M6.12 6.64 C6.12 6.64, 6.12 6.64, 6.12 6.64 M3.3 21.44 C8.97 16.92, 15.78 7.33, 22.9 2.11 M3.02 23.46 C5.41 19.44, 9.97 14.53, 21.05 1.98 M5.08 33.92 C12.11 23.01, 19.65 12.56, 31.32 2.71 M4.43 32.34 C12.75 23.91, 20.62 16.03, 30.91 3.87 M9.45 40.66 C13.42 32.76, 22.16 23.59, 38.31 6.59 M8.13 41.44 C15.35 33.12, 21.27 25.52, 37.73 6.15 M14.48 46.55 C26.69 34.24, 34.97 18.63, 43.67 13.02 M13.79 45.1 C23.86 34.27, 33.03 23.27, 42.54 11.64 M19.39 51.84 C29.95 43.12, 38.12 32.2, 48.3 20.65 M20.45 49.75 C28.97 40.9, 38.29 30.42, 48.35 19.59 M2.84 36.36 C2.84 36.36, 2.84 36.36, 2.84 36.36 M2.84 36.36 C2.84 36.36, 2.84 36.36, 2.84 36.36 M20.35 39.99 C14.19 35.19, 6.68 27.58, -0.9 21.4 M21.58 40.95 C15.9 38.15, 11.06 32.74, 0.73 23.45 M33.5 44.5 C27.39 36.16, 17.73 25.69, 5.2 17.71 M34.45 43.7 C23.11 32.91, 10.41 21.26, 2.58 15.49 M41.59 38.57 C34.31 32.19, 26.18 23.8, 8.62 6.68 M40.35 38.33 C29.82 28.33, 18.59 18.49, 6.57 8.92 M45.49 32.27 C38.96 26.78, 31.38 17.9, 10.76 1.49 M46.76 32.14 C31.88 20.53, 17.98 7.48, 10.48 0.13 M45.35 21.24 C38.83 15.85, 27.05 7.34, 21.09 -0.94 M47.78 21.63 C38.48 14.77, 29.78 6.99, 22.16 1.18" stroke="#fca311" stroke-width="1" fill="none"></path><path d="M21.24 0.95 C26.3 0.47, 34.24 2.53, 38.36 5.31 C42.48 8.09, 44.8 12.82, 45.97 17.65 C47.14 22.48, 47.43 29.75, 45.39 34.28 C43.35 38.82, 38.58 42.9, 33.73 44.88 C28.88 46.86, 21.45 47.55, 16.32 46.15 C11.19 44.75, 5.82 40.78, 2.97 36.48 C0.12 32.17, -1.33 25.35, -0.76 20.32 C-0.18 15.29, 1.97 9.66, 6.43 6.28 C10.89 2.9, 21.92 0.82, 26 0.04 C30.08 -0.74, 30.89 1.1, 30.89 1.6 M24.22 -1.18 C28.97 -1.85, 34.11 1.07, 38.07 4.71 C42.04 8.35, 46.87 15.64, 48.01 20.65 C49.16 25.66, 47.56 30.45, 44.95 34.75 C42.34 39.06, 37.02 44.39, 32.36 46.47 C27.7 48.56, 21.81 48.99, 16.99 47.27 C12.16 45.56, 6.27 40.56, 3.4 36.16 C0.53 31.76, -1.23 26.09, -0.22 20.89 C0.78 15.69, 5.31 8.38, 9.42 4.94 C13.54 1.49, 21.92 1.17, 24.47 0.24 C27.01 -0.69, 24.65 -0.83, 24.7 -0.65" stroke="#14213d" stroke-width="2" fill="none"></path></g><g stroke-linecap="round" transform="translate(345.57335215428975 318.2995282251137) rotate(0 23.58838810256055 23.58838810256055)"><path d="M1.33 14.41 C1.33 14.41, 1.33 14.41, 1.33 14.41 M1.33 14.41 C1.33 14.41, 1.33 14.41, 1.33 14.41 M-0.97 26.86 C7.68 20.69, 11.28 16.88, 18.65 5.97 M1.06 26.3 C8.43 18.99, 14.91 11.64, 18.52 7.84 M6.47 33.2 C12.13 24.24, 18.29 19.07, 31.59 3.19 M4.88 34.51 C14.78 23.91, 25.18 13.73, 32.74 2.38 M9.66 39.22 C20.4 28.63, 29.88 16.5, 39.93 5.78 M10.44 41.67 C18.54 30.73, 27.38 19.33, 39.49 8.36 M16.44 47.94 C27.34 33.12, 34.94 23.02, 45.64 13.44 M14.99 46.26 C22.89 37.24, 30.61 28.55, 44.26 12.63 M28.53 47.12 C36.42 38.89, 42.09 28.55, 49.93 21.33 M26.44 45.25 C34.11 38.48, 40.13 30.78, 48.87 21.93 M10.76 42.5 C10.76 42.5, 10.76 42.5, 10.76 42.5 M10.76 42.5 C10.76 42.5, 10.76 42.5, 10.76 42.5 M25.08 46.93 C21.66 42.45, 15.34 34.91, 2.22 24.35 M26.04 45.32 C19.77 38.75, 10.91 33.71, 4.27 25.96 M36.03 44.15 C23.15 32.45, 7.99 21.1, 3.58 15.31 M35.22 42.95 C22.32 31.47, 8.84 18.81, 1.36 12.64 M42.24 38.06 C35.73 31.63, 27.05 26.72, 5.91 8.62 M41.99 37.46 C31 27.39, 19.68 16.9, 8.15 7.11 M45.05 29.3 C39.82 23.53, 31.18 18.39, 14.07 4.5 M44.92 29.37 C33.34 19.08, 20.58 8.37, 12.71 3.26 M48.39 23.74 C40.85 12.25, 30.4 4.23, 22.2 1.83 M48.79 23.27 C41.44 16.58, 33.23 8.3, 24.32 1.19" stroke="#fca311" stroke-width="1" fill="none"></path><path d="M13.37 3.52 C17.58 1.05, 24.4 -1.08, 29.12 -0.05 C33.85 0.98, 38.68 5.53, 41.71 9.72 C44.75 13.91, 47.48 20.25, 47.33 25.09 C47.19 29.93, 44.22 35.28, 40.81 38.76 C37.4 42.25, 31.84 45.33, 26.87 45.99 C21.9 46.65, 15.39 45.38, 11.01 42.71 C6.62 40.05, 2.16 34.76, 0.57 30.01 C-1.01 25.26, -0.94 18.95, 1.5 14.21 C3.94 9.47, 12.38 3.83, 15.21 1.58 C18.05 -0.66, 18.25 0.38, 18.49 0.73 M20.06 -0.49 C24.46 -1.19, 31.55 2.21, 36.13 5.31 C40.71 8.4, 46.14 13.31, 47.54 18.08 C48.95 22.85, 46.7 29.21, 44.54 33.9 C42.38 38.59, 38.79 44.09, 34.58 46.22 C30.36 48.34, 24.17 48.21, 19.26 46.64 C14.35 45.07, 8.12 40.75, 5.14 36.79 C2.16 32.84, 1.22 27.68, 1.37 22.9 C1.52 18.11, 2.71 11.69, 6.06 8.09 C9.41 4.5, 19.12 2.36, 21.47 1.32 C23.82 0.28, 20.33 1.43, 20.16 1.86" stroke="#14213d" stroke-width="2" fill="none"></path></g><g stroke-linecap="round" transform="translate(446.89455151175116 318.2995282251137) rotate(0 23.588388102560543 23.58838810256055)"><path d="M7.76 5.42 C7.76 5.42, 7.76 5.42, 7.76 5.42 M7.76 5.42 C7.76 5.42, 7.76 5.42, 7.76 5.42 M2.96 24.62 C9.31 15.6, 18.05 8.4, 20.06 3.34 M2.4 23.72 C7.58 17.88, 12.74 11.99, 21.93 1.22 M2.01 35.26 C10.08 23.97, 21.94 13.92, 29.2 6.18 M3.33 35.31 C8.71 30.47, 14.5 23.58, 28.38 5.91 M7.32 40.8 C18.85 28.19, 28.9 17.85, 37.27 6.21 M9.77 40.42 C19.96 27.74, 29.71 15.88, 39.85 6.6 M16.08 47.34 C22.19 34.11, 33.03 25.81, 44.41 11.99 M14.4 45.66 C22.79 36.03, 31.48 25.5, 43.59 13.4 M26.67 47.85 C34.79 37.08, 40.76 30.09, 48.09 20.59 M24.8 46.67 C34.66 35.89, 43.56 26.1, 48.69 19.37 M14.65 45.64 C14.65 45.64, 14.65 45.64, 14.65 45.64 M14.65 45.64 C14.65 45.64, 14.65 45.64, 14.65 45.64 M27.98 46.3 C23.32 40.99, 15.49 34.47, 6.21 29.72 M26.37 46.2 C20.38 39.8, 16.19 35.89, 7.82 30.01 M36.13 42.63 C27.76 33.26, 19.21 28.87, 5.21 16.23 M34.92 41.83 C24.27 31.9, 11.97 22.59, 2.54 13.6 M41.52 37.79 C31.98 28.33, 24.08 19.29, 8.39 8.49 M40.92 37.16 C33.83 30.84, 25.78 24.53, 6.89 6.89 M46.87 32.93 C36.49 21.34, 26.19 13.63, 13.39 2.16 M46.94 32.25 C35.1 20.71, 22.56 9.35, 12.15 1.34 M50.13 24.4 C38.06 15.36, 28.99 4.64, 22.6 -1.1 M49.66 23.42 C41.18 15.87, 31.4 8.26, 21.96 -2.17" stroke="#fca311" stroke-width="1" fill="none"></path><path d="M24.21 0.68 C29.07 0.14, 34.23 1.87, 38.11 5.02 C41.99 8.16, 46.38 14.56, 47.49 19.55 C48.61 24.54, 47.52 30.59, 44.81 34.94 C42.09 39.29, 36.22 43.87, 31.19 45.66 C26.17 47.44, 19.49 47.46, 14.68 45.66 C9.86 43.87, 4.85 39.26, 2.31 34.88 C-0.24 30.51, -1.49 24.32, -0.58 19.41 C0.33 14.5, 3.57 8.68, 7.74 5.44 C11.91 2.2, 21.59 0.73, 24.44 -0.01 C27.3 -0.75, 24.9 0.67, 24.87 1.03 M33.16 1.56 C37.7 3.77, 43.93 10.44, 46.27 15.08 C48.61 19.71, 48.65 24.58, 47.2 29.37 C45.74 34.15, 41.63 40.59, 37.54 43.79 C33.46 46.99, 27.78 49.05, 22.68 48.55 C17.58 48.06, 10.81 44.44, 6.94 40.8 C3.08 37.16, -0.25 31.98, -0.5 26.72 C-0.74 21.46, 2.27 13.52, 5.47 9.23 C8.66 4.94, 13.76 2.32, 18.68 0.98 C23.59 -0.36, 32.27 1.06, 34.97 1.19 C37.66 1.32, 34.96 1.31, 34.83 1.74" stroke="#14213d" stroke-width="2" fill="none"></path></g><g stroke-linecap="round" transform="translate(548.2157508692096 318.2995282251137) rotate(0 23.588388102560543 23.58838810256055)"><path d="M2.15 13.79 C2.15 13.79, 2.15 13.79, 2.15 13.79 M2.15 13.79 C2.15 13.79, 2.15 13.79, 2.15 13.79 M2.84 26.81 C7.91 21.56, 14.77 11.01, 21.06 5.59 M1.95 26.83 C8.59 19.4, 15.17 12.12, 18.94 6.63 M5.42 32.53 C13.17 25.45, 22.2 14.26, 32.77 2.04 M5.47 34.62 C14.78 25.77, 22.01 15.13, 32.5 4.35 M10.43 40.82 C20.49 28.36, 32.81 14.62, 38.77 9.67 M10.05 41.14 C19.28 28.96, 29.33 20.04, 39.16 8.51 M17.11 45.25 C22.94 36.85, 33.72 27.15, 44.49 12.87 M15.42 45.93 C22.45 38.44, 28.53 31.45, 45.89 13.23 M28.28 48.47 C30.55 41.69, 36.61 36.61, 48.33 23.83 M27.1 46.98 C31.32 41.65, 36.52 36.75, 47.11 22.48 M9.72 42.16 C9.72 42.16, 9.72 42.16, 9.72 42.16 M9.72 42.16 C9.72 42.16, 9.72 42.16, 9.72 42.16 M27.09 47.83 C20.51 40.09, 12.44 33.82, 4.27 26.29 M26.99 45.43 C17.44 39.63, 10.17 31.49, 4.55 26.02 M35 43.67 C26.35 38.39, 23.02 33.19, 6.07 17.26 M34.2 42.5 C26.85 35.47, 20.33 30, 3.44 16.05 M42.39 37.98 C29.82 29.88, 17.87 19.76, 8 6.74 M41.77 37.81 C34.41 30.86, 27.3 24.42, 6.4 8.28 M46.01 29.75 C36.96 24.08, 31.71 20.22, 14.27 3.11 M45.32 30.1 C36.63 22.57, 27.85 16.63, 13.45 2.71 M49.78 20.73 C43.17 16.1, 34.7 13.32, 19.12 -2.84 M48.79 23.36 C38.47 13.32, 27.95 4.98, 18.04 -3.07" stroke="#fca311" stroke-width="1" fill="none"></path><path d="M13.94 1.83 C17.9 -0.55, 24.06 -0.04, 28.88 1.4 C33.69 2.84, 39.87 6.59, 42.85 10.47 C45.83 14.35, 47.17 19.92, 46.78 24.68 C46.38 29.44, 43.97 35.46, 40.49 39.03 C37.01 42.61, 31.03 45.61, 25.91 46.14 C20.79 46.67, 13.99 44.99, 9.79 42.22 C5.59 39.44, 2.03 34.17, 0.72 29.48 C-0.6 24.79, -0.51 18.79, 1.89 14.09 C4.3 9.38, 12.49 3.38, 15.13 1.26 C17.78 -0.87, 17.64 0.78, 17.75 1.35 M28.46 1.89 C33.6 2.99, 40.85 6.56, 43.87 10.54 C46.89 14.52, 46.99 20.64, 46.58 25.76 C46.16 30.89, 44.53 37.71, 41.37 41.29 C38.21 44.87, 32.66 47.01, 27.63 47.23 C22.6 47.46, 15.4 45.29, 11.17 42.63 C6.94 39.96, 3.88 35.84, 2.24 31.24 C0.61 26.64, -0.5 19.65, 1.36 15.05 C3.22 10.44, 8.95 5.81, 13.41 3.63 C17.86 1.45, 25.64 2.13, 28.09 1.95 C30.54 1.78, 28.12 2.41, 28.1 2.57" stroke="#14213d" stroke-width="2" fill="none"></path></g><g stroke-linecap="round" transform="translate(649.5369502266699 318.2995282251137) rotate(0 23.588388102560543 23.58838810256055)"><path d="M3.69 9.83 C3.69 9.83, 3.69 9.83, 3.69 9.83 M3.69 9.83 C3.69 9.83, 3.69 9.83, 3.69 9.83 M0.01 25.98 C6.3 21.46, 7.29 17.62, 19.6 4.41 M0.02 26.51 C6.85 18.75, 13.8 10.33, 20.64 3.34 M2.38 32.79 C14.48 22.64, 22.44 13.85, 28.32 3.75 M4.48 34.89 C10.86 27.19, 15.49 20.34, 30.63 4.53 M7.98 40.65 C16.08 32.85, 22.86 22.8, 39.47 7.3 M8.31 41.04 C16.36 30.85, 27.75 19.97, 38.3 6.69 M13.76 43.65 C25.27 34.16, 35.49 21.55, 44.21 10.5 M14.45 44.88 C21.45 36.58, 28.94 30.26, 44.57 11.04 M24.37 48.71 C32.95 38.25, 43.28 25.38, 51.53 16.43 M22.88 48.83 C29.92 41.25, 37.34 32.22, 50.18 18.47 M5.6 39.28 C5.6 39.28, 5.6 39.28, 5.6 39.28 M5.6 39.28 C5.6 39.28, 5.6 39.28, 5.6 39.28 M24.79 43.96 C17.01 37.68, 10.98 35.57, 0.29 25.38 M22.39 43.06 C18.34 39.38, 11.8 35.08, 0.02 23.2 M34.47 40.63 C23.28 34.34, 12.7 24.66, 3.46 13.85 M33.31 41.33 C21.36 32.61, 11.38 23.08, 2.25 15.58 M41.13 37.64 C30.46 26.45, 17.96 18.58, 3.94 5.63 M40.96 38.64 C28.24 28.43, 16.02 16.49, 5.47 6.52 M44.74 30.31 C36.06 24.06, 28.93 17.22, 13.85 2.37 M45.09 31.18 C36.77 23.4, 29.57 17.88, 13.46 2.4 M48.97 26.64 C41.17 17.4, 35.47 11.98, 20.04 -0.24 M51.6 26.39 C42.07 19.34, 34.49 10.57, 19.81 -1.53" stroke="#fca311" stroke-width="1" fill="none"></path><path d="M33.36 1.95 C37.8 3.69, 43.55 9.51, 45.82 14.14 C48.1 18.78, 48.6 24.91, 47 29.73 C45.41 34.55, 40.7 40.21, 36.23 43.07 C31.76 45.94, 25.28 47.53, 20.2 46.92 C15.11 46.3, 9.24 43.03, 5.73 39.39 C2.22 35.75, -0.56 30.03, -0.86 25.06 C-1.17 20.1, 0.76 13.65, 3.9 9.59 C7.03 5.53, 12.86 1.72, 17.96 0.68 C23.07 -0.35, 31.62 2.88, 34.54 3.36 C37.47 3.85, 35.5 3.25, 35.51 3.59 M15.77 3.04 C20.34 0.96, 26.85 -0.89, 31.57 0.55 C36.29 1.98, 41.3 7.06, 44.1 11.67 C46.9 16.27, 49.08 23.16, 48.35 28.16 C47.62 33.16, 43.77 38.3, 39.72 41.68 C35.67 45.06, 28.95 48.46, 24.05 48.46 C19.14 48.46, 14.05 44.91, 10.29 41.66 C6.54 38.4, 2.6 33.94, 1.53 28.93 C0.46 23.91, 1.48 16.26, 3.87 11.58 C6.25 6.89, 13.78 2.47, 15.84 0.8 C17.89 -0.87, 16.25 0.9, 16.18 1.55" stroke="#14213d" stroke-width="2" fill="none"></path></g><g stroke-linecap="round" transform="translate(142.9309534393691 400.1330900270739) rotate(0 23.588388102560543 23.58838810256055)"><path d="M2.95 11.84 C2.95 11.84, 2.95 11.84, 2.95 11.84 M2.95 11.84 C2.95 11.84, 2.95 11.84, 2.95 11.84 M0.8 28.46 C6.6 18.94, 13.1 13.52, 21.54 4.76 M1.33 26.61 C5.03 22.51, 8.11 17.91, 20.47 4.72 M3.4 35.72 C10.94 26.51, 19.83 16.16, 32.11 1.41 M5.51 35.31 C14.7 22.37, 24.73 12.18, 32.89 2.42 M7.82 41.57 C16.04 32.56, 22.02 27.91, 38.71 8.33 M8.21 40.99 C20.77 29.25, 32.62 15.06, 38.1 8.36 M15.09 45.19 C26.82 34.37, 35.46 22.2, 42.7 11.9 M16.32 44.06 C22.83 36.97, 31.3 29.37, 43.24 14.01 M24.41 48.08 C34.88 37.41, 42.97 28.44, 48.66 17.48 M24.54 48.13 C30.63 41.95, 35.28 34.79, 50.71 19.3 M7.35 40.33 C7.35 40.33, 7.35 40.33, 7.35 40.33 M7.35 40.33 C7.35 40.33, 7.35 40.33, 7.35 40.33 M24.89 44.1 C14.63 36.21, 8.71 30.67, 3.35 24.04 M23.99 45.72 C18.81 39.4, 13.32 33.86, 1.17 25.7 M31.92 43.05 C23.08 33.44, 11.17 22.31, 1.95 16.55 M32.63 40.43 C21.63 31.32, 10.04 22.28, 3.69 16.11 M40.62 39.31 C27.94 28.73, 18.94 16.65, 4.73 8.57 M41.61 37.26 C31.32 28.16, 19.59 20.09, 5.62 7.64 M43.72 30.36 C36.89 25.13, 29.77 16.82, 11.54 1.57 M44.59 30.08 C36.74 24.89, 31.32 18.43, 11.57 2.06 M50.58 22.72 C37.54 15.89, 28.8 5.74, 20.41 -2.9 M50.33 23.79 C39.68 15.77, 27.74 6.03, 19.12 -2.07" stroke="#fca311" stroke-width="1" fill="none"></path><path d="M31.66 2.28 C36.16 3.94, 41.96 8.72, 44.42 12.94 C46.87 17.15, 47.4 22.89, 46.39 27.57 C45.38 32.25, 42.23 37.89, 38.33 41.01 C34.43 44.12, 28.14 46.36, 22.99 46.26 C17.85 46.17, 11.29 43.71, 7.47 40.44 C3.66 37.16, 0.79 31.45, 0.09 26.63 C-0.62 21.81, 0.61 15.77, 3.25 11.5 C5.89 7.22, 10.53 2.38, 15.94 0.97 C21.34 -0.45, 32.07 2.16, 35.67 3.03 C39.26 3.89, 37.7 5.96, 37.5 6.17 M20.09 1.37 C24.76 0.01, 29.89 0.97, 34.25 3.45 C38.62 5.94, 44.07 11.65, 46.27 16.28 C48.47 20.9, 49.06 26.75, 47.46 31.22 C45.86 35.7, 40.99 40.31, 36.65 43.11 C32.32 45.9, 26.68 48.47, 21.45 47.99 C16.23 47.51, 8.85 43.98, 5.31 40.23 C1.78 36.47, 0.47 30.46, 0.25 25.46 C0.02 20.45, 1.05 14.14, 3.98 10.21 C6.91 6.29, 15.47 3.47, 17.84 1.92 C20.22 0.37, 17.88 0.86, 18.25 0.92" stroke="#14213d" stroke-width="2" fill="none"></path></g><g stroke-linecap="round" transform="translate(244.25215279683061 400.1330900270739) rotate(0 23.58838810256055 23.58838810256055)"><path d="M3.12 11.99 C3.12 11.99, 3.12 11.99, 3.12 11.99 M3.12 11.99 C3.12 11.99, 3.12 11.99, 3.12 11.99 M1.53 28.59 C5.91 20.88, 14.38 11.95, 19.5 4.12 M-0.32 28.46 C7.91 18.54, 15.63 10.56, 19.46 5.53 M5.35 34.47 C12.74 26.8, 18.95 16.49, 31.61 3.21 M4.94 35.62 C11.23 26.39, 20.29 17.44, 32.61 1.36 M8.41 42.87 C16.12 31.89, 28.18 21.91, 39.31 9.27 M7.84 42.44 C17.46 33.58, 24.66 23.88, 39.35 7.97 M17.05 45.53 C28.27 32.31, 38.1 19.56, 44.33 10.93 M15.92 44.16 C24.51 37.01, 32.53 26.83, 46.44 12.44 M24.97 49.39 C33.37 38.53, 43.48 26.98, 45.45 21.76 M25.02 48.33 C33.57 37.96, 41.16 30.32, 47.27 22.17 M7.61 41.55 C7.61 41.55, 7.61 41.55, 7.61 41.55 M7.61 41.55 C7.61 41.55, 7.61 41.55, 7.61 41.55 M23.49 43.64 C14.69 39.31, 8.62 33.32, 0.48 25.02 M25.12 45.69 C15.91 38.83, 7.28 29.79, 2.13 26.63 M34.12 43.89 C23.86 34.53, 12.55 22.32, 4.53 18.44 M31.5 41.66 C21.84 32.45, 12.56 25.1, 4.09 17.28 M42.07 36.8 C29.04 28.39, 14.57 15.31, 6.79 8.26 M40.02 39.04 C27.86 27.29, 16.72 16.96, 5.85 7.92 M44.2 31.61 C35.44 23.07, 23.37 10.88, 11.92 2.05 M43.93 30.24 C34.86 22.9, 24.29 12.13, 12.41 4.08 M47.75 23.27 C38.83 15.02, 26.1 5.52, 18.18 -0.83 M48.82 25.39 C38.08 14.35, 26.12 4.95, 19.01 -2.63" stroke="#fca311" stroke-width="1" fill="none"></path><path d="M32.2 1.54 C37.04 2.88, 42.32 6.99, 44.67 11.31 C47.02 15.63, 47.4 22.45, 46.28 27.47 C45.15 32.49, 41.83 38.24, 37.93 41.42 C34.02 44.61, 27.89 46.55, 22.84 46.58 C17.79 46.6, 11.47 44.71, 7.63 41.57 C3.79 38.42, 0.53 32.64, -0.21 27.69 C-0.95 22.75, 0.64 16.2, 3.18 11.91 C5.73 7.63, 9.31 3.22, 15.07 1.98 C20.82 0.75, 33.01 3.08, 37.7 4.49 C42.38 5.9, 43.52 10.17, 43.16 10.45 M18.66 0.18 C23.14 -1.38, 29.81 0.56, 34.45 3.09 C39.08 5.62, 44.46 10.78, 46.47 15.38 C48.48 19.98, 48.18 25.85, 46.49 30.68 C44.79 35.52, 40.33 41.77, 36.3 44.39 C32.27 47.01, 27.07 47.1, 22.3 46.42 C17.53 45.73, 11.17 43.99, 7.67 40.29 C4.16 36.59, 1.59 29.47, 1.27 24.22 C0.94 18.98, 2.72 12.85, 5.71 8.82 C8.7 4.79, 17.19 1.19, 19.21 0.04 C21.24 -1.11, 18.1 1.65, 17.87 1.91" stroke="#14213d" stroke-width="2" fill="none"></path></g><g stroke-linecap="round" transform="translate(345.57335215428975 400.1330900270739) rotate(0 23.58838810256055 23.58838810256055)"><path d="M4.44 10.49 C4.44 10.49, 4.44 10.49, 4.44 10.49 M4.44 10.49 C4.44 10.49, 4.44 10.49, 4.44 10.49 M2.08 24.69 C8.18 19.55, 13.07 14.69, 18.52 6.37 M1.95 26.56 C5.44 21.34, 10.89 15.95, 19.94 4.28 M3.86 34.75 C11.96 25.33, 17.4 18.73, 34.02 1.66 M5.02 33.93 C14.88 23.32, 25.07 11.16, 32.17 2.12 M9.58 40.35 C18.04 33.05, 27.5 21.8, 40.87 6.63 M9.15 42.93 C19.35 31.07, 28.7 19.97, 39.57 8.02 M17.26 45.75 C22.38 37.88, 27.94 29.49, 44.08 11.85 M15.88 44.94 C23.29 38.91, 27.65 32.66, 45.59 13.54 M25.49 49.11 C32.67 41.18, 39.17 28.77, 44.41 25.23 M24.43 49.71 C30.01 41.45, 38.33 33.88, 44.82 24.74 M7.06 40.66 C7.06 40.66, 7.06 40.66, 7.06 40.66 M7.06 40.66 C7.06 40.66, 7.06 40.66, 7.06 40.66 M21.91 42.85 C15.32 36.66, 7.12 27.85, 0.34 26.17 M23.97 44.46 C19.08 39.55, 11.73 35.56, 1.95 25.37 M34.6 43.65 C23.04 32.96, 8.35 22.83, 4.64 16.91 M32.37 40.98 C21.18 31.94, 11.69 23.3, 3.49 16.66 M38.43 38.27 C30.43 27.22, 17.58 20.48, 6.11 9.02 M40.67 36.76 C28.94 28.56, 18.89 19.63, 5.77 8.59 M45.09 32.84 C38.13 24.48, 27.16 15.54, 11.39 3.92 M43.72 31.6 C37.27 23.98, 27.17 15.95, 13.42 4.25 M48.69 26.23 C43.84 19.41, 38.06 12.98, 20.65 0.16 M50.81 25.59 C37.36 14.7, 26.06 4.71, 18.85 -1.88" stroke="#fca311" stroke-width="1" fill="none"></path><path d="M17.32 1.63 C21.87 -0.18, 28.33 -0.29, 32.9 1.5 C37.47 3.29, 42.52 7.87, 44.76 12.36 C47 16.85, 47.66 23.55, 46.33 28.45 C45 33.36, 40.91 38.78, 36.8 41.79 C32.69 44.8, 26.65 46.71, 21.68 46.52 C16.72 46.32, 10.6 44.09, 7 40.61 C3.41 37.14, 0.51 30.73, 0.1 25.69 C-0.3 20.64, 0.69 14.47, 4.57 10.33 C8.46 6.2, 19.09 2.52, 23.39 0.89 C27.69 -0.74, 30.41 0.4, 30.38 0.56 M32.29 2.51 C36.75 4.19, 42.75 9.85, 45.37 14.29 C48 18.73, 49.21 24.53, 48.05 29.13 C46.9 33.73, 42.52 38.7, 38.45 41.88 C34.38 45.06, 28.89 48.23, 23.62 48.21 C18.35 48.19, 10.7 45.21, 6.83 41.78 C2.96 38.35, 1.09 32.59, 0.41 27.63 C-0.28 22.66, 0.15 16.18, 2.71 11.98 C5.26 7.79, 10.83 4.14, 15.74 2.46 C20.64 0.77, 29.21 1.98, 32.16 1.86 C35.1 1.75, 33.66 1.24, 33.38 1.79" stroke="#14213d" stroke-width="2" fill="none"></path></g><g stroke-linecap="round" transform="translate(446.89455151175116 400.1330900270739) rotate(0 23.588388102560543 23.58838810256055)"><path d="M4.62 9.31 C4.62 9.31, 4.62 9.31, 4.62 9.31 M4.62 9.31 C4.62 9.31, 4.62 9.31, 4.62 9.31 M-0.8 27.6 C6.45 19.79, 14.03 9.17, 23.1 1.45 M1.07 25.49 C9.16 17.03, 17.08 7.27, 21.01 1.7 M4.4 34.98 C8.54 26.93, 15.52 20.65, 30.01 5 M3.59 34.71 C14.83 22.86, 24.55 9.28, 30.47 3.94 M6.57 41.8 C17.5 33.07, 24.48 25.33, 37.74 7.51 M9.15 42.19 C16.61 32.44, 24.81 23.99, 39.13 6.14 M16.33 44.56 C21.89 36.6, 26.94 29.87, 43.09 11.09 M15.52 45.97 C23.92 35.92, 32.06 28.6, 44.78 13.77 M23.3 49.38 C32.49 38.67, 37.21 30.07, 50.56 19.26 M23.9 48.17 C31.16 40.74, 39.14 30.41, 50.08 18.54 M6.55 39.71 C6.55 39.71, 6.55 39.71, 6.55 39.71 M6.55 39.71 C6.55 39.71, 6.55 39.71, 6.55 39.71 M21.51 44.13 C16.16 38.52, 8.05 30.44, 1.87 22.77 M23.12 44.42 C17.41 38.16, 13.02 35.42, 1.08 24.72 M34.84 43.11 C26.3 33.77, 18.77 30.37, 4.26 17.04 M32.18 40.48 C24.96 34.64, 17.63 27.85, 4 15.91 M41.05 37.99 C29.46 27.31, 22.62 20.98, 7.35 7.79 M39.54 36.39 C29.02 26.59, 17.32 16.96, 6.92 7.46 M46.8 32.31 C38.22 23.2, 28.98 16, 13.74 2.35 M45.56 31.5 C37.1 22.13, 27.92 16.23, 14.07 2.23 M51.48 25.13 C40.07 16.45, 28.7 7.09, 22.22 0.8 M50.84 24.05 C38.76 14.78, 27.5 4.08, 20.17 -0.47" stroke="#fca311" stroke-width="1" fill="none"></path><path d="M19.28 0.2 C23.69 -1.16, 29.77 0.26, 33.97 2.64 C38.16 5.02, 42.59 9.9, 44.46 14.49 C46.32 19.07, 46.68 25.33, 45.16 30.14 C43.63 34.95, 39.51 40.54, 35.29 43.32 C31.07 46.1, 24.69 47.46, 19.85 46.82 C15.01 46.17, 9.61 43.08, 6.26 39.46 C2.9 35.83, -0.06 30.14, -0.28 25.06 C-0.51 19.98, 1.24 13.05, 4.9 8.98 C8.57 4.91, 18.8 2.13, 21.71 0.64 C24.61 -0.84, 22.53 -0.37, 22.34 0.07 M33.74 2.76 C38.34 4.77, 43.98 10.15, 46.14 14.68 C48.3 19.21, 48.22 25.06, 46.69 29.93 C45.15 34.81, 40.87 41.18, 36.94 43.94 C33 46.7, 27.86 47, 23.07 46.48 C18.28 45.96, 11.84 44.42, 8.22 40.84 C4.6 37.25, 1.83 30.23, 1.34 25 C0.85 19.77, 2.42 13.58, 5.27 9.45 C8.13 5.33, 13.83 1.36, 18.46 0.25 C23.1 -0.87, 30.78 2.61, 33.1 2.74 C35.42 2.87, 32.38 0.98, 32.4 1.04" stroke="#14213d" stroke-width="2" fill="none"></path></g><g stroke-linecap="round" transform="translate(548.2157508692096 400.1330900270739) rotate(0 23.588388102560543 23.58838810256055)"><path d="M3.34 12.18 C3.34 12.18, 3.34 12.18, 3.34 12.18 M3.34 12.18 C3.34 12.18, 3.34 12.18, 3.34 12.18 M2.57 26.61 C9.11 19.9, 12.85 13.36, 18.18 7.84 M0.45 27.66 C6.02 21.93, 10.29 15.59, 18.43 5.54 M5.75 32.87 C15.39 21.56, 26.79 10.53, 34.17 4.26 M5.47 35.18 C16.64 21.96, 26.09 9.6, 33.11 1.91 M9.12 43.53 C17.96 33.09, 27.8 22.19, 39.73 6.78 M9.52 42.36 C15.08 35.23, 21.95 28.3, 38.36 6.79 M16.16 45.22 C24.51 33.42, 34.12 23.54, 44 11.48 M17.56 45.58 C22.58 38.95, 30.29 31.94, 46.68 11.94 M25.24 50.14 C30.19 39.28, 37.25 33.65, 47.62 22.43 M24.03 48.79 C32.66 40.57, 38.39 32.26, 46.9 21.82 M8.55 41.99 C8.55 41.99, 8.55 41.99, 8.55 41.99 M8.55 41.99 C8.55 41.99, 8.55 41.99, 8.55 41.99 M24.98 45.15 C19.83 38.67, 11.84 35.89, 0.65 24.1 M25.26 44.87 C14.51 37.98, 7.42 30.23, 2.6 24.95 M34.32 42.68 C19.82 33.2, 11.79 23.65, 5.16 16.18 M31.69 41.47 C26.99 36.72, 21.19 31.81, 4.03 16.5 M41.54 36.76 C26.9 28.36, 16.09 17.62, 6.9 9.61 M39.94 38.29 C32.04 31.07, 24.65 24.88, 6.57 8.18 M46.3 31.81 C34.51 22.51, 24.77 15.95, 12.19 2.71 M45.48 31.41 C36.12 24.01, 29.66 18.4, 12.06 3.98 M49.64 24.55 C43.19 17.59, 35.72 13.36, 20.72 -0.18 M48.56 24.31 C40.09 17.2, 30.69 8.86, 19.44 -2.21" stroke="#fca311" stroke-width="1" fill="none"></path><path d="M31.26 0.84 C35.84 1.9, 41.36 6.49, 43.93 10.8 C46.51 15.12, 47.65 21.74, 46.7 26.72 C45.74 31.71, 42.07 37.4, 38.19 40.71 C34.32 44.02, 28.43 46.4, 23.45 46.58 C18.47 46.76, 12.17 44.99, 8.32 41.79 C4.47 38.6, 1.13 32.43, 0.35 27.43 C-0.43 22.44, 1.15 16.01, 3.64 11.83 C6.13 7.65, 10.25 4.09, 15.27 2.33 C20.3 0.58, 30.62 1.23, 33.79 1.31 C36.97 1.4, 34.43 2.21, 34.32 2.84 M31.19 2.39 C36.21 3.43, 42.08 6.99, 44.83 10.89 C47.59 14.8, 48.34 20.68, 47.71 25.84 C47.07 31.01, 44.93 38.16, 41.02 41.87 C37.11 45.58, 29.46 47.82, 24.23 48.11 C19.01 48.41, 13.79 46.64, 9.67 43.66 C5.55 40.68, 0.85 35.1, -0.5 30.22 C-1.85 25.33, -0.8 19.09, 1.55 14.36 C3.91 9.64, 8.7 4.18, 13.64 1.87 C18.57 -0.44, 28.62 0.37, 31.16 0.48 C33.71 0.59, 29.31 2.27, 28.89 2.54" stroke="#14213d" stroke-width="2" fill="none"></path></g><g stroke-linecap="round" transform="translate(649.5369502266699 400.1330900270739) rotate(0 23.588388102560543 23.58838810256055)"><path d="M11.2 4.44 C11.2 4.44, 11.2 4.44, 11.2 4.44 M11.2 4.44 C11.2 4.44, 11.2 4.44, 11.2 4.44 M5.47 23.92 C13.22 13.13, 21.12 6.47, 26.85 0.05 M6.51 22.85 C13.45 14.21, 19.8 5.81, 24.55 1.29 M3.03 36.09 C10.85 28.69, 18.96 20.27, 35.08 5.42 M5.34 36.88 C14.16 24.42, 23.8 14.4, 32.73 3.44 M11.56 42.67 C21.22 32.16, 30.38 19, 39.7 5.49 M10.39 42.05 C20.56 30.83, 30.97 17.72, 39.71 7.49 M16.3 45.86 C23.84 36.26, 33.3 25.05, 43.32 13.92 M16.66 46.4 C22.96 41.1, 28.87 34.67, 43.78 15.72 M28.21 46.51 C33.48 37.21, 43.99 29.46, 48.47 22.85 M26.86 48.55 C34.26 38.84, 41.6 30.95, 47.86 23.13 M13.85 45.04 C13.85 45.04, 13.85 45.04, 13.85 45.04 M13.85 45.04 C13.85 45.04, 13.85 45.04, 13.85 45.04 M27.41 47.53 C22.12 41.84, 20.2 37.62, 5.67 30.38 M27.13 45.35 C21.19 41.45, 14.39 35.46, 6.52 29.34 M34.35 39.29 C21.91 32.09, 9.94 21.44, 2.59 12.7 M33.14 41.02 C25.68 33.68, 17.67 26.32, 2.92 15.27 M38.6 34.35 C34.09 30.24, 27.43 24.41, 9.28 7.17 M40.14 35.24 C29.13 25.7, 18.62 16.09, 7.85 8.43 M47.76 30.43 C34.88 20.6, 25.32 11.93, 12.25 0.81 M47.36 30.46 C39.36 26.03, 33.54 18.58, 13.53 1.26 M47.16 21.91 C40.2 16.57, 36.31 12.23, 23.77 -1.15 M46.93 20.62 C37.26 11.3, 26.74 4.21, 21.75 -0.49" stroke="#fca311" stroke-width="1" fill="none"></path><path d="M25.03 0.03 C29.56 0.17, 35.76 3.27, 39.29 6.75 C42.81 10.22, 45.72 15.86, 46.17 20.89 C46.63 25.91, 44.86 32.67, 42.02 36.89 C39.18 41.11, 33.85 44.86, 29.14 46.21 C24.43 47.56, 18.3 46.98, 13.76 44.96 C9.23 42.95, 4.09 38.71, 1.93 34.1 C-0.24 29.5, -0.71 22.22, 0.78 17.33 C2.28 12.44, 6.23 7.6, 10.91 4.77 C15.59 1.95, 25.2 0.61, 28.85 0.38 C32.5 0.16, 32.63 2.87, 32.8 3.41 M20.68 1.88 C25.28 0.7, 31.34 1.3, 35.42 3.77 C39.49 6.23, 43.21 12.14, 45.12 16.65 C47.03 21.16, 48.32 26.25, 46.88 30.84 C45.45 35.42, 40.85 41.68, 36.52 44.16 C32.18 46.64, 25.81 46.78, 20.88 45.73 C15.95 44.69, 10.15 41.67, 6.91 37.9 C3.67 34.13, 1.69 27.86, 1.44 23.09 C1.18 18.32, 2.48 13.32, 5.37 9.3 C8.26 5.28, 16.26 0.57, 18.77 -1.01 C21.29 -2.6, 20.5 -0.61, 20.47 -0.23" stroke="#14213d" stroke-width="2" fill="none"></path></g><g stroke-linecap="round" transform="translate(142.9309534393691 481.9666518290338) rotate(0 23.588388102560543 23.58838810256055)"><path d="M3.31 12.16 C3.31 12.16, 3.31 12.16, 3.31 12.16 M3.31 12.16 C3.31 12.16, 3.31 12.16, 3.31 12.16 M2.23 27.72 C3.15 24.26, 8.24 19.07, 19.93 5.88 M1.16 27.68 C6.95 19.61, 12.96 11.8, 21.16 4.15 M4.92 33.43 C14.77 24.28, 23.63 16.45, 35.57 2.14 M5.7 34.43 C10.78 26.76, 18.33 18.52, 33.58 1.92 M9.56 42.61 C17.3 33.9, 22.4 26.45, 37.28 8.26 M8.94 42.64 C21.01 29.5, 31.21 14.72, 39.28 7.76 M15.51 43.92 C25.62 33.62, 34.11 22.97, 43.47 10.97 M16.05 46.03 C25.47 36.74, 33.8 26.41, 45.27 13.45 M22.79 47.98 C29.94 41.99, 38.65 32.44, 47.1 23.89 M24.83 49.81 C32.3 39.67, 41.57 28.07, 47.37 23.88 M8.04 41.05 C8.04 41.05, 8.04 41.05, 8.04 41.05 M8.04 41.05 C8.04 41.05, 8.04 41.05, 8.04 41.05 M25.93 43.79 C18.94 41.92, 13.55 34.86, 3.85 25.85 M23.75 45.44 C18.61 39.48, 11.74 32.48, 2.81 26.14 M32.09 42.86 C22.85 32.6, 10.64 20.76, 1.56 15.3 M33.82 42.41 C27.28 36.57, 20.2 29.76, 4.12 14.99 M39.39 38.82 C29.45 28.65, 17.99 18.55, 5.04 8.87 M40.28 37.88 C33.62 32.06, 26.29 24.55, 6.31 8.06 M43.94 29.84 C30.27 20.2, 18.27 7.82, 11.38 0.6 M43.96 30.33 C33.24 21.36, 20.03 10.75, 11.84 1.86 M50.54 23.4 C39.19 15.9, 28.97 6.59, 18.94 -0.45 M49.25 24.23 C37.53 13.77, 27.76 4.4, 19.6 -2.77" stroke="#fca311" stroke-width="1" fill="none"></path><path d="M32.02 0.63 C36.64 2.02, 41.75 6.84, 44.1 11.27 C46.46 15.7, 47.12 22.19, 46.14 27.2 C45.16 32.21, 42.07 38, 38.21 41.34 C34.36 44.69, 28.02 47.32, 22.99 47.28 C17.97 47.23, 11.77 44.41, 8.07 41.07 C4.37 37.73, 1.6 32.03, 0.79 27.24 C-0.02 22.44, 0.58 16.76, 3.19 12.3 C5.79 7.85, 10.97 2.01, 16.42 0.49 C21.87 -1.03, 31.87 1.99, 35.87 3.21 C39.88 4.42, 40.5 7.44, 40.45 7.79 M29.88 0.69 C34.63 1.05, 39.71 4.3, 42.81 8.42 C45.91 12.53, 48.85 20.07, 48.47 25.37 C48.09 30.68, 44.09 36.47, 40.54 40.27 C37 44.06, 32.29 47.36, 27.21 48.13 C22.13 48.91, 14.56 47.54, 10.06 44.92 C5.55 42.3, 1.7 37.43, 0.19 32.41 C-1.32 27.4, -1.17 19.85, 0.99 14.82 C3.15 9.8, 8.82 4.48, 13.15 2.27 C17.48 0.07, 24.64 1.98, 26.99 1.57 C29.33 1.16, 27.29 -0.57, 27.21 -0.21" stroke="#14213d" stroke-width="2" fill="none"></path></g><g stroke-linecap="round" transform="translate(244.25215279683061 481.9666518290338) rotate(0 23.58838810256055 23.58838810256055)"><path d="M4.7 8.06 C4.7 8.06, 4.7 8.06, 4.7 8.06 M4.7 8.06 C4.7 8.06, 4.7 8.06, 4.7 8.06 M1.4 22.83 C10.52 14.72, 17.9 6.43, 21.89 2.51 M1.36 24.25 C5.79 17.88, 10.49 13.43, 20.15 2.08 M3.01 34 C12.86 23.88, 24.02 14.6, 30.52 2.19 M4.01 32.15 C13.29 22.2, 22 11.57, 30.3 2.6 M8.74 42.32 C16.68 30.23, 25.91 17.16, 39.29 7.39 M8.78 41.02 C19.65 27.35, 28.9 16.04, 38.79 6.03 M13.77 43.99 C21.6 34.87, 29.08 26.65, 41.48 12.19 M15.87 45.5 C25.95 34.4, 34.99 22.1, 43.96 12.6 M20.79 48.02 C31.19 40.25, 38.12 30.76, 49.25 20.26 M22.61 48.43 C27.9 42.57, 31.77 37.44, 49.24 17.84 M5.18 38.25 C5.18 38.25, 5.18 38.25, 5.18 38.25 M5.18 38.25 C5.18 38.25, 5.18 38.25, 5.18 38.25 M21.44 42.06 C16.65 35.49, 6.66 32.14, 1.29 23.68 M23.1 43.67 C14.61 35.98, 4.97 28.51, 1.59 24.65 M36.82 45.31 C23.93 33.73, 9.74 19.52, 2.3 13.58 M36.37 44.16 C29.81 38.06, 22.11 32.69, 1.98 15.33 M41.34 37.1 C30.16 26.83, 18.54 15.45, 6.85 5.27 M40.41 36.76 C33.94 30.37, 25.77 24.45, 6.05 7.96 M44.96 29.59 C33.78 19.45, 20.11 8.34, 11.48 4.26 M45.45 31.62 C34.06 19.14, 21.3 8.57, 12.74 3.61 M45.18 21.46 C38.87 15.19, 30.81 5.89, 21.91 -0.41 M46.01 19.66 C38.96 15.56, 33.02 10.04, 19.6 -2.53" stroke="#fca311" stroke-width="1" fill="none"></path><path d="M18.62 0.21 C23.25 -0.99, 30.17 0.07, 34.54 2.6 C38.92 5.13, 43.1 10.57, 44.86 15.4 C46.63 20.23, 46.7 26.81, 45.13 31.58 C43.56 36.35, 39.75 41.41, 35.42 44.03 C31.08 46.66, 24.1 48.23, 19.11 47.31 C14.12 46.38, 8.5 42.38, 5.46 38.49 C2.42 34.6, 1 29.08, 0.89 23.99 C0.78 18.9, 0.85 11.82, 4.79 7.96 C8.72 4.1, 20.14 1.84, 24.53 0.85 C28.92 -0.14, 31.11 1.72, 31.1 2.05 M29.62 1.43 C34.02 2.3, 39.09 7.25, 42.18 11.14 C45.28 15.02, 48.3 19.86, 48.18 24.72 C48.05 29.59, 44.94 36.77, 41.44 40.31 C37.93 43.84, 32.1 45.65, 27.12 45.94 C22.14 46.24, 15.7 44.85, 11.56 42.08 C7.43 39.3, 3.9 33.86, 2.31 29.28 C0.73 24.7, 0.31 19.33, 2.07 14.6 C3.82 9.88, 8.09 3.42, 12.83 0.92 C17.57 -1.57, 27.95 -0.16, 30.5 -0.36 C33.05 -0.56, 28.27 -1.07, 28.15 -0.27" stroke="#14213d" stroke-width="2" fill="none"></path></g><g stroke-linecap="round" transform="translate(345.57335215428975 481.9666518290338) rotate(0 23.58838810256055 23.58838810256055)"><path d="M3.7 9.84 C3.7 9.84, 3.7 9.84, 3.7 9.84 M3.7 9.84 C3.7 9.84, 3.7 9.84, 3.7 9.84 M-1.25 27.61 C4.65 21.25, 10.4 14.74, 20.76 2.22 M0.17 25.52 C6.42 17.26, 14.59 9.65, 20.32 3.43 M5.07 33.46 C10.82 29.38, 17.4 21.35, 30.9 2.59 M3.21 33.93 C13.36 22.48, 22.89 12.13, 31.31 1.54 M9.29 41.45 C19.04 28.48, 27.81 17.09, 39.91 7.78 M7.99 42.84 C16.14 30.31, 26.64 20.32, 38.56 6.3 M14.47 44.41 C22.39 34.89, 31.16 23.74, 43.99 13.1 M15.98 46.1 C26.12 33.79, 35 23.51, 44.4 12.09 M22.02 49.48 C34.58 35.91, 45.38 24.39, 52.09 15.27 M22.42 49 C32.39 36.18, 43.11 26.5, 49.67 16.53 M7.39 41.8 C7.39 41.8, 7.39 41.8, 7.39 41.8 M7.39 41.8 C7.39 41.8, 7.39 41.8, 7.39 41.8 M23.32 46.99 C15.73 38.01, 11.65 33.93, 0.56 27.07 M24.92 46.19 C18.63 39.67, 12.19 35.6, 1.54 26.11 M34.41 43.63 C23.65 32.99, 9.8 23.72, 0.6 14.08 M33.26 43.38 C24.54 35.28, 16.67 27.35, 2.36 16.26 M40.41 39.68 C32.86 32.88, 23.63 26.24, 3.28 6.02 M40.07 39.25 C29.85 28.93, 19.53 20.59, 5.97 8.77 M43.42 32.61 C33.02 21.36, 21.36 10.32, 13.1 4.9 M45.46 32.95 C32.95 22.59, 21.78 11.47, 12.45 3.47 M50.42 26.88 C41.4 18.65, 29.65 10.22, 19.92 -2.65 M48.62 24.84 C40.61 17.05, 31.11 8.6, 17.8 -2.2" stroke="#fca311" stroke-width="1" fill="none"></path><path d="M16.85 0.04 C21.28 -1.59, 27.86 -1.01, 32.48 1.07 C37.09 3.16, 42.23 7.85, 44.55 12.55 C46.86 17.25, 47.52 24.33, 46.35 29.29 C45.18 34.25, 41.49 39.33, 37.52 42.3 C33.56 45.27, 27.63 47.25, 22.56 47.12 C17.49 46.99, 10.74 45.15, 7.09 41.53 C3.43 37.91, 1.21 30.64, 0.62 25.38 C0.04 20.13, 0.21 14.04, 3.56 10 C6.92 5.95, 17.42 2.76, 20.75 1.12 C24.09 -0.53, 23.58 -0.22, 23.58 0.11 M34.74 1.87 C39.15 3.88, 44.68 10.29, 46.49 15.17 C48.3 20.06, 47.18 26.31, 45.59 31.18 C43.99 36.05, 41.2 41.56, 36.91 44.41 C32.63 47.27, 25.11 48.82, 19.88 48.31 C14.65 47.79, 8.96 45.19, 5.54 41.32 C2.12 37.45, -0.6 30.46, -0.64 25.09 C-0.67 19.71, 2.43 12.98, 5.31 9.09 C8.18 5.2, 11.99 3.05, 16.59 1.75 C21.2 0.44, 30.32 0.94, 32.95 1.28 C35.58 1.62, 32.12 3.26, 32.37 3.8" stroke="#14213d" stroke-width="2" fill="none"></path></g><g stroke-linecap="round" transform="translate(446.89455151175116 481.9666518290338) rotate(0 23.588388102560543 23.58838810256055)"><path d="M7.57 6.58 C7.57 6.58, 7.57 6.58, 7.57 6.58 M7.57 6.58 C7.57 6.58, 7.57 6.58, 7.57 6.58 M5.72 22.12 C12.74 14.37, 19.6 7.09, 22.66 1.35 M3.63 22.37 C9.66 16.34, 16.36 8.23, 23.87 -0.43 M6.07 33.22 C16.19 25.21, 22.36 13.48, 32.58 4.36 M6.54 32.16 C15.72 21.26, 26.01 9.65, 31.53 4.13 M8.55 41.76 C18.41 27.6, 29.86 19.72, 40.53 6.68 M9.94 40.39 C17.37 30.82, 27.35 20.69, 39.05 6.47 M15.22 43.83 C21.88 36.92, 26.9 31.17, 44.67 14.65 M16.9 46.51 C21.37 39.01, 27.89 32.46, 43.66 14.95 M23.34 51.25 C27.89 44.85, 34.48 39.44, 46.32 21.86 M22.86 50.53 C30.24 41.33, 40.79 29.36, 47.57 20.33 M4.23 36.29 C4.23 36.29, 4.23 36.29, 4.23 36.29 M4.23 36.29 C4.23 36.29, 4.23 36.29, 4.23 36.29 M22.19 39.03 C12.08 35.43, 6.66 27.07, 2.22 21.85 M21.39 40.98 C15.83 37.35, 12.95 33.69, 1.27 22.86 M35.89 43.14 C27.49 34.28, 20.68 28.74, 2.29 14.51 M35.64 42.01 C24.87 34.13, 14.45 25.21, 4.48 14.25 M42.01 36.52 C34.76 29.02, 27.92 22.55, 5.98 7.64 M41.58 36.19 C33.46 30.14, 27.21 25.06, 8.73 8.11 M47.64 30.42 C37.76 22.23, 27.83 16.97, 14.08 1.88 M47.97 30.3 C40.58 24.47, 32.2 19.47, 12.65 1.13 M50.08 23.63 C40.98 13.5, 31.54 6.91, 21.03 -1.03 M48.04 22.36 C40.71 15.44, 32.85 7.7, 21.48 -0.86" stroke="#fca311" stroke-width="1" fill="none"></path><path d="M22 -0.59 C26.8 -1.04, 33.29 1.69, 37.31 4.9 C41.32 8.11, 44.9 13.7, 46.1 18.68 C47.29 23.66, 46.8 30.21, 44.45 34.77 C42.1 39.33, 36.7 44.18, 31.99 46.02 C27.27 47.85, 20.75 47.37, 16.15 45.78 C11.55 44.18, 7.18 40.78, 4.4 36.44 C1.62 32.11, -1.04 24.7, -0.53 19.75 C-0.03 14.81, 3.09 9.96, 7.42 6.77 C11.75 3.58, 22.37 1.57, 25.45 0.61 C28.53 -0.34, 25.97 0.59, 25.9 1.04 M34.25 4.15 C38.76 5.95, 44.48 9.75, 46.59 14.28 C48.71 18.8, 48.51 26.57, 46.94 31.29 C45.36 36, 41.39 40.13, 37.14 42.57 C32.88 45.01, 26.36 46.6, 21.4 45.93 C16.44 45.26, 10.94 42.05, 7.38 38.55 C3.81 35.06, 0.45 30.13, -0.02 24.96 C-0.48 19.79, 1.25 11.78, 4.58 7.52 C7.9 3.26, 15.09 0.41, 19.94 -0.61 C24.78 -1.63, 31.06 0.5, 33.66 1.39 C36.26 2.28, 35.53 4.31, 35.53 4.71" stroke="#14213d" stroke-width="2" fill="none"></path></g><g stroke-linecap="round" transform="translate(548.2157508692096 481.9666518290338) rotate(0 23.588388102560543 23.58838810256055)"><path d="M12.22 1.68 C16.34 -0.73, 23.63 -1.3, 28.63 -0.01 C33.64 1.29, 39.15 5.37, 42.24 9.44 C45.32 13.52, 47.27 19.42, 47.13 24.45 C46.98 29.48, 44.86 35.71, 41.39 39.62 C37.92 43.52, 31.35 47.38, 26.33 47.88 C21.31 48.39, 15.56 45.6, 11.28 42.62 C7 39.65, 2.08 34.61, 0.65 30.05 C-0.79 25.49, 0.15 20.07, 2.65 15.27 C5.16 10.46, 13.12 3.47, 15.68 1.22 C18.24 -1.03, 17.79 1.17, 17.99 1.77 M26.43 1.12 C31.02 1.39, 35.78 4, 39.25 7.52 C42.73 11.03, 46.8 17.14, 47.27 22.22 C47.74 27.29, 45.1 33.72, 42.09 37.96 C39.07 42.2, 33.98 46.47, 29.2 47.67 C24.42 48.87, 17.75 47.52, 13.41 45.16 C9.07 42.79, 5.52 37.84, 3.16 33.49 C0.81 29.14, -1.63 24.08, -0.73 19.06 C0.17 14.05, 4.48 6.42, 8.55 3.41 C12.61 0.39, 20.67 1.47, 23.67 0.98 C26.67 0.5, 26.51 0.21, 26.54 0.49" stroke="#14213d" stroke-width="4" fill="none"></path></g><g stroke-linecap="round" transform="translate(649.5369502266699 481.9666518290338) rotate(0 23.588388102560543 23.58838810256055)"><path d="M21.13 -0.14 C25.95 -0.68, 32.69 1.4, 36.94 4.42 C41.19 7.43, 45.35 12.94, 46.6 17.96 C47.85 22.98, 46.7 30.02, 44.44 34.53 C42.19 39.03, 37.51 42.95, 33.08 44.98 C28.65 47.01, 22.86 48.16, 17.88 46.72 C12.9 45.27, 6.23 40.44, 3.19 36.29 C0.15 32.14, -1.18 26.68, -0.36 21.83 C0.46 16.97, 4.28 10.71, 8.11 7.14 C11.94 3.57, 19.91 1.38, 22.63 0.42 C25.35 -0.54, 24.2 1.05, 24.43 1.39 M30.1 -0.01 C35.09 0.63, 40.44 5.77, 43.48 9.74 C46.52 13.72, 48.58 19, 48.34 23.84 C48.09 28.68, 45.45 35.03, 42.02 38.78 C38.59 42.53, 33 45.46, 27.76 46.33 C22.53 47.21, 15.15 46.92, 10.6 44.02 C6.05 41.13, 1.72 34.09, 0.46 28.95 C-0.81 23.8, 1.11 17.8, 3.01 13.15 C4.9 8.5, 7.35 2.9, 11.84 1.05 C16.33 -0.79, 27.12 2.26, 29.96 2.08 C32.8 1.9, 29.09 -0.27, 28.89 -0.03" stroke="#14213d" stroke-width="4" fill="none"></path></g><g stroke-linecap="round" transform="translate(142.9309534393691 563.8002136309938) rotate(0 23.588388102560543 23.58838810256055)"><path d="M13.04 1.8 C17.29 -0.41, 24.19 -0.47, 29.13 0.8 C34.06 2.07, 39.56 5.34, 42.64 9.41 C45.72 13.47, 48 19.97, 47.62 25.21 C47.25 30.45, 43.88 37.34, 40.37 40.85 C36.86 44.36, 31.61 45.96, 26.55 46.26 C21.49 46.56, 14.15 45.21, 10.01 42.66 C5.87 40.1, 2.96 35.78, 1.73 30.94 C0.49 26.11, 0.34 18.45, 2.62 13.65 C4.9 8.84, 12.88 3.98, 15.43 2.11 C17.98 0.24, 17.82 2.06, 17.92 2.42 M18.51 1.39 C22.99 0.22, 30.99 1.68, 35.32 4.19 C39.66 6.71, 42.92 11.71, 44.52 16.47 C46.11 21.24, 46.46 28.21, 44.87 32.77 C43.29 37.33, 39.05 41.56, 34.99 43.82 C30.94 46.08, 25.67 46.96, 20.56 46.34 C15.45 45.72, 7.94 44.01, 4.33 40.09 C0.73 36.16, -1.01 27.85, -1.09 22.77 C-1.17 17.69, 0.23 13.35, 3.84 9.62 C7.46 5.89, 18.22 1.8, 20.6 0.39 C22.98 -1.02, 18.19 0.74, 18.12 1.15" stroke="#14213d" stroke-width="4" fill="none"></path></g><g stroke-linecap="round" transform="translate(244.25215279683061 563.8002136309938) rotate(0 23.58838810256055 23.58838810256055)"><path d="M16.03 0.9 C20.7 -0.77, 28.13 -0.24, 32.84 1.82 C37.55 3.89, 41.98 8.85, 44.27 13.32 C46.56 17.79, 47.5 23.7, 46.58 28.62 C45.66 33.55, 42.89 39.84, 38.73 42.86 C34.58 45.88, 26.92 46.94, 21.64 46.74 C16.36 46.55, 10.49 44.97, 7.06 41.7 C3.62 38.43, 1.63 32.2, 1.02 27.12 C0.41 22.04, 0.55 15.45, 3.4 11.21 C6.25 6.97, 15.4 3.37, 18.12 1.69 C20.83 0, 19.62 0.96, 19.71 1.12 M34.51 2.44 C39.01 4.11, 43.97 8.11, 46.16 12.48 C48.35 16.85, 48.92 23.72, 47.65 28.68 C46.39 33.63, 42.93 39.02, 38.58 42.21 C34.22 45.4, 26.9 48.37, 21.53 47.82 C16.17 47.26, 9.79 42.75, 6.39 38.88 C3 35.01, 1.72 29.62, 1.17 24.58 C0.62 19.54, 0.22 12.34, 3.09 8.62 C5.96 4.9, 13.32 3.51, 18.39 2.26 C23.46 1, 30.97 0.91, 33.5 1.08 C36.04 1.24, 33.74 2.67, 33.6 3.25" stroke="#14213d" stroke-width="4" fill="none"></path></g><g stroke-linecap="round" transform="translate(345.57335215428975 563.8002136309938) rotate(0 23.58838810256055 23.58838810256055)"><path d="M12.98 2.55 C17.18 0.2, 24.12 -0.81, 29.14 0.37 C34.16 1.54, 40.13 5.34, 43.1 9.61 C46.06 13.88, 47.26 21.08, 46.93 25.99 C46.6 30.91, 44.66 35.67, 41.13 39.09 C37.61 42.52, 30.75 45.71, 25.78 46.54 C20.81 47.36, 15.36 46.83, 11.32 44.05 C7.28 41.27, 3.03 34.76, 1.54 29.85 C0.05 24.95, 0.1 19.12, 2.39 14.62 C4.69 10.12, 13.03 4.93, 15.28 2.87 C17.54 0.82, 15.99 1.95, 15.92 2.29 M32.03 2.68 C36.56 4.12, 40.68 8.77, 42.97 13.2 C45.27 17.63, 46.63 24.51, 45.8 29.27 C44.96 34.03, 41.56 38.83, 37.95 41.73 C34.34 44.62, 29.34 46.49, 24.17 46.64 C18.99 46.79, 11.06 46.01, 6.9 42.64 C2.75 39.26, 0.1 31.38, -0.76 26.37 C-1.61 21.37, -1.2 16.77, 1.78 12.6 C4.76 8.42, 12.29 3.15, 17.11 1.34 C21.93 -0.47, 28.15 1.62, 30.68 1.74 C33.2 1.86, 32.17 1.53, 32.26 2.05" stroke="#14213d" stroke-width="4" fill="none"></path></g><g stroke-linecap="round" transform="translate(446.89455151175116 563.8002136309938) rotate(0 23.588388102560543 23.58838810256055)"><path d="M21.41 0.09 C26.21 -0.57, 32.48 1.81, 36.63 4.64 C40.78 7.47, 44.75 12.2, 46.31 17.06 C47.86 21.93, 48.18 29.27, 45.95 33.83 C43.73 38.4, 37.77 42.23, 32.98 44.46 C28.19 46.7, 21.83 48.33, 17.21 47.24 C12.58 46.14, 8.15 42.07, 5.23 37.89 C2.31 33.72, -0.63 27.15, -0.29 22.17 C0.04 17.19, 3.32 11.66, 7.25 7.99 C11.17 4.32, 20.52 1.48, 23.26 0.17 C26 -1.15, 23.7 -0.39, 23.7 0.1 M19.78 -0.58 C24.46 -2.1, 31.32 -0.71, 35.84 1.72 C40.35 4.14, 45.16 9, 46.85 13.96 C48.55 18.93, 47.9 26.81, 46.03 31.5 C44.16 36.19, 39.74 39.73, 35.65 42.13 C31.56 44.52, 26.6 46.56, 21.49 45.87 C16.38 45.18, 8.39 41.31, 4.97 38 C1.55 34.68, 0.96 30.96, 0.95 25.97 C0.94 20.97, 1.92 12.17, 4.9 8.03 C7.88 3.9, 16.52 2.3, 18.84 1.16 C21.16 0.03, 18.58 0.91, 18.81 1.21" stroke="#14213d" stroke-width="4" fill="none"></path></g><g stroke-linecap="round" transform="translate(548.2157508692096 563.8002136309938) rotate(0 23.588388102560543 23.58838810256055)"><path d="M16.64 0.74 C21.25 -0.98, 28.65 -0.31, 33.28 1.85 C37.91 4.02, 42.09 9.37, 44.39 13.74 C46.69 18.11, 48.23 23.38, 47.06 28.08 C45.9 32.77, 41.38 38.59, 37.4 41.91 C33.43 45.23, 28.07 48.21, 23.19 47.98 C18.31 47.74, 11.88 43.99, 8.11 40.5 C4.35 37, 1.16 31.78, 0.59 26.99 C0.02 22.21, 1.7 16.09, 4.71 11.76 C7.71 7.43, 16.07 2.72, 18.63 1.02 C21.19 -0.68, 19.87 1.32, 20.05 1.56 M29.98 2.5 C34.42 3.78, 40.01 8.62, 42.72 12.72 C45.43 16.81, 46.69 22.4, 46.23 27.07 C45.77 31.74, 43.84 37.21, 39.93 40.73 C36.02 44.26, 28.13 48.22, 22.78 48.24 C17.42 48.27, 11.76 44.05, 7.8 40.87 C3.84 37.7, -0.41 33.97, -0.99 29.2 C-1.57 24.44, 1.84 16.83, 4.32 12.28 C6.79 7.73, 9.28 3.72, 13.84 1.9 C18.41 0.08, 28.83 1.2, 31.72 1.36 C34.6 1.51, 31.36 2.56, 31.15 2.82" stroke="#14213d" stroke-width="4" fill="none"></path></g><g stroke-linecap="round" transform="translate(649.5369502266699 563.8002136309938) rotate(0 23.588388102560543 23.58838810256055)"><path d="M21.52 0.57 C26.27 -0.12, 33.04 1.29, 37.35 4.23 C41.65 7.18, 46.22 13.38, 47.34 18.25 C48.46 23.11, 46.48 28.81, 44.06 33.42 C41.63 38.02, 37.13 43.65, 32.79 45.89 C28.46 48.14, 22.88 48.32, 18.03 46.88 C13.19 45.45, 6.64 41.41, 3.74 37.29 C0.83 33.17, -0.11 27.24, 0.62 22.16 C1.35 17.08, 4.21 10.59, 8.11 6.83 C12.01 3.08, 21.01 0.55, 24.01 -0.38 C27.01 -1.31, 26.25 0.68, 26.11 1.24 M26.72 -0.92 C31.57 -0.77, 38.18 2.25, 41.56 6.08 C44.95 9.92, 46.89 17.15, 47.04 22.06 C47.2 26.97, 45.17 31.69, 42.49 35.55 C39.81 39.41, 35.93 43.89, 30.96 45.23 C25.98 46.57, 17.26 45.27, 12.64 43.59 C8.02 41.92, 5.21 39.69, 3.23 35.18 C1.24 30.68, -0.43 21.58, 0.72 16.55 C1.88 11.52, 6.02 7.72, 10.16 5.01 C14.31 2.29, 22.85 1.01, 25.58 0.28 C28.31 -0.44, 26.7 0.14, 26.56 0.67" stroke="#14213d" stroke-width="4" fill="none"></path></g><g transform="translate(661.7628680920286 650.9969984919087) rotate(0 30.5 8)"><text x="30.5" y="11" font-family="Virgil, Segoe UI Emoji" font-size="12.252577558981985px" fill="#e5e5e5" text-anchor="middle" style="white-space: pre;" direction="ltr">aadimator</text></g></svg>
