<svg version="1.1" xmlns="http://www.w3.org/2000/svg" viewBox="0 0 1028.5 952.3055555555555" width="1028.5" height="952.3055555555555">
  <!-- svg-source:excalidraw -->
  
  <defs>
    <style>
      @font-face {
        font-family: "Virgil";
        src: url("https://excalidraw.com/Virgil.woff2");
      }
      @font-face {
        font-family: "Cascadia";
        src: url("https://excalidraw.com/Cascadia.woff2");
      }
    </style>
  </defs>
  <rect x="0" y="0" width="1028.5" height="952.3055555555555" fill="#14213d"></rect><g stroke-linecap="round" transform="translate(192.55555555555543 19) rotate(0 280 68)"><path d="M0 0 C0 0, 0 0, 0 0 M0 0 C0 0, 0 0, 0 0 M-1.05 7.05 C0.86 5.18, 2.71 4.13, 4.45 1.16 M-0.44 6.61 C1.4 4.83, 2.8 2.87, 4.93 0.09 M0.41 12.78 C4.61 6.5, 6.02 2.39, 10.21 0.69 M-0.6 12.36 C3.94 7.9, 6.57 3.69, 10.56 -0.29 M1.15 17.12 C1.16 15.96, 6.52 9.38, 15.78 0.63 M0.79 18.24 C3.81 12.89, 8.33 8.15, 14.82 0.91 M-1.2 25.48 C5.9 14.89, 13.56 5.5, 22.65 0.82 M0.91 23.57 C4.97 18.85, 11.05 12.35, 21.12 0.07 M0.57 29.01 C4.74 23.64, 14.62 15.41, 27.72 1.74 M-0.77 30.98 C8.59 20.97, 14.44 13.7, 27.2 0.49 M-1.78 37.45 C7.97 29.94, 16.54 20.51, 32.14 0.82 M-0.16 36.92 C11.64 23.35, 22.71 10.78, 31.48 0.11 M2.02 43.69 C9.67 29.38, 20.87 17.86, 35.81 0.83 M0.36 41.99 C13.69 27.6, 25.92 14.38, 36.83 -0.54 M-1.35 48.24 C10.77 38.82, 17.63 27, 42.53 -2.08 M-0.96 49.13 C15.44 29.92, 31.77 12.95, 42.93 -0.43 M-0.31 55.95 C12.26 42.29, 23.82 28.16, 46.59 1.84 M0.39 54.23 C11.03 43.53, 20.06 32.8, 48 -0.07 M0.22 60.3 C22.32 38.24, 39.7 14.32, 53.94 -0.03 M-0.98 60.19 C11.99 46.84, 23.11 34.78, 53.19 0.38 M-0.69 68.14 C21.4 39.91, 45.73 17.72, 56.78 1.52 M-0.74 67.49 C14.23 51.07, 26.42 34.75, 58.36 1.11 M1.91 72.15 C14.48 54.62, 30.23 37.63, 62.7 1.63 M0.31 72.44 C18.42 51.91, 38.01 30.65, 64.4 0.53 M0.77 79.17 C23.3 51.17, 42.7 28.63, 69.29 1.46 M-0.72 79.37 C14.89 59.93, 32.49 43.22, 69.02 -0.71 M0.89 83.1 C23.71 57.31, 43.66 32.32, 73.3 0.38 M0.88 85.29 C22.36 58.51, 46.99 32.86, 75.09 0.12 M-1.84 93.02 C29.37 57.16, 56.79 25.72, 81.23 0.04 M-0.79 91.86 C30.53 57.09, 60.46 22.12, 78.45 -0.13 M-0.16 98.05 C32.88 62.12, 65.63 25.57, 86.46 0.51 M-0.56 98.03 C26.1 69.05, 50.68 39.19, 84.2 -0.65 M-1.57 103.74 C18.19 79, 39.83 56, 91.88 0.44 M0.87 104.27 C27.41 74.17, 53.19 42.86, 90.55 -0.66 M1.61 108.43 C26.88 81.15, 51.82 49.71, 95.04 1.12 M0.06 110.75 C36.54 67.27, 74.14 25.25, 95.09 0.49 M0.71 116.16 C30.03 85.58, 56.38 52.43, 98.72 -1.32 M0.47 116.01 C38.77 72.54, 76.12 29.25, 100.63 -0.73 M1.29 120.76 C30.32 87.09, 59.82 53.5, 108.11 0.13 M0.27 120.92 C24.55 95.44, 47.51 69.01, 105.5 -0.08 M-0.34 126.72 C39.69 82.9, 78.3 37.93, 109.41 -0.42 M0 127.34 C28.94 96.89, 56.59 64.18, 111.38 0.35 M0.77 133.6 C32.11 97.69, 62.28 60.64, 114.29 -0.97 M-0.35 134.34 C40.62 88.24, 82.3 41.42, 116.94 0.88 M2.07 138.12 C34.53 99.63, 65.7 64.51, 121.81 0.78 M1.76 138.09 C44.88 90.05, 86.88 42.17, 120.92 0.35 M7.37 138.04 C34.56 105.06, 63.44 71, 128.32 -0.17 M8.41 137.6 C33.02 106.08, 62.23 74.27, 127.28 0.41 M13.54 136.85 C57.06 89.33, 97.39 40.31, 131.94 0.72 M13.11 137.15 C49.77 93.82, 87.42 49.86, 132.78 0.12 M19.46 138.8 C59.77 90.69, 96.47 48.01, 139.18 1.65 M18.99 137.21 C47.02 104.42, 75.17 71.62, 136.86 -0.06 M21.42 136.83 C60.53 95.53, 96.37 52.86, 142.04 -1.35 M23.36 138.12 C71.16 83.82, 118.28 29.22, 143.88 -0.38 M30.22 136.67 C75.68 85.06, 123.53 31.34, 148.69 1.66 M27.94 138.04 C60.05 101.46, 91.2 66.73, 149.03 0.21 M33.78 136.97 C74.92 89.02, 118.28 39.76, 152.52 -1.34 M32.77 138.88 C64.66 104.83, 95.61 68.43, 154.56 -0.09 M38.31 137.46 C74.73 96.19, 109.24 55.71, 158.85 -0.17 M38.45 138.25 C72.54 99.9, 106.37 60.62, 159.6 0.08 M42.89 139.01 C72.99 103.56, 100.38 71.02, 165.99 1.62 M43.99 137.4 C85.34 88.03, 129.13 39.26, 164.54 -0.88 M48.6 135.81 C93.08 91.14, 132.5 44.34, 167.87 -1.06 M49.13 137.12 C96.62 83.76, 144.43 29.66, 168.75 0.48 M53.17 139.48 C87.83 99.37, 123.17 62.45, 175.21 1.23 M54.1 137.74 C99.05 85.17, 145.46 34.28, 174.98 0.5 M60.1 139.17 C94.38 96.53, 130.98 58.85, 178.12 0.62 M60.01 137.01 C85.64 107.66, 110.84 79.17, 179.09 0.45 M65.27 137.73 C106.04 94.86, 143.53 49.45, 187.19 0.01 M66.58 138.07 C93.51 106.87, 119.21 76.97, 186.42 0.37 M70.06 135.79 C111.21 94.75, 149.84 50.1, 192.17 1.26 M70.51 137.37 C100.16 104.46, 129.79 70.83, 191.6 1.11 M76 135.93 C118.57 87.72, 161.54 41.33, 195.06 1.26 M75.28 138.63 C120.29 87.36, 165 35.29, 196.83 0.17 M81.88 138.75 C114.54 100.31, 147.73 60.44, 200.77 0.09 M81.47 136.75 C121.36 92.71, 162.66 47.84, 201.72 -0.3 M86.37 139.06 C120.67 96.18, 156.47 58.11, 206.2 1.12 M86.52 137.78 C126.54 91.09, 165.12 47.22, 207.57 0.4 M92.51 138.68 C117.12 106.76, 143.97 76.05, 210.89 -0.84 M92.46 137.56 C114.93 110.36, 139.65 82.12, 211.24 -0.48 M97.58 138.9 C125.15 107.35, 148.03 75.29, 218.13 0.55 M96.96 137.96 C125.28 106.1, 151.85 75.19, 217.41 -1.31 M103.05 136.78 C133.95 98.2, 166.56 62.51, 221.63 -0.67 M102.45 139.02 C138.24 96.83, 173.99 54.98, 222.41 -0.01 M107.01 138.06 C146.38 91.67, 184.37 46.26, 226.58 1.3 M107.73 137.69 C152.12 88.12, 198.23 35.36, 228.52 -0.26 M114.82 137.3 C156.96 87.56, 203.83 33.68, 232.33 0.24 M113.83 137.72 C159.61 83.14, 204.66 30.93, 233.83 0.6 M120.22 137.96 C164.28 86.82, 209.81 33.4, 236.82 -1.31 M118.31 137.62 C154.55 95.28, 193.04 50.77, 237.84 0.11 M123.97 136.57 C163.51 89.52, 208.2 41.4, 242.49 0.39 M123.05 138.59 C162.74 93.89, 199.95 50.2, 244.56 0.96 M130.97 138.82 C160.9 103.25, 194.47 65.45, 250.24 -1.39 M128.61 138.46 C176 82.25, 221.74 29.54, 249.65 1.17 M132.87 139.72 C181.14 85.47, 229.19 29.32, 255.81 1.05 M133.99 137.64 C169.08 99.75, 204.04 61.33, 254.03 0.76 M141.21 135.68 C164.42 109.75, 188.6 81.59, 260.48 1.99 M140.97 137.02 C181.26 87.57, 224.81 38.74, 259.71 -0.32 M146.05 136.69 C169.08 107.15, 194.83 78.76, 264.16 -1.66 M145.91 137.98 C185.55 88.67, 228.69 41.67, 266.09 -0.23 M149.07 138.39 C194.35 87.36, 236.85 35.1, 272.02 1.86 M150.09 138.23 C196 87.45, 241.71 35.59, 269.81 0.71 M154.23 138.25 C191.5 93.76, 229.06 52.33, 275.62 -0.83 M155.49 137.82 C193.05 92.71, 231.73 49.84, 275 -0.11 M160.87 135.63 C196.13 100.03, 229.12 58.77, 279.53 0.02 M161.11 137.07 C189.19 108.74, 213.58 78.65, 281.16 0.44 M166.33 135.97 C197.49 102.89, 223.5 69.57, 286.44 1.27 M166.81 138.47 C199.18 99.2, 233.88 59.99, 285.42 -0.92 M171.11 138.86 C218.72 87.58, 261.11 34.06, 291.84 -0.88 M171.57 136.65 C203.55 101.57, 235.05 65, 290.37 0.14 M177.46 138.22 C199.56 109.59, 224.13 81.03, 297.07 1.17 M177.35 138.32 C208.04 101.97, 240.45 66.26, 296.4 -0.59 M182.5 138.38 C216.12 98.67, 244.97 63.29, 300.01 -1.4 M183.4 138.16 C220.25 94.98, 257.7 52.79, 301.47 0.16 M188.88 138.22 C218.2 102.45, 243.8 70.75, 308.14 -1.76 M188.02 138.84 C231.17 86.91, 276.32 34.79, 307.43 -0.97 M193.9 139.29 C225.98 100.48, 258.91 63.61, 313.25 -1.28 M192.95 136.88 C235.42 89.4, 276.06 41.79, 311.88 -0.02 M200.09 137.95 C226.54 105.2, 254.81 73.95, 316.47 -1.38 M199.12 138.64 C228.12 103.26, 258.47 69.8, 318.39 0.21 M203.74 138.25 C236.79 101.03, 267.32 65.86, 322.98 0.56 M202.33 138.95 C252.41 84.25, 298.25 30.19, 322.42 0.13 M208.75 136.26 C241.4 99.86, 276.11 60.91, 327.06 -0.69 M208.34 137.37 C236.39 106.67, 262.01 74.96, 329.56 -0.72 M212.58 136.5 C243.93 100.45, 275.76 64.3, 334.79 1.98 M214 138.33 C246.09 99.23, 277.32 62.61, 333.36 0.26 M218.7 136.76 C264.56 85.98, 306.4 35.46, 341.12 0.09 M218.82 137.82 C260.71 90.52, 303.4 40.79, 339.63 -1.31 M223.22 136.31 C249.71 106.66, 276.09 74.56, 344.49 1.7 M224.87 137.34 C271.77 82.69, 319.59 28.36, 344.31 -0.88 M231.99 135.92 C262.51 98.45, 295.83 60.98, 351.36 0.32 M231.06 137.84 C275.76 82.98, 322.89 30.06, 349.05 -0.27 M235.28 138.05 C265.21 103.92, 295.67 67.41, 354.04 -0.78 M234.93 137.64 C260.95 108.32, 285.41 80.15, 354.35 0.52 M240.84 138.98 C274.02 104.61, 306.26 65.78, 360.66 -0.1 M240.99 138.38 C264.85 109.29, 288.36 81.45, 360.63 -0.48 M244.58 136.88 C289.52 85.82, 332.75 37.12, 367.61 -1.14 M246.54 138.98 C290.52 86.52, 334.77 35.4, 365.92 -0.6 M251.66 136.01 C300.62 82.9, 348.53 26.09, 370.14 -0.18 M251.95 137.51 C297.03 85.72, 342.38 33.17, 371.62 -0.47 M255.13 138.78 C299.59 91.71, 342.29 41.55, 375.54 1.76 M256.5 137.21 C293.93 93.54, 334.22 48.78, 376.88 -0.22 M261.05 137.91 C288.09 109.41, 313.14 82.34, 381.72 -0.89 M262.68 138.36 C307.74 86.45, 352.92 33.84, 382.35 0.58 M267.12 136.54 C305.92 91.8, 343.67 48.41, 386.37 1.86 M265.99 138.27 C309.54 90.01, 349.42 44.6, 386.52 0.76 M271.81 136.36 C304.01 100.87, 334.7 66.65, 393.55 -0.36 M273.31 137.18 C300.81 106.52, 328.14 73.99, 391.54 -0.42 M276.95 137.75 C320.55 92.04, 360.74 43.3, 398.84 -2.09 M276.62 138.2 C311.98 97.92, 348.38 57.43, 397.5 0.56 M284.9 135.88 C325.13 89.02, 368.26 40.44, 403.95 2.06 M283.4 137.28 C309.13 108.01, 335.21 77.69, 402.31 -0.47 M289.16 136.84 C314.6 107.33, 339.23 78.62, 409.85 1.5 M288.39 137.12 C322.31 99.67, 353.68 62.4, 407.91 0.48 M295.49 137.78 C331.84 93.11, 371.38 49.12, 411.41 1.85 M293.91 137.11 C334.98 88.11, 376.99 41.04, 414.2 -0.46 M300.53 139.03 C331.24 103.81, 359.86 65.34, 418.5 1.01 M299.7 137.26 C341.11 89.01, 383.59 39.61, 419.24 -1.1 M304.94 136.21 C336.05 100.51, 367.91 63.09, 422.64 1.31 M305.2 138.17 C348.52 85.92, 394.52 34.98, 423.15 0.78 M308 136.37 C355.46 85.8, 400 34.08, 430.09 1.62 M309.38 136.93 C342.11 100.58, 373.57 65.07, 430.38 -0.68 M316.77 138.1 C354.62 96.53, 389.45 55.17, 436.52 1.52 M315.05 137.08 C351.22 96.04, 388.09 52.43, 435.52 0.55 M320.69 139.7 C365.79 87.76, 409.45 31.73, 440.08 1.36 M320.65 138.54 C356.61 93.45, 394.87 52.04, 439.63 0.32 M324.06 139.98 C351.51 109.54, 373.94 80.41, 444.11 -1.58 M325.96 138.31 C359.73 96.91, 395.42 55.94, 446.05 0.23 M331.94 138.69 C355.55 105.84, 383.67 73.52, 450.15 -0.96 M331.14 138.6 C357.54 108.84, 382.39 80.48, 450.7 -0.43 M336.04 136.89 C381.16 86.33, 428.02 30.67, 456.67 -1.27 M335.85 139.13 C381.94 85.79, 429.14 32.9, 455.9 -0.72 M343.23 137.81 C367.94 104.66, 394.91 74.08, 460.14 -1.71 M340.88 137.7 C376.89 98.8, 412.31 58.04, 460.7 -0.16 M346.14 138.99 C377.28 102.47, 409.01 64.31, 465.65 -0.02 M346.03 138.21 C388.53 90.84, 429.3 42.1, 466.66 -0.73 M352.28 136.37 C378 107.99, 405.93 76.8, 471.42 0.32 M352.32 138.54 C386.56 97.74, 422.59 55.53, 471.51 -0.24 M358.66 136.46 C398.08 88, 441.49 40.71, 478.68 -1.47 M357.9 138.53 C386.36 104.18, 416.15 70.77, 476.27 -0.13 M360.96 136.45 C408.2 85.31, 454.18 33.35, 481.55 0.88 M362.3 137.89 C407.1 84.34, 454.54 29.85, 482.34 0.76 M368.08 136.33 C412.85 86.95, 455.93 36.11, 487.58 1.55 M368.27 138.16 C399.31 101.57, 430.99 65.73, 487.14 0.82 M371.33 138.98 C405.24 104.71, 432.15 67.12, 492.28 -1.22 M374.08 138.64 C410.53 94.97, 446.63 51.01, 491.9 -0.34 M379.04 138.39 C413.63 97.66, 448.46 57.83, 496.35 -1 M377.35 138.3 C414.17 98.11, 448.23 58.23, 498.03 -0.02 M385.67 135.68 C418.25 100.41, 449.19 64.24, 504.21 0.93 M383.32 137.75 C412.12 104.19, 440.7 71.72, 502.9 -0.41 M390.42 139.3 C426.35 94.36, 468 49.82, 509.19 -0.31 M388.74 137.19 C426.72 93.39, 465.36 49.92, 508.15 -0.73 M394.4 137.1 C427.79 98.37, 461.39 63.17, 512.12 -1 M394.09 138.3 C438.51 89.83, 480.06 39.69, 513.5 0.79 M399.23 136.5 C438.16 94.83, 475.49 47.25, 518.48 -0.78 M399.47 138.22 C431.26 100.67, 464.49 63.63, 519.09 0.75 M404.17 136.58 C451.77 85.25, 496.83 30.25, 525 1.52 M404.86 137.45 C435.31 104.64, 463.45 71.66, 525.25 0.6 M408.72 136.24 C454.37 83.94, 500.99 33.14, 528.8 -0.01 M409.96 137.83 C453.5 90.08, 495.32 43.34, 530.85 0.53 M413.79 138.29 C449.96 96.74, 488.62 53.97, 534 1.8 M416.5 138.44 C453.7 96.36, 488.86 55.21, 535.1 -0.56 M420.29 137.6 C446.47 107.74, 471.54 83.3, 540.89 -0.75 M420.04 137.57 C456.14 97.48, 490.62 57.52, 539.85 -1.16 M426.27 137.21 C456.82 102.6, 483.12 68.65, 544.48 1.97 M426.31 136.63 C467.1 90.04, 506.95 45.36, 545.42 0.83 M429.54 136.46 C477.67 82.88, 524.83 30.05, 551.7 1.02 M430.97 138.1 C468.36 94.77, 507.82 49.34, 550.91 0 M436.15 139.88 C482.55 86.34, 525.55 36.19, 555.97 0.99 M437.32 138.21 C478.45 88.24, 522.18 38.58, 555.99 -0.61 M442.26 137.52 C483.59 90.2, 525.35 40.58, 561.05 1.67 M441.37 137.13 C487.83 84.57, 536.36 30.39, 559.93 1.92 M448.12 137.4 C474.07 108.97, 495.04 83.01, 560.3 5.4 M446.93 137.2 C470.85 111.88, 493.4 85.22, 562.06 7.6 M454.43 138.29 C489.42 94.79, 523.98 54.55, 562.39 11.92 M453.3 137.52 C492.11 91.4, 531.49 46.33, 560.67 14.16 M457.09 137.93 C480.04 113.68, 501.5 87.38, 562.68 18.26 M457.01 137.99 C488.42 102.6, 519.16 66.49, 561.54 18.77 M464.21 137.08 C487.79 111.32, 509.65 87.97, 562.41 25.68 M464.22 137.18 C484.15 115.62, 503.75 93.28, 560.35 24.76 M466.82 139.71 C502.08 101.78, 531.02 67.26, 561.17 32.44 M468.46 138.31 C495.23 106.85, 522.28 75.86, 560.34 32.26 M471.95 137.04 C505.68 98.75, 538.96 61.9, 562.81 38.25 M472.99 137.13 C505.79 101.83, 536.56 65.09, 561.41 36.4 M477.27 139.76 C505.5 106.85, 537.38 72.23, 561.35 44.61 M478.59 137.96 C498.81 115.48, 517.74 93.23, 561.19 43.54 M484.19 138.1 C513.52 107.05, 537.57 73.65, 561.46 47.72 M483.88 137.49 C503.54 114.24, 523.42 91.48, 560.71 49.88 M488.55 137.96 C512.52 115.8, 532.52 90.64, 561.05 54.55 M489.13 138.85 C516.57 107.06, 543.49 75.35, 560.22 55.46 M493.65 137.03 C518 109.91, 545.48 81.2, 559.78 63.76 M494.57 137.46 C518.89 111.75, 540.97 85.7, 560.84 62.82 M500.98 136.95 C510.52 123.87, 525.09 108.59, 560.93 66.06 M500.21 137 C514.41 121.85, 527.91 105.63, 561.64 67.18 M507.25 139.4 C520.93 118.79, 539.45 98.87, 561.33 72.6 M506.14 137.34 C519.81 121.37, 533.75 104.22, 560.77 74.68 M511.08 138.22 C521.5 124.93, 530.98 113.16, 559.84 79.8 M510.37 138.49 C522.45 123.51, 533.69 111.7, 561.06 78.99 M518.09 135.58 C527.57 127.73, 533.75 115.07, 559.92 85.53 M517.09 138.53 C528.03 122.45, 540.98 107.7, 561.91 85.29 M519.54 138.07 C529.81 128.86, 537.55 116.92, 562.16 93.95 M520.54 137.53 C531.79 125.59, 543.52 110.8, 560.86 92.98 M525.45 136.79 C536.48 126.49, 547.54 114.8, 562.16 99.89 M527.29 137.51 C535.69 127, 545.66 116.53, 560.74 97.81 M531.24 139.58 C538.67 128.55, 546.06 119.02, 560.43 105.26 M532.07 138.38 C541.2 126.55, 550.14 117.79, 560.76 104.12 M538.82 139.02 C544.92 129.26, 550.35 125.87, 562.88 111.86 M538.06 137.86 C544.09 130.05, 551.79 120.06, 562.14 109.49 M543.25 136.67 C547.27 131.65, 552.86 122.7, 559.41 117.57 M542.73 137.44 C546.88 132.78, 550.63 130.03, 561.94 116.71 M549.77 139.02 C550.95 132.86, 557.26 127.69, 560.44 121.27 M548.12 138.23 C551.92 132.82, 554.35 129.69, 560.73 122.47 M553.02 137.97 C554.43 135.5, 556.65 133.61, 562.09 127.55 M552.92 137.42 C555.31 135.22, 558.11 132.38, 561.46 129.13" stroke="#fca311" stroke-width="0.5" fill="none"></path><path d="M-0.36 -0.39 C155.95 1.39, 312.7 2.3, 559.52 0.43 M-0.24 0.38 C172.51 1.14, 344.98 1.26, 559.85 -0.3 M560.49 -1.88 C558.32 43.4, 559.16 82.82, 560.55 137.42 M560.42 -0.61 C559.63 38.58, 559.13 78.03, 559.91 135.31 M560.71 136.24 C370.96 137.62, 181.14 136.64, -0.14 135.6 M559.87 135.82 C419.63 137.83, 278.51 137.47, 0.04 136.33 M0.97 134.23 C0.27 83.78, -0.9 31.47, -1.23 0.2 M-0.3 135.95 C-0.2 95.17, -0.39 52.34, -0.56 0.52" stroke="#e5e5e5" stroke-width="1" fill="none"></path></g><g stroke-linecap="round" transform="translate(201.55555555555543 10) rotate(0 280 68)"><path d="M1.89 0.77 L559.5 -0.92 L559.19 135.48 L-1.09 137.4" stroke="none" stroke-width="0" fill="#fca311"></path><path d="M-0.39 -0.38 C121.44 1.02, 244.56 0.52, 560.43 0.07 M0.38 -0.1 C218.61 1.08, 437.26 1.19, 559.7 0.02 M558.12 -0.41 C562.4 28.54, 560.24 56.76, 561.42 135.69 M559.39 0.02 C560.89 36.47, 561.68 73.81, 559.31 136.38 M560.24 136.07 C433.77 137.35, 305.99 137.84, -0.4 135.61 M559.82 136.36 C447.75 135.27, 334.92 135.33, 0.33 136.37 M-1.77 137.48 C0.49 83.39, 1.43 28.92, 0.2 0.1 M-0.05 136.94 C1.22 84.57, -0.15 31.07, 0.52 -0.39" stroke="#e5e5e5" stroke-width="1" fill="none"></path></g><g transform="translate(213.2777777777775 36.5) rotate(0 264.5 46.5)"><text x="264.5" y="65" font-family="Virgil, Segoe UI Emoji" font-size="73.6000000000001px" fill="#ffff" text-anchor="middle" style="white-space: pre;" direction="ltr">#30DaysOfQC</text></g><g stroke-linecap="round" transform="translate(10 213.4139036905467) rotate(0 495.8072824156306 344.7548845470693)"><path d="M0 0 C0 0, 0 0, 0 0 M0 0 C0 0, 0 0, 0 0 M0.82 14.56 C3.97 7.46, 7.34 7.79, 10.34 -1.1 M1.49 10.87 C3.88 8.75, 4.26 6.71, 9.6 0.97 M-2.86 20.22 C3.87 15.19, 15.17 9.23, 21.37 1.99 M-0.39 23.58 C2.82 18.62, 8.18 11.8, 22.36 -0.73 M1.97 37.68 C8.3 24.32, 24.23 9.07, 34.09 -2.97 M-2.02 37.4 C10.79 20.85, 26.27 8.84, 31.33 0.86 M-1.61 46.36 C5.26 41.3, 20.29 25.98, 45.19 -3.5 M1.82 48.61 C17.64 31.34, 31.75 12.9, 43.17 -0.06 M1.92 63.32 C19.35 44.88, 38.68 21.33, 52.26 -1.06 M-1.82 59.61 C12.14 48.23, 23.42 31.32, 51.84 1.07 M3.61 76.67 C15.48 56.73, 30.05 42.05, 66 -3.61 M-1.2 73.69 C19.55 48.64, 39.88 26.24, 62.16 1.65 M-2.42 86.01 C25.62 49.89, 58.82 20.21, 74.48 -1.82 M-0.73 85.97 C26.75 56.13, 47.39 27.18, 73.71 -2 M0.68 94.98 C19.93 73.41, 37.24 52.99, 87.33 -1.34 M-1.69 98.23 C19.21 77.64, 35.71 54.75, 84.72 -0.51 M3.31 108 C27.53 78.48, 53.47 46.61, 92.08 0.96 M0.24 110.05 C31.49 75.19, 59.82 41.62, 95.94 -1.36 M1.75 118.49 C35.43 83.77, 67.12 41, 106.32 0.71 M-1.08 121.45 C24.84 96.81, 45.66 73.76, 106.47 1.32 M-2.94 137.68 C34.77 94.52, 66.39 57.61, 117.36 2.61 M0.25 131.99 C28.46 99.12, 59.99 63.8, 117.06 1.54 M-1.38 147.03 C49.44 87.63, 103.59 32.97, 129.08 1.07 M1.41 147.66 C43.69 101.22, 83.61 54.45, 128.54 0.61 M-3.75 155.28 C50.37 103.51, 97.29 45.68, 138.14 0.53 M-1.76 159.63 C34.68 123.61, 64.46 85.12, 137.75 1.61 M-2.83 169.09 C50.05 110.93, 101.81 56.89, 149.14 -3.09 M-1.07 171.78 C53.43 112.75, 106.69 51, 148.2 1.19 M-2.73 184.26 C29.01 146.22, 63.31 108.15, 161.62 -0.86 M0.95 183.01 C34.9 139.27, 68.12 101.9, 157.3 -0.35 M0.88 197.5 C51.87 137.2, 104.07 75.69, 168.58 1.5 M1.73 194.16 C45.85 139.91, 89.8 87.81, 170.67 -1.07 M-2.53 206.71 C36.12 167.63, 77.39 120.32, 179.34 -2.01 M1.07 206.78 C64.04 129.29, 130.32 51.17, 178.83 0.84 M2.67 217.48 C77.01 134.19, 151.81 52.92, 190.1 0.31 M0.05 219.36 C58.85 151.22, 119.26 81.98, 189.59 -0.31 M1.53 232.83 C62.59 152.18, 126.28 82.7, 200.71 0.01 M0.31 232.26 C62.92 156.07, 125.63 81.85, 201.93 -0.47 M-2.24 246.47 C76.74 155.41, 156.65 62.09, 211.42 -0.48 M0.27 244.64 C73.11 160.66, 141.54 83.24, 212.99 0.07 M-0.44 257.69 C67.88 175.18, 133.54 100.85, 220.39 -0.52 M0.56 256.2 C74.87 172.1, 147.97 88.86, 223.66 -1.17 M0.32 265.77 C78.31 175.87, 153.25 91.01, 231.87 -1.18 M0.45 269.02 C56.71 203.43, 115.97 135.21, 232.7 0.63 M-1.89 280.48 C75.56 192.83, 152.27 106.97, 242.91 -0.09 M-0.2 281.81 C70.83 196.01, 141.76 115.03, 244.48 0.26 M-0.1 293.27 C72.03 208.94, 148.21 119.69, 256.65 -1.75 M-0.91 293.66 C98.74 181.36, 199.04 67.28, 253.61 -0.14 M0.51 302.95 C96.2 195.46, 189.83 88.97, 265.53 1.75 M0.09 304.73 C98.28 195.01, 195.04 84.82, 264.89 -0.36 M-1.73 315.86 C100.24 199.68, 201.61 80.58, 277.24 -2.02 M-0.77 316.77 C107.81 191.24, 214.16 69.64, 276.06 -0.61 M0 328.29 C63.56 255.92, 124.08 188.22, 285.11 -0.72 M0.35 328.33 C92.56 223.77, 184.88 117.49, 285.38 -0.34 M1.12 341 C113.91 216.82, 224.29 88.15, 296.52 -1.65 M-1.16 341.08 C63.46 269.25, 127.75 194.47, 297.33 0.68 M0.02 355.2 C93.33 245.77, 186.15 139.26, 305.97 -1.72 M0.62 353.63 C58.43 284.97, 121.13 212.91, 308.19 -0.25 M-0.72 366.01 C77.81 274.38, 156.51 183.9, 317.25 -0.38 M0.55 365.36 C63.02 293.92, 128.52 217.54, 318.38 -0.22 M-1.32 377.68 C71.07 292.97, 148.16 207.41, 329.85 0.89 M0.28 377.93 C88.12 281.48, 173.03 182.97, 328.18 -0.96 M0.04 389.45 C80.52 298.05, 157.16 211.53, 338.62 -1 M-0.11 390 C72.4 309.55, 144.76 227.74, 339.14 -0.84 M-1.03 403.46 C70.27 320.53, 143.95 238.04, 350.53 -1.02 M-0.99 402.26 C74.37 320.99, 147.43 236.7, 348.81 0.2 M-1.48 415.1 C95.39 302.73, 193.87 189.89, 360.11 1.4 M-0.53 415.2 C86 315.7, 171.49 219.07, 359.66 0.09 M0.64 427.04 C104.21 305.99, 209.21 183.49, 369.68 0.42 M-0.31 426.48 C145.4 258.06, 291.7 89.83, 370.3 -0.04 M0.86 439.68 C94.44 333.9, 186.19 227.09, 380.82 -0.17 M0.44 438.37 C85.74 344.49, 171.12 246.54, 381.25 0.43 M-1.7 452.62 C115.62 320.82, 229.25 193.56, 392.28 0.95 M0.31 452.15 C75.47 360.57, 155.27 269.05, 392.64 -0.01 M-0.02 464.67 C116.08 323.34, 237.85 185.97, 401.64 -0.7 M-0.15 464.28 C105.74 348.63, 207.73 229.96, 402.56 0.65 M-0.59 475.14 C111.97 347.14, 225.02 218.06, 413.41 0.5 M-0.81 475 C108.81 351.04, 216.96 225.49, 413.37 0.78 M0.07 487.09 C139.28 327.16, 279.12 164.94, 424.77 1.01 M0.63 487.77 C154.1 314.28, 304.86 140, 423.74 0.77 M0.52 498.38 C127.96 346.5, 261.56 193.63, 433.62 0.76 M-0.08 499.68 C104.89 377.3, 210.22 255.58, 434.89 0.7 M-1.44 511.94 C148.39 345.5, 292.91 178.92, 446.68 -0.08 M-0.03 512.65 C126.88 359.51, 257.21 209.67, 445.84 -0.45 M-1.17 523.03 C108.84 396.56, 221.51 271.91, 455.66 -1.25 M0.6 524.82 C116.88 393.66, 234.16 259.48, 456.48 -0.72 M0.94 536.52 C180.73 331.96, 359.57 128.34, 467.68 0.73 M-0.63 536.02 C173.87 336.26, 345.44 138.93, 465.97 -0.73 M0.57 547.71 C176.49 345.62, 352.49 143.19, 478.19 -0.34 M0.55 548.69 C119.94 413.5, 240.29 276.12, 477.48 0.36 M0.17 562.19 C154.36 388.15, 305.92 215.92, 488.71 -1.29 M0.01 559.97 C109.61 430.12, 220.7 301.56, 486.92 -0.68 M0.37 574.16 C184.72 360.55, 372.22 144.33, 498.88 0.8 M-1.06 572.89 C105.65 447.08, 215.6 321.36, 498.93 -0.71 M1.1 585.62 C109.92 455.97, 224.04 323.93, 508.19 -1.15 M-0.02 586.14 C134.12 434.05, 265.58 282.23, 509.16 -0.56 M-0.63 598.09 C189.81 383.01, 378.15 169.07, 520.87 1.28 M0.07 597.94 C206.84 365.09, 409.6 130.01, 520.32 0.59 M-0.03 609.39 C189.93 395.74, 373.76 183.5, 531.57 -0.09 M-0.61 610.2 C205.98 375.55, 410.87 139.06, 530.83 -0.32 M0.55 620.8 C116.12 485.3, 236.96 348.4, 539.92 -1.3 M0.7 622.16 C127.69 472.6, 258.15 322.99, 541.24 0.25 M-0.97 634.43 C125.22 490.54, 250.34 345.99, 552.17 0.8 M-1 635.18 C155.96 454.24, 311.78 275.59, 550.95 0.42 M1.16 646.96 C160 463.94, 317.3 283.77, 560.49 -1.13 M0.11 645.77 C159.96 462.83, 317.61 280.82, 561.34 0.22 M-0.95 657.22 C176.95 457.04, 352.1 257.8, 573.53 0.57 M0.68 659 C198.55 427.78, 398.41 198.02, 572.59 -0.83 M1.09 669.52 C146.95 494.24, 297.09 319.93, 582.19 0.45 M0.39 670.27 C157.86 495.35, 310.75 319.4, 582.89 1.12 M1.04 681.45 C193.44 463.53, 387.64 240.14, 592.81 -0.82 M-0.4 682.99 C200.65 451.45, 403.83 218.01, 592.68 0.89 M1.5 690.41 C177.75 482.68, 355.46 279.54, 602.47 1.63 M3.57 691.93 C229.9 428.28, 459.18 163.74, 603.81 0.84 M12.45 690.28 C232.77 434.92, 451.7 182.43, 616.17 0.88 M14.38 692.15 C216.61 450.6, 423.99 211, 614.16 0.65 M24.39 692.67 C220.46 459.8, 420.78 228.46, 625.45 1.38 M24.74 691.49 C193.39 496.76, 357.85 306.68, 624.91 0.63 M33.57 693.76 C271.03 415.51, 508.68 142.49, 635.68 -0.47 M33.5 692.88 C265.98 419.91, 502.92 147.56, 635.7 0.88 M44.86 693.11 C242.94 460.1, 440.04 234.65, 645.37 -0.31 M45.1 691.6 C170.74 538.71, 299.55 390.32, 646.16 0.56 M56.67 691.61 C239.29 489.52, 416.37 284.46, 657.48 1.19 M56.04 691.87 C209.87 513.34, 361.57 337.62, 657.48 0.37 M65.35 691.65 C213.85 529.57, 359.71 362.99, 668.3 1.48 M65.44 691.87 C256.85 467.95, 449.43 247.95, 667.57 0.17 M75.77 691.31 C236.56 509.17, 396.03 326.88, 678.78 -0.75 M77.49 691.75 C219.09 531.82, 361.01 367.02, 678.97 -0.15 M87.04 690.68 C235.3 528.76, 381.46 364.8, 689.79 0.65 M87.07 692.87 C298.47 451.07, 504.77 213.05, 689.25 0.17 M97.4 691.75 C341.08 420.75, 579 146.91, 700.64 0.07 M97.24 692.29 C336.86 416.74, 576.05 141.07, 698.91 0.39 M109.17 691.93 C294.25 478.22, 481.78 262.8, 710.81 -0.79 M108.03 691.57 C283.95 489.96, 456.21 292.05, 709.78 -0.84 M120.75 693.55 C299.41 477.67, 484.12 263.62, 721.57 0.57 M119.57 691.23 C313.8 464.31, 510.16 236.99, 720.12 0.15 M128.44 690.92 C279.62 526.9, 425.99 357.64, 731.39 0.96 M130.44 691.64 C357.04 425.59, 587.35 159.94, 731.01 0.09 M140.85 692.69 C333.95 470.98, 524.89 253.98, 740.73 0.99 M140.83 692.2 C358.26 443.7, 575.68 193.2, 741.48 -0.76 M151.83 692.9 C292.53 524.14, 439.51 359.02, 753.81 -1.39 M150.89 692.28 C346.64 475.6, 537.64 254.7, 753.27 -0.97 M161.38 693.31 C314.95 511.73, 465.89 336.89, 764.31 -1.45 M162.26 691.97 C381.3 432.36, 604.09 175.13, 762.76 -0.31 M170.94 690.48 C361.36 479.71, 549.15 267.42, 773.02 -0.54 M171.64 691.42 C294.16 547.05, 416.89 405.99, 773.76 -0.44 M181.87 691.69 C342.99 512.61, 499.34 329.98, 783.18 0.19 M183.55 691.63 C408.08 436.04, 631.22 180, 784.6 -0.94 M194.01 692.41 C354.65 502.98, 515.19 316.43, 795.78 -0.28 M194.24 692.12 C315.54 553.34, 437.91 412.9, 794.56 0 M204.11 692.25 C438.89 429.48, 671.96 161.59, 804.85 0.22 M204.48 691.78 C396.05 474.31, 587.02 254.28, 805.32 0.02 M213.96 691.6 C425.77 452.02, 636.8 210.11, 814.49 1.34 M214.69 691.35 C409.65 469.47, 601.14 250.63, 815.56 0.55 M225.72 691.58 C454.64 428.94, 684.99 167.39, 827.21 0.26 M224.9 690.99 C411.91 484.04, 594.29 271.92, 826.65 -0.08 M237.15 690.7 C462.88 422.12, 695.97 157.68, 838.52 -0.66 M236.3 691.21 C471.75 424.12, 702.51 156.96, 837.11 0.27 M246.59 691.21 C443.31 468.67, 638.84 247.95, 847.59 -0.21 M246.35 692.1 C466.12 437.73, 690.08 182.12, 848.37 0.6 M257.79 692.52 C397.96 531.2, 534.88 373.93, 858.35 -0.85 M256.81 690.95 C438.01 490.32, 611.65 288.7, 857.65 -0.01 M268.19 691.96 C497.25 425.47, 727.12 159.18, 868.38 0.73 M268.17 691.87 C445.07 494.78, 622.24 291.93, 869.15 0.05 M279.66 691.17 C469.58 463.12, 670.49 235.42, 880.18 0.8 M277.43 692.45 C488.12 448.77, 701.31 202.98, 879.56 0.94 M289.83 690.98 C434.12 516.65, 581.38 345.38, 890.1 1.19 M288.55 692.31 C520.09 427.68, 753.78 158.54, 890.83 0.66 M299.61 691.45 C512.99 446.45, 729.45 196.37, 899.63 -0.33 M298.97 692.5 C499.63 453.38, 704.41 218.42, 900.5 0.66 M311.07 692.58 C501.81 476.23, 692.31 258.33, 910.69 -0.58 M310.18 692.4 C492.69 479.45, 679.55 262.67, 911.28 0.33 M319.51 690.96 C556.55 421.6, 792.58 150.28, 920.97 -0.7 M321.17 692.06 C472.42 519.68, 623.88 345.75, 922.98 -0.59 M331.19 692.5 C501.56 489.76, 677.05 290.76, 931.98 0.22 M331.69 691.52 C491.1 507.22, 651.77 321.32, 932.47 0.48 M342.59 693.11 C534.24 476.05, 723.48 258.66, 944.36 -1.44 M342.1 691.64 C536.88 464.78, 736.92 234.98, 943.22 0.19 M351.73 691.41 C588.38 431.65, 817.8 163.7, 953.2 -1.05 M351.79 691.75 C585.33 423.62, 821.46 153.66, 954.05 -0.32 M363.09 691.85 C497.28 542.49, 627.36 394.49, 965.75 1.29 M363.89 692.1 C522.84 511.39, 684.46 326.42, 965.49 -0.9 M373.28 691.76 C573.07 464.23, 768.55 240.08, 974.28 0.71 M374.05 691.52 C593.86 441.54, 814.18 188.22, 974.93 0 M385.53 690.9 C501.67 546.78, 624.64 406.25, 986.6 0.26 M384.77 691.43 C608.67 423.57, 838.99 159.2, 986.14 -0.21 M395.45 691.32 C599.12 455.53, 800.95 222.36, 993.8 3.44 M395.73 691.95 C520.21 543.39, 645.84 398.25, 994.52 1.3 M405.47 690.9 C641.11 426.77, 869.16 161.8, 994.26 14.7 M405.41 691.12 C548.72 529.01, 691.27 364.5, 994.89 14.13 M416.94 692.82 C632.17 442.98, 848.56 192.32, 995.25 26.5 M415.76 692.13 C586.1 499.39, 751.16 309.28, 994.18 26.69 M425.5 692.67 C595.71 497.41, 761.06 307.7, 993.5 38.05 M427.39 691.41 C568.73 520.46, 715.68 352.95, 995.07 38.76 M438.68 691.14 C599.71 505.25, 759.88 322.02, 994.43 52.05 M437.93 692.24 C601.44 503.41, 766.91 314.6, 994.2 51.04 M448.89 690.75 C586.99 534.3, 726.08 375.18, 993.99 62.49 M448.35 691.24 C597.28 519.91, 745.03 349.61, 994.34 63.64 M457.45 692.52 C584.72 551.22, 708.56 411.86, 992.53 74.52 M458.12 691.99 C610.63 516.92, 762.11 342.45, 994.07 76.03 M469.94 692.66 C571.99 572.95, 679.42 452.78, 992.7 88.55 M470 691.5 C661.01 464.03, 855.08 238.55, 993.51 88.07 M478.68 692.12 C624.28 528.11, 764.45 364.37, 994.03 101.45 M480.3 692.23 C598.64 552.95, 715.31 418.29, 993.59 100.64 M490.01 690.05 C637.46 519.68, 788.13 351.4, 994.03 113.06 M490.13 691.79 C641.14 521.63, 787.43 354.55, 993.8 111.81 M499.79 690.85 C606.3 578.46, 709.66 460.75, 995.66 123.6 M501.42 692.48 C626.34 548.29, 753.75 403.17, 994.68 123.28 M510.46 691.48 C647.25 529.52, 786.64 370.71, 995.59 137.59 M511.55 692.79 C701.45 472.74, 890.61 254.94, 993.91 137.16 M522.43 692.26 C668.83 523.32, 817.63 355.1, 994.85 147.88 M522.11 692.72 C635.59 567.18, 746.61 439.91, 993.71 149.03 M532.04 690.59 C699.53 499.74, 861.13 310.14, 993.47 159.28 M531.91 691.65 C670.91 537.74, 807.19 381.97, 993.63 161.32 M542.14 691.15 C717.25 491.51, 892.17 289.44, 994.79 172.68 M542.68 691.52 C708.76 503.61, 873.76 313.9, 994.73 173.08 M554.22 693.04 C673.42 552.89, 793.89 413.59, 993.67 185.66 M554.18 691.3 C658.69 575.07, 763.17 454.12, 994.06 184.88 M563.73 692.89 C715.66 519.44, 863.78 345.49, 993.55 196.37 M564.19 692.62 C735.53 494.42, 904.11 300.92, 993.59 197.14 M574.54 691.1 C668.31 580.02, 763.44 469.74, 994.79 210.01 M574.84 692.64 C707.39 536.3, 841.78 383.62, 994.76 209.58 M584.69 691.81 C669.29 599.24, 752.74 504.07, 995.63 220.85 M586.16 691.28 C673.19 593.05, 756.54 495.75, 994.49 221.82 M597.63 693.16 C679.95 595.24, 767.72 493.8, 993.29 234.71 M596.05 692.1 C703.08 568.34, 810.63 445.4, 994.15 234.39 M607.95 690.4 C714.81 564.29, 823.44 437.68, 993.98 247.97 M606.61 691.91 C697.3 588.81, 788.83 485.21, 993.44 246.29 M619.12 691.79 C713.06 581.55, 805.53 474.3, 994.83 257.29 M617.67 691.24 C712.66 579.09, 810.25 467.72, 994.51 259.24 M629.1 692.89 C711.83 598.92, 794.48 506.16, 994.43 270.35 M628.4 692.01 C716.89 588.11, 804.85 486.29, 994.79 270.22 M638.53 692.48 C760.53 554.2, 881.65 413.69, 993.96 283.62 M638.8 691.93 C750.1 566.38, 858.49 441.2, 994.38 282.15 M649.17 692.45 C773.96 546.02, 902.38 397.11, 995.06 295.78 M649.69 691.82 C764.94 558.6, 881.17 425.41, 995.35 294.26 M659.22 691.29 C764.22 568.9, 869.7 448.13, 994.45 308.36 M659.43 691.58 C744.99 592.11, 829.73 492.7, 994.59 306.91 M671.46 690.38 C797 545.87, 920.79 404.12, 994.66 319.42 M670.29 691.1 C785.32 559.12, 903.2 421.87, 994.45 319.39 M682.06 690.76 C744.54 618.89, 811.17 543.41, 995.44 331.21 M682.1 691.07 C748.21 617.94, 815.34 541.43, 993.82 332.24 M691.81 693.31 C758.36 616.23, 827.42 538.21, 994.55 343.98 M691.71 692.5 C789.1 579.46, 886.86 467.19, 994.18 342.98 M701.75 690.45 C773.84 605.46, 851.85 519.1, 996.28 356.19 M701.79 691.84 C789.99 588.88, 876.86 486.95, 993.62 355.16 M711.29 692.71 C811.95 576.21, 912.29 459.68, 994.17 368.79 M714.23 691.14 C805.89 586.04, 900.39 476.41, 993.31 369.52 M724.42 690.09 C812.5 589.47, 904.28 487.05, 994.88 382.58 M723.2 692.16 C808.59 596.17, 889.93 500.92, 994.63 381.07 M734.27 692.85 C829.06 581.58, 924.72 468.6, 992.32 393.94 M733.01 691.29 C803.63 608.33, 875.38 524.67, 994.62 393.07 M744.94 690.23 C814.56 617.38, 879.36 535.79, 993.95 404.4 M744.32 693.03 C804.61 626.19, 864.93 557.29, 995.18 404.95 M757.48 690.29 C843.64 588.17, 932.21 487.58, 995.9 417.7 M756.13 693.39 C843.71 593.44, 929.4 492.85, 993.33 416.04 M764.48 694.52 C845.96 594.38, 934.43 497.1, 992.76 430.37 M765.84 691.3 C844.26 601.68, 923.15 509.8, 995.04 430.35 M777.56 691.55 C853.46 609.92, 927.2 520.09, 993.96 443.06 M776.18 691.79 C847.03 612.8, 921.32 529.43, 995.41 442.23 M789.15 693.91 C849.97 617.71, 908.8 548.41, 991.66 455.02 M787.8 691.76 C862.22 608.55, 933.67 526.24, 994.42 454.93 M795.1 690 C835.13 646.24, 875.44 598.88, 992.59 465.98 M798.71 691.58 C853.43 627.79, 910.32 565.29, 995.16 465.93 M810.89 693.78 C872.25 620.51, 943.67 543.3, 993.02 476.99 M809.74 691.33 C872.48 613.71, 941.08 535.84, 994.38 477.39 M821.88 692.8 C883.75 619.52, 949.36 539.69, 991.99 491.24 M818.71 692.42 C861.45 642.05, 904.2 590.37, 993.08 490.02 M826.83 695.19 C870.19 652.29, 911.3 607.06, 991.6 504.47 M829.57 693.06 C893.18 622.12, 953.57 551.41, 993.48 501.41 M837.35 692.76 C901.61 620.96, 958.71 551.05, 996.79 515.18 M839.9 692.78 C873.28 656.48, 905.89 618.17, 994.8 515.51 M848.87 692.8 C885.25 654.73, 925.37 612.06, 994.63 528.43 M850.06 691.15 C883.28 655.22, 914.05 621.02, 995.59 528.28 M863.22 691.67 C898.88 649.24, 931.58 604.2, 997.51 536.1 M860.07 693.2 C899.97 651.48, 936.49 607.78, 996.36 539.89 M871.43 695.27 C909.17 650.31, 946.4 607.18, 991.12 552.25 M873.14 689.95 C911.52 643.96, 950.3 600.43, 995.54 550.72 M878.96 688.28 C928.72 638.17, 966.92 585.77, 991.34 559.49 M884.3 693.3 C917.43 654.55, 951.12 614.67, 995.01 564.4 M897.04 689.18 C929.49 645.83, 963.41 605.48, 992.27 572.98 M895.2 692.46 C915.17 664.1, 934.96 639.95, 993.36 574.82 M905.5 694.26 C919.22 672.54, 942.25 649.28, 995.43 590.97 M902.64 691.14 C931.4 659.38, 955.12 629.48, 995.49 588.78 M913.3 693.32 C938.4 663.81, 966.9 639.14, 997.67 602.97 M914.35 689.86 C932.38 674, 949.2 653.44, 996.11 601 M922.74 693.42 C941.45 667.22, 962.4 649.2, 994.82 614.28 M924.76 692.04 C951 664.13, 976.09 634.44, 994.87 613.01 M933.73 694.68 C956.62 669.57, 972.62 643.4, 996.5 626.68 M935 690.19 C953.53 671.17, 974.36 649.26, 994.91 624.24 M948.02 689.97 C961.86 681.32, 973.96 668.21, 994.47 634.79 M944.66 691.98 C956.37 681.39, 966.05 669.89, 994.79 634.7 M957.48 688.68 C971.74 671.91, 988.24 662.82, 993.51 646.69 M955.75 690.36 C969.5 677.34, 982.41 658.43, 995 648.06 M963.64 693.23 C974.99 681.15, 988.4 669.26, 990.99 660.52 M967.88 690.49 C972.75 685.81, 978.75 678.6, 993.15 658.56 M976.65 695.81 C979.93 687.84, 985.9 682.22, 996.48 672.94 M976.75 692.81 C984.67 685.48, 991.27 680.07, 995.22 673.85 M989.74 691.49 C990.11 689.16, 992.1 688.37, 992.6 684.7 M989.12 691.96 C988.6 690.9, 991.63 689.48, 994.13 685.71" stroke="#fca311" stroke-width="1" fill="none"></path><path d="M-1.55 0.06 C253.71 2.83, 507.72 3.92, 993.06 -0.77 M0.14 -0.51 C238.57 1.77, 475.8 2.11, 990.87 0.35 M993.06 0.34 C986.14 224.05, 987.56 446.97, 991.16 690.65 M991.55 -0.39 C988.81 235.78, 987.7 472.02, 991.03 689.89 M992.74 688.26 C605.77 689.95, 220.82 689.45, -1.59 690.65 M992.07 689.47 C725.37 696.81, 460.3 697.47, 0.71 689.82 M0.82 689.76 C6.45 448.34, 5.04 209.22, 1.34 -0.69 M0.51 690.11 C-0.33 502.99, 0.68 317.06, 0.76 0.31" stroke="#e5e5e5" stroke-width="2" fill="none"></path></g><g stroke-linecap="round" transform="translate(20.88543516873881 203.30555555555554) rotate(0 495.8072824156306 344.7548845470693)"><path d="M-0.92 -0.81 L991.09 -1.09 L993.01 688.27 L-1.25 688.2" stroke="none" stroke-width="0" fill="#fca311"></path><path d="M0.03 0.14 C249.01 4.28, 499.04 4.57, 991.23 -0.48 M-0.26 0.18 C390.79 -0.99, 781.89 -1.07, 991.79 0.1 M991.79 -0.14 C991.27 142.5, 990.93 283.64, 992.18 689.85 M991.42 0.28 C991.63 164.44, 991.82 329.14, 991.8 689.86 M990.99 689.09 C664.46 691.91, 337.18 691.51, 0.57 689.26 M991.59 689.38 C739.65 692.11, 487.97 692.14, 0.15 689.7 M0.13 690.29 C-2.54 543.79, -2.01 398.58, -0.35 -0.24 M0.3 689.21 C-2.82 486.18, -2.75 282.81, 0.15 -0.1" stroke="#e5e5e5" stroke-width="1" fill="none"></path></g><g stroke-linecap="round" transform="translate(71.60568383658966 240.6625715413462) rotate(0 38.50355239786856 38.50355239786856)"><path d="M28.05 1.23 C34.55 -1.23, 43.4 0.46, 50.34 3.01 C57.29 5.55, 65.39 10.42, 69.72 16.51 C74.06 22.6, 76.49 32.14, 76.36 39.53 C76.23 46.92, 73.36 55.04, 68.95 60.85 C64.54 66.65, 56.99 71.97, 49.92 74.36 C42.84 76.75, 33.81 77.5, 26.5 75.19 C19.19 72.87, 10.35 66.64, 6.08 60.47 C1.82 54.3, 0.67 45.61, 0.91 38.15 C1.15 30.69, 2.12 21.99, 7.51 15.69 C12.91 9.38, 28.21 2.67, 33.26 0.31 C38.31 -2.06, 37.75 0.93, 37.8 1.48 M39.93 -0.14 C46.95 -0.37, 54.7 3.5, 60.4 8.13 C66.09 12.76, 71.47 20.48, 74.13 27.65 C76.78 34.83, 78.53 43.98, 76.33 51.19 C74.14 58.4, 67.54 66.75, 60.98 70.92 C54.42 75.09, 44.59 76.59, 36.98 76.22 C29.37 75.85, 21.32 73.31, 15.33 68.7 C9.34 64.09, 3.09 55.73, 1.05 48.57 C-1 41.42, 0.66 32.47, 3.07 25.79 C5.47 19.11, 9.37 12.82, 15.47 8.51 C21.58 4.2, 35.9 1.19, 39.72 -0.08 C43.54 -1.35, 38.31 0.03, 38.37 0.92" stroke="white" stroke-width="4" fill="none"></path></g><g stroke-linecap="round" transform="translate(236.99325044404952 240.6625715413462) rotate(0 38.50355239786856 38.50355239786856)"><path d="M48.31 0.8 C55.5 2.02, 64.77 8.38, 69.58 14.27 C74.38 20.17, 76.9 28.66, 77.15 36.18 C77.39 43.7, 75.39 52.98, 71.07 59.39 C66.75 65.79, 58.54 71.85, 51.25 74.63 C43.95 77.4, 34.39 78.22, 27.28 76.04 C20.18 73.86, 13.19 67.36, 8.62 61.53 C4.04 55.71, 0.17 48.5, -0.17 41.09 C-0.5 33.68, 2.37 23.4, 6.61 17.08 C10.85 10.75, 17.84 5.67, 25.29 3.15 C32.74 0.63, 46.44 1.75, 51.3 1.96 C56.15 2.17, 54.74 3.75, 54.45 4.4 M36.89 -1 C44.25 -2.15, 54.08 0.82, 60.49 5.41 C66.9 10, 72.76 19.25, 75.35 26.54 C77.93 33.82, 77.99 42.29, 76 49.13 C74 55.97, 69.5 63, 63.37 67.6 C57.23 72.19, 47.02 76.36, 39.19 76.72 C31.35 77.08, 22.72 73.74, 16.34 69.77 C9.95 65.79, 3.44 59.94, 0.88 52.87 C-1.68 45.79, -1.55 34.62, 0.98 27.33 C3.51 20.03, 10.07 13.73, 16.06 9.1 C22.06 4.47, 33.43 0.72, 36.95 -0.45 C40.47 -1.63, 36.94 1.09, 37.2 2.03" stroke="white" stroke-width="4" fill="none"></path></g><g stroke-linecap="round" transform="translate(402.38081705150984 240.6625715413462) rotate(0 38.50355239786855 38.50355239786856)"><path d="M39.49 0.98 C46.48 0.86, 56.23 3.89, 62.14 8.49 C68.05 13.09, 72.92 21.47, 74.94 28.58 C76.96 35.69, 76.74 44.32, 74.23 51.16 C71.73 58, 66.04 65.28, 59.89 69.63 C53.74 73.97, 45.06 77.41, 37.35 77.22 C29.65 77.03, 19.5 73.18, 13.67 68.49 C7.83 63.8, 4.24 56.28, 2.33 49.1 C0.42 41.91, -0.36 32.51, 2.23 25.38 C4.82 18.24, 10.77 10.3, 17.89 6.29 C25 2.28, 39.49 2.02, 44.9 1.3 C50.31 0.57, 50.41 1.43, 50.35 1.93 M28.23 1.69 C34.7 -0.39, 44.5 0.72, 51.89 3.54 C59.27 6.36, 68.32 12.14, 72.52 18.6 C76.71 25.07, 78 35, 77.04 42.31 C76.09 49.63, 71.71 57.05, 66.79 62.52 C61.86 67.99, 54.75 73.44, 47.5 75.14 C40.25 76.83, 30.05 75.49, 23.29 72.69 C16.52 69.9, 10.87 64.3, 6.89 58.37 C2.91 52.44, -1.09 44.57, -0.59 37.12 C-0.09 29.66, 5.02 19.59, 9.91 13.62 C14.81 7.65, 25.31 3, 28.77 1.27 C32.23 -0.46, 30.22 2.55, 30.68 3.25" stroke="white" stroke-width="4" fill="none"></path></g><g stroke-linecap="round" transform="translate(567.7683836589699 240.6625715413462) rotate(0 38.50355239786856 38.50355239786856)"><path d="M56.24 3.59 C63.02 6.24, 69.15 13.06, 72.63 19.7 C76.11 26.33, 78.29 35.81, 77.1 43.4 C75.92 50.99, 70.98 59.66, 65.52 65.24 C60.07 70.81, 51.61 75.68, 44.35 76.84 C37.09 78, 28.62 75.42, 21.96 72.21 C15.29 69, 7.91 64.1, 4.35 57.57 C0.79 51.05, -0.53 40.57, 0.58 33.06 C1.69 25.56, 5.85 18, 11.01 12.54 C16.17 7.08, 23.17 1.17, 31.56 0.32 C39.95 -0.53, 55.9 5.55, 61.34 7.41 C66.79 9.28, 64.75 11.14, 64.25 11.52 M52.49 1.31 C59.53 3.72, 67.13 12.03, 71.28 18.52 C75.44 25.01, 77.68 33.13, 77.42 40.25 C77.16 47.38, 74.63 55.41, 69.73 61.25 C64.84 67.1, 55.63 73.23, 48.07 75.33 C40.5 77.44, 31.53 76.27, 24.34 73.86 C17.15 71.45, 9.07 67.16, 4.94 60.88 C0.81 54.6, -1.23 43.77, -0.44 36.2 C0.35 28.63, 4.94 21.32, 9.7 15.44 C14.45 9.57, 21.01 2.9, 28.07 0.94 C35.13 -1.03, 47.91 3.06, 52.07 3.65 C56.23 4.24, 53.18 3.96, 53.03 4.47" stroke="white" stroke-width="4" fill="none"></path></g><g stroke-linecap="round" transform="translate(733.15595026643 240.6625715413462) rotate(0 38.50355239786856 38.50355239786856)"><path d="M29.1 1.28 C35.93 -1.01, 45.48 0.62, 52.45 3.33 C59.41 6.03, 66.8 11.32, 70.88 17.5 C74.97 23.69, 77.39 32.74, 76.96 40.43 C76.53 48.12, 73.36 57.75, 68.32 63.63 C63.28 69.51, 53.96 73.92, 46.71 75.7 C39.46 77.49, 31.68 77.13, 24.82 74.35 C17.97 71.57, 9.58 65.51, 5.58 59.03 C1.58 52.55, 0.27 42.94, 0.82 35.49 C1.36 28.04, 2.63 20.35, 8.84 14.33 C15.05 8.32, 31.91 1.55, 38.09 -0.6 C44.26 -2.75, 46.02 0.56, 45.89 1.42 M35.62 0.75 C43.15 -0.12, 54.49 2.58, 61 6.79 C67.51 11, 72.43 19.13, 74.67 25.99 C76.91 32.84, 76.53 40.94, 74.46 47.91 C72.4 54.89, 68.11 63.24, 62.29 67.84 C56.47 72.43, 46.86 75.09, 39.55 75.48 C32.23 75.87, 24.7 73.86, 18.41 70.19 C12.11 66.52, 4.48 60.44, 1.78 53.44 C-0.91 46.45, 0.2 35.7, 2.23 28.23 C4.27 20.75, 8.02 13.04, 13.98 8.57 C19.93 4.11, 33.94 2.61, 37.96 1.41 C41.99 0.22, 38.16 1.2, 38.1 1.39" stroke="white" stroke-width="4" fill="none"></path></g><g stroke-linecap="round" transform="translate(898.54351687389 240.6625715413462) rotate(0 38.50355239786856 38.50355239786856)"><path d="M27.34 1.07 C33.96 -1.56, 44.43 -0.85, 51.42 1.7 C58.4 4.26, 65.14 10.1, 69.25 16.41 C73.36 22.71, 76.02 32.15, 76.07 39.52 C76.12 46.9, 73.95 54.55, 69.55 60.67 C65.14 66.78, 56.85 73.86, 49.64 76.21 C42.43 78.55, 33.32 77.23, 26.26 74.76 C19.21 72.29, 11.69 67.56, 7.29 61.37 C2.88 55.18, -0.34 45.23, -0.15 37.63 C0.04 30.04, 3.32 21.97, 8.41 15.82 C13.5 9.67, 25.97 3.32, 30.38 0.76 C34.8 -1.8, 34.55 -0.16, 34.9 0.45 M26.27 3.56 C32.83 0.87, 42.5 -0.01, 49.8 1.69 C57.09 3.4, 65.65 7.91, 70.05 13.82 C74.45 19.73, 76.29 29.53, 76.2 37.15 C76.12 44.76, 73.92 53.06, 69.55 59.5 C65.17 65.95, 57.02 73.3, 49.96 75.84 C42.9 78.38, 33.94 76.92, 27.18 74.76 C20.42 72.6, 13.92 68.82, 9.38 62.88 C4.84 56.94, 0.35 46.6, -0.07 39.12 C-0.49 31.64, 2.36 23.93, 6.86 18.01 C11.36 12.08, 23.68 5.96, 26.93 3.58 C30.19 1.19, 26.64 3.12, 26.4 3.69" stroke="white" stroke-width="4" fill="none"></path></g><g stroke-linecap="round" transform="translate(71.60568383658966 374.2402802447206) rotate(0 38.50355239786856 38.50355239786856)"><path d="M55.34 4.65 C61.94 7.29, 68.9 13.79, 72.44 20.28 C75.98 26.77, 77.64 35.98, 76.59 43.59 C75.55 51.21, 71.67 60.52, 66.17 65.97 C60.67 71.43, 50.96 75.15, 43.59 76.33 C36.21 77.51, 28.53 76.37, 21.93 73.03 C15.34 69.68, 7.48 63.04, 4.02 56.26 C0.56 49.47, 0.02 39.7, 1.18 32.32 C2.35 24.95, 5.71 17.4, 10.99 11.99 C16.28 6.58, 25.06 0.99, 32.9 -0.14 C40.74 -1.26, 53.67 3.89, 58.03 5.23 C62.39 6.57, 59.41 7.44, 59.06 7.9 M47.04 1.13 C54.39 2.02, 61.96 7.91, 66.71 13.2 C71.46 18.5, 74.65 25.71, 75.53 32.89 C76.41 40.08, 75.55 49.82, 71.99 56.31 C68.43 62.81, 60.77 68.6, 54.17 71.86 C47.56 75.11, 39.76 76.79, 32.36 75.85 C24.96 74.91, 14.95 71.66, 9.75 66.23 C4.55 60.79, 2.07 50.93, 1.16 43.25 C0.25 35.56, 0.58 26.47, 4.28 20.1 C7.98 13.73, 16.22 8.18, 23.35 5.04 C30.48 1.9, 43.23 2.08, 47.06 1.26 C50.88 0.44, 46.46 -0.55, 46.3 0.11" stroke="white" stroke-width="4" fill="none"></path></g><g stroke-linecap="round" transform="translate(236.99325044404952 374.2402802447206) rotate(0 38.50355239786856 38.50355239786856)"><path d="M33.96 -0.04 C40.85 -1.37, 49.76 1, 56.15 4.74 C62.55 8.47, 68.93 15.74, 72.33 22.38 C75.74 29.03, 77.86 37.11, 76.6 44.6 C75.34 52.1, 70.27 62.04, 64.79 67.35 C59.31 72.67, 51.12 75.56, 43.72 76.5 C36.32 77.45, 27.07 76.66, 20.38 73.04 C13.69 69.42, 6.75 61.63, 3.58 54.78 C0.41 47.92, 0.06 39.25, 1.36 31.88 C2.66 24.52, 5.04 15.97, 11.41 10.58 C17.77 5.18, 33.74 1.07, 39.56 -0.47 C45.38 -2.01, 46.43 0.57, 46.31 1.35 M25.1 2.71 C31.66 -0.77, 42.39 -1.75, 49.47 0.13 C56.56 2.01, 63.15 8.05, 67.6 13.98 C72.06 19.91, 75.92 27.95, 76.21 35.71 C76.5 43.46, 73.39 54.16, 69.34 60.5 C65.28 66.84, 58.44 71.06, 51.88 73.74 C45.31 76.42, 37.18 78.48, 29.96 76.57 C22.73 74.66, 13.49 68.09, 8.53 62.29 C3.57 56.5, 0.36 49.04, 0.2 41.81 C0.04 34.58, 3.38 25.33, 7.56 18.91 C11.73 12.5, 22.56 5.72, 25.24 3.3 C27.91 0.88, 23.34 3.89, 23.6 4.41" stroke="white" stroke-width="4" fill="none"></path></g><g stroke-linecap="round" transform="translate(402.38081705150984 374.2402802447206) rotate(0 38.50355239786855 38.50355239786856)"><path d="M41.51 -0.6 C48.81 -0.72, 58.01 3.41, 63.83 8.52 C69.66 13.64, 74.93 22.63, 76.46 30.1 C77.99 37.57, 75.87 46.42, 73 53.36 C70.13 60.3, 65.57 67.77, 59.23 71.73 C52.89 75.69, 42.5 77.85, 34.95 77.13 C27.41 76.41, 19.65 72.27, 13.94 67.39 C8.23 62.52, 2.44 55.29, 0.7 47.86 C-1.04 40.43, 0.49 29.91, 3.49 22.83 C6.49 15.76, 11.54 8.94, 18.71 5.41 C25.87 1.88, 41.01 2.15, 46.48 1.65 C51.96 1.16, 51.54 2.06, 51.55 2.44 M47.64 2.12 C54.31 3.09, 61.79 7.28, 66.62 12.72 C71.45 18.16, 75.97 27.35, 76.63 34.75 C77.3 42.16, 74.32 50.67, 70.6 57.15 C66.87 63.62, 61.26 70.24, 54.3 73.6 C47.34 76.96, 36.19 79, 28.81 77.31 C21.44 75.61, 14.94 69.36, 10.08 63.42 C5.21 57.48, 0.16 48.93, -0.36 41.66 C-0.89 34.38, 2.67 26.11, 6.92 19.75 C11.16 13.39, 18.23 6.84, 25.12 3.51 C32 0.17, 44.34 -0.11, 48.23 -0.26 C52.12 -0.42, 48.67 1.49, 48.44 2.58" stroke="white" stroke-width="4" fill="none"></path></g><g stroke-linecap="round" transform="translate(567.7683836589699 374.2402802447206) rotate(0 38.50355239786856 38.50355239786856)"><path d="M25.61 2.03 C32.01 -0.6, 41.86 0.12, 49.21 2.24 C56.57 4.35, 65.14 8.56, 69.74 14.72 C74.34 20.87, 76.76 31.47, 76.8 39.14 C76.85 46.81, 74.34 54.64, 70.02 60.74 C65.71 66.84, 58.15 73.39, 50.93 75.75 C43.71 78.11, 33.82 77.25, 26.7 74.92 C19.58 72.59, 12.77 67.79, 8.22 61.77 C3.67 55.75, -0.43 46.48, -0.61 38.79 C-0.79 31.09, 1.72 21.96, 7.12 15.6 C12.53 9.24, 27.11 3.02, 31.82 0.62 C36.52 -1.77, 35.46 0.5, 35.35 1.23 M56.01 2.52 C62.5 5.04, 68.16 13.06, 71.48 19.75 C74.81 26.44, 77.03 34.95, 75.96 42.65 C74.88 50.36, 70.17 60.48, 65.05 65.97 C59.92 71.47, 52.12 74.28, 45.19 75.65 C38.25 77.01, 30.18 77.37, 23.42 74.18 C16.67 70.99, 8.48 63.07, 4.65 56.52 C0.83 49.97, -0.74 42.04, 0.45 34.86 C1.65 27.68, 6.6 19.02, 11.85 13.44 C17.09 7.87, 24.96 2.84, 31.92 1.4 C38.89 -0.04, 49.71 4.26, 53.62 4.8 C57.53 5.34, 55.19 4.38, 55.38 4.62" stroke="white" stroke-width="4" fill="none"></path></g><g stroke-linecap="round" transform="translate(733.15595026643 374.2402802447206) rotate(0 38.50355239786856 38.50355239786856)"><path d="M47.31 0.07 C54.54 1.36, 63.29 7.73, 68.06 13.55 C72.83 19.38, 75.21 27.52, 75.93 35.03 C76.65 42.55, 76.14 52.09, 72.37 58.63 C68.59 65.16, 60.27 71.38, 53.29 74.25 C46.3 77.12, 37.83 77.48, 30.46 75.84 C23.1 74.2, 14.09 70.19, 9.1 64.41 C4.12 58.63, 1.15 48.81, 0.56 41.16 C-0.03 33.51, 1.81 24.76, 5.56 18.52 C9.31 12.28, 15.7 6.66, 23.06 3.74 C30.41 0.82, 44.81 1.21, 49.69 1 C54.58 0.8, 52.46 1.65, 52.36 2.53 M43.05 -0.36 C50.15 -0.11, 59.8 5.14, 65.25 10.32 C70.7 15.49, 74.29 23.2, 75.75 30.68 C77.21 38.17, 77.39 48, 74.02 55.23 C70.66 62.45, 62.3 70.49, 55.57 74.03 C48.85 77.58, 41.08 77.82, 33.65 76.5 C26.22 75.18, 16.33 71.14, 11.02 66.09 C5.7 61.05, 2.7 53.58, 1.76 46.21 C0.82 38.84, 2.11 29.08, 5.39 21.88 C8.68 14.68, 14.81 6.46, 21.47 3.01 C28.13 -0.44, 41.52 1.25, 45.33 1.19 C49.14 1.13, 44.77 2.12, 44.34 2.65" stroke="white" stroke-width="4" fill="none"></path></g><g stroke-linecap="round" transform="translate(898.54351687389 374.2402802447206) rotate(0 38.50355239786856 38.50355239786856)"><path d="M30.54 1.08 C37.65 -0.9, 48.37 -0.52, 55.31 2.8 C62.24 6.12, 68.53 14.27, 72.13 21.02 C75.73 27.78, 77.8 35.89, 76.9 43.33 C75.99 50.78, 71.97 60.25, 66.72 65.71 C61.47 71.16, 52.72 74.75, 45.38 76.08 C38.04 77.41, 29.54 76.88, 22.65 73.68 C15.77 70.49, 7.8 63.69, 4.06 56.91 C0.33 50.13, -0.95 40.51, 0.25 33.01 C1.45 25.51, 5.39 17.35, 11.27 11.92 C17.16 6.49, 30.72 2.21, 35.55 0.44 C40.38 -1.32, 39.95 0.7, 40.25 1.32 M39.45 -0.22 C46.33 -0.34, 56 2.75, 61.78 7.68 C67.56 12.6, 72.09 22.06, 74.13 29.34 C76.18 36.62, 76.25 44.33, 74.07 51.35 C71.9 58.38, 67.3 67.31, 61.07 71.5 C54.84 75.69, 44.43 76.76, 36.69 76.49 C28.95 76.21, 20.29 74.24, 14.63 69.84 C8.98 65.44, 4.69 57.43, 2.76 50.07 C0.82 42.72, 0.84 32.79, 3.04 25.69 C5.24 18.59, 9.64 11.71, 15.97 7.48 C22.3 3.24, 36.72 1.54, 41.01 0.28 C45.29 -0.99, 41.8 -0.73, 41.67 -0.12" stroke="white" stroke-width="4" fill="none"></path></g><g stroke-linecap="round" transform="translate(71.60568383658966 507.81798894809566) rotate(0 38.50355239786856 38.50355239786855)"><path d="M24.93 2.88 C31.25 -0.09, 39.93 -0.85, 47.31 1.05 C54.69 2.96, 64.28 8.4, 69.19 14.31 C74.1 20.23, 76.36 29.07, 76.76 36.54 C77.17 44.01, 75.72 52.7, 71.63 59.13 C67.54 65.55, 59.3 72.41, 52.23 75.08 C45.15 77.75, 36.42 77.18, 29.18 75.14 C21.93 73.1, 13.67 68.45, 8.74 62.83 C3.81 57.22, 0.04 49.09, -0.42 41.46 C-0.88 33.82, 1.14 23.84, 6 17.04 C10.85 10.23, 24.22 3.12, 28.7 0.64 C33.17 -1.85, 32.7 1.4, 32.85 2.15 M51.54 1.63 C58.52 3.49, 65.35 9.28, 69.77 15.59 C74.18 21.9, 78.33 31.48, 78.05 39.5 C77.77 47.51, 72.78 57.68, 68.08 63.68 C63.38 69.67, 57.08 73.62, 49.85 75.47 C42.63 77.32, 31.75 77.15, 24.73 74.79 C17.71 72.42, 11.64 67.5, 7.75 61.3 C3.85 55.11, 1.16 45.6, 1.37 37.61 C1.57 29.62, 4.34 19.27, 8.97 13.37 C13.59 7.47, 21.95 3.81, 29.13 2.22 C36.3 0.63, 48.45 3.66, 52.03 3.83 C55.61 4, 50.85 2.67, 50.6 3.24" stroke="white" stroke-width="4" fill="none"></path></g><g stroke-linecap="round" transform="translate(236.99325044404952 507.81798894809566) rotate(0 38.50355239786856 38.50355239786855)"><path d="M39.86 -0.93 C47.16 -1.16, 55.86 4.19, 61.82 8.93 C67.79 13.66, 73.47 20.29, 75.67 27.49 C77.87 34.7, 77.64 45.08, 75.04 52.17 C72.44 59.25, 66.22 65.81, 60.07 70.01 C53.91 74.22, 45.72 77.58, 38.1 77.41 C30.48 77.24, 20.47 73.76, 14.37 69 C8.26 64.24, 3.38 56.11, 1.48 48.85 C-0.42 41.59, 0.52 32.42, 2.96 25.46 C5.39 18.5, 9.78 11.23, 16.1 7.09 C22.41 2.94, 36.14 1.54, 40.85 0.6 C45.55 -0.35, 44.23 0.71, 44.32 1.39 M23.13 2.16 C29.44 -0.82, 38.73 0.37, 46.11 2.16 C53.48 3.95, 62.01 7.18, 67.37 12.89 C72.73 18.6, 77.63 28.89, 78.26 36.45 C78.9 44, 75.36 51.75, 71.2 58.23 C67.03 64.71, 60.02 72.18, 53.28 75.35 C46.55 78.52, 38.04 79.12, 30.78 77.26 C23.53 75.39, 15.07 69.94, 9.74 64.15 C4.4 58.37, -0.68 50.14, -1.22 42.53 C-1.76 34.93, 2.07 25.29, 6.49 18.53 C10.92 11.77, 22.36 4.44, 25.33 1.97 C28.3 -0.51, 24.1 3.04, 24.31 3.68" stroke="white" stroke-width="4" fill="none"></path></g><g stroke-linecap="round" transform="translate(402.38081705150984 507.81798894809566) rotate(0 38.50355239786855 38.50355239786855)"><path d="M20.24 3.91 C26.48 0.22, 38.03 -0.58, 45.61 0.72 C53.18 2.01, 60.4 6.38, 65.68 11.68 C70.95 16.97, 76.14 24.97, 77.27 32.5 C78.4 40.03, 75.95 50.22, 72.45 56.85 C68.94 63.48, 62.93 69.02, 56.25 72.28 C49.56 75.54, 39.92 77.42, 32.32 76.43 C24.73 75.43, 16 71.78, 10.67 66.32 C5.34 60.86, 1.36 51.36, 0.35 43.67 C-0.65 35.97, 0.55 26.82, 4.65 20.13 C8.75 13.44, 21 6.49, 24.96 3.53 C28.92 0.56, 28.15 2, 28.42 2.32 M27.76 -0.16 C34.77 -2.48, 46.28 -1.11, 53.33 2.06 C60.38 5.24, 66 12.47, 70.08 18.86 C74.16 25.25, 78.17 33.06, 77.82 40.39 C77.46 47.72, 72.65 56.73, 67.97 62.84 C63.3 68.95, 56.73 75.02, 49.75 77.06 C42.77 79.09, 33.22 78.19, 26.09 75.05 C18.95 71.9, 11.12 64.48, 6.96 58.18 C2.81 51.89, 0.86 44.37, 1.16 37.3 C1.47 30.23, 4.39 21.74, 8.79 15.77 C13.19 9.8, 24.24 3.55, 27.57 1.47 C30.9 -0.6, 28.55 2.8, 28.77 3.32" stroke="white" stroke-width="4" fill="none"></path></g><g stroke-linecap="round" transform="translate(567.7683836589699 507.81798894809566) rotate(0 38.50355239786856 38.50355239786855)"><path d="M46.61 1.81 C53.71 2.98, 62.46 7.18, 67.54 12.79 C72.62 18.4, 76.43 28, 77.1 35.49 C77.77 42.99, 75.29 51.28, 71.54 57.74 C67.79 64.19, 61.59 71.16, 54.59 74.22 C47.6 77.29, 37.08 77.9, 29.59 76.12 C22.09 74.34, 14.39 69.22, 9.61 63.55 C4.83 57.89, 1.72 49.5, 0.89 42.13 C0.06 34.77, 1.05 25.77, 4.63 19.36 C8.21 12.95, 14.97 6.65, 22.39 3.68 C29.8 0.71, 44.59 1.64, 49.11 1.55 C53.63 1.45, 49.94 2.6, 49.5 3.09 M33.74 1.21 C40.88 0.09, 50.99 0.99, 57.92 4.85 C64.86 8.72, 72.34 17.41, 75.34 24.39 C78.34 31.38, 77.84 39.35, 75.92 46.76 C74.01 54.17, 69.31 63.61, 63.85 68.85 C58.39 74.09, 50.6 77.65, 43.15 78.2 C35.71 78.76, 26.09 76.13, 19.19 72.19 C12.28 68.26, 4.6 61.62, 1.7 54.59 C-1.2 47.56, -0.41 37.69, 1.77 30 C3.95 22.32, 9.17 13.43, 14.77 8.47 C20.37 3.5, 31.75 1.58, 35.38 0.21 C39.01 -1.16, 36.59 -0.36, 36.55 0.26" stroke="white" stroke-width="4" fill="none"></path></g><g stroke-linecap="round" transform="translate(733.15595026643 507.81798894809566) rotate(0 38.50355239786856 38.50355239786855)"><path d="M44.08 0.5 C51.38 0.93, 59.08 5.52, 64.57 10.6 C70.05 15.68, 75.58 23.5, 77.01 30.98 C78.43 38.45, 76.36 48.7, 73.13 55.46 C69.89 62.23, 64.16 68.03, 57.61 71.56 C51.07 75.09, 41.49 77.34, 33.85 76.65 C26.21 75.95, 17.32 72.64, 11.78 67.39 C6.24 62.15, 1.92 52.83, 0.62 45.19 C-0.68 37.54, 0.7 28.1, 3.97 21.52 C7.25 14.94, 13.05 9.13, 20.29 5.72 C27.52 2.31, 42.21 1.68, 47.39 1.06 C52.58 0.44, 51.67 1.43, 51.39 2.01 M30.17 0.69 C37 -1.09, 45.18 1.26, 52.15 4.13 C59.11 7.01, 67.92 11.75, 71.96 17.93 C76.01 24.12, 76.88 33.47, 76.44 41.24 C75.99 49, 73.83 58.69, 69.3 64.55 C64.77 70.41, 56.65 75.03, 49.25 76.42 C41.85 77.81, 31.94 75.69, 24.9 72.91 C17.86 70.13, 11.11 65.68, 7.02 59.76 C2.92 53.83, 0.16 45.01, 0.32 37.38 C0.49 29.75, 3.21 19.81, 8.02 13.98 C12.83 8.15, 25.73 4.51, 29.17 2.42 C32.6 0.34, 28.5 0.81, 28.63 1.46" stroke="white" stroke-width="4" fill="none"></path></g><g stroke-linecap="round" transform="translate(898.54351687389 507.81798894809566) rotate(0 38.50355239786856 38.50355239786855)"><path d="M21.26 4.01 C27.49 0.26, 37.43 0.02, 44.82 1.19 C52.21 2.35, 60.18 5.72, 65.59 11.01 C70.99 16.3, 76.15 25.42, 77.25 32.92 C78.35 40.42, 75.75 49.45, 72.19 56.02 C68.63 62.59, 62.39 68.93, 55.89 72.33 C49.39 75.74, 40.73 77.48, 33.17 76.44 C25.62 75.4, 16.15 71.34, 10.58 66.09 C5.01 60.85, 0.65 52.45, -0.26 44.98 C-1.18 37.52, 0.49 28.4, 5.09 21.3 C9.69 14.21, 22.67 5.85, 27.34 2.39 C32.01 -1.08, 32.96 0.11, 33.11 0.53 M28.75 0.45 C36.05 -1.82, 47.27 0.81, 54.33 3.68 C61.38 6.54, 67.3 11.18, 71.09 17.65 C74.88 24.11, 77.35 34.63, 77.05 42.46 C76.76 50.29, 74.13 58.93, 69.35 64.62 C64.57 70.31, 56.14 74.82, 48.36 76.6 C40.59 78.38, 29.68 78.22, 22.72 75.3 C15.76 72.39, 10.12 65.85, 6.6 59.11 C3.07 52.37, 1.13 42.41, 1.56 34.86 C1.99 27.31, 4.36 19.53, 9.18 13.8 C14 8.07, 27.18 2.48, 30.48 0.48 C33.77 -1.51, 28.78 0.92, 28.96 1.81" stroke="white" stroke-width="4" fill="none"></path></g><g stroke-linecap="round" transform="translate(71.60568383658966 641.3956976514703) rotate(0 38.50355239786856 38.50355239786855)"><path d="M34.42 0.47 C41.47 -0.83, 52.07 1.2, 58.57 5.06 C65.08 8.93, 70.45 16.84, 73.44 23.67 C76.44 30.49, 78.1 38.77, 76.56 46.02 C75.02 53.26, 69.97 61.87, 64.19 67.12 C58.42 72.37, 49.44 76.86, 41.92 77.52 C34.4 78.18, 25.43 75.14, 19.05 71.1 C12.68 67.07, 6.61 59.96, 3.66 53.32 C0.7 46.68, -0.24 38.5, 1.34 31.26 C2.92 24.02, 7.23 15.23, 13.13 9.9 C19.03 4.57, 32.77 0.85, 36.75 -0.7 C40.72 -2.25, 37.14 -0.08, 36.98 0.61 M19.5 6 C25.52 2.2, 36.94 -0.54, 44.45 0.26 C51.97 1.05, 59.05 5.32, 64.57 10.76 C70.1 16.21, 75.95 25.43, 77.61 32.92 C79.28 40.42, 77.91 49.36, 74.57 55.72 C71.22 62.07, 64.22 67.42, 57.54 71.04 C50.87 74.66, 42.09 77.97, 34.53 77.43 C26.97 76.9, 17.99 73.16, 12.19 67.85 C6.39 62.55, 1.1 53.06, -0.29 45.61 C-1.68 38.15, 0.55 30.03, 3.85 23.12 C7.16 16.22, 16.77 6.92, 19.54 4.18 C22.31 1.45, 19.91 5.9, 20.48 6.72" stroke="white" stroke-width="4" fill="none"></path></g><g stroke-linecap="round" transform="translate(236.99325044404952 641.3956976514703) rotate(0 38.50355239786856 38.50355239786855)"><path d="M55.62 4.59 C62.23 7.24, 68.7 13.5, 72.32 20.11 C75.95 26.72, 78.47 36.72, 77.35 44.24 C76.23 51.77, 70.98 59.96, 65.62 65.24 C60.25 70.52, 52.36 74.63, 45.15 75.93 C37.94 77.23, 29.26 76.19, 22.37 73.03 C15.49 69.88, 7.63 63.55, 3.84 56.99 C0.05 50.43, -1.67 41.14, -0.37 33.66 C0.94 26.17, 6.29 17.48, 11.66 12.08 C17.03 6.69, 24.32 2.54, 31.87 1.3 C39.42 0.06, 52.38 3.73, 56.99 4.64 C61.59 5.55, 59.76 6.29, 59.49 6.76 M53.34 3.29 C60.3 5.35, 66.56 10.41, 70.52 16.76 C74.49 23.11, 77.2 33.57, 77.12 41.41 C77.03 49.25, 74.64 57.98, 70.02 63.8 C65.39 69.62, 57.1 74.35, 49.38 76.33 C41.67 78.31, 30.74 78.41, 23.7 75.69 C16.67 72.96, 10.87 66.63, 7.17 60 C3.47 53.37, 1.28 43.48, 1.5 35.91 C1.72 28.35, 3.85 20.48, 8.51 14.62 C13.17 8.76, 22.29 2.8, 29.46 0.75 C36.63 -1.29, 47.58 1.8, 51.52 2.36 C55.47 2.92, 53.08 3.68, 53.12 4.1" stroke="white" stroke-width="4" fill="none"></path></g><g stroke-linecap="round" transform="translate(402.38081705150984 641.3956976514703) rotate(0 38.50355239786855 38.50355239786855)"><path d="M43.35 0.07 C50.52 0.39, 58.53 5.69, 64.07 10.68 C69.61 15.67, 75.01 22.75, 76.61 30 C78.21 37.25, 76.89 47.09, 73.65 54.19 C70.41 61.3, 63.73 68.97, 57.17 72.62 C50.61 76.27, 41.63 77.15, 34.27 76.1 C26.92 75.05, 18.53 71.11, 13.03 66.31 C7.53 61.5, 2.85 54.53, 1.29 47.28 C-0.27 40.03, 0.55 29.99, 3.67 22.83 C6.8 15.67, 12.44 7.87, 20.06 4.32 C27.67 0.78, 43.4 1.48, 49.37 1.55 C55.34 1.63, 56.14 4.02, 55.88 4.78 M33.27 0.4 C40.3 -1.45, 48.65 0.65, 55.44 4.31 C62.23 7.97, 70.28 15.55, 74.02 22.34 C77.76 29.12, 79.13 38.04, 77.88 45.04 C76.63 52.04, 71.86 58.98, 66.5 64.35 C61.14 69.73, 53.24 75.63, 45.71 77.29 C38.18 78.95, 28.39 77.82, 21.32 74.31 C14.25 70.79, 6.77 62.94, 3.3 56.19 C-0.16 49.44, -0.68 41.36, 0.54 33.8 C1.75 26.25, 5.28 16.19, 10.58 10.87 C15.88 5.55, 28.52 3.31, 32.34 1.9 C36.16 0.48, 33.56 2.11, 33.48 2.37" stroke="white" stroke-width="4" fill="none"></path></g><g stroke-linecap="round" transform="translate(567.7683836589699 641.3956976514703) rotate(0 38.50355239786856 38.50355239786855)"><path d="M34.92 -0.13 C42.09 -1.33, 52.59 1.96, 58.99 5.89 C65.39 9.81, 70.48 16.63, 73.31 23.42 C76.14 30.2, 77.42 39.28, 75.96 46.61 C74.5 53.95, 70.31 62.32, 64.53 67.43 C58.74 72.53, 49 76.47, 41.24 77.23 C33.49 78, 24.21 75.9, 17.99 72.01 C11.78 68.13, 6.79 60.81, 3.97 53.91 C1.15 47.01, -0.35 38.1, 1.06 30.61 C2.47 23.12, 5.5 14.11, 12.41 8.96 C19.32 3.82, 36.35 0.97, 42.51 -0.27 C48.68 -1.5, 49.33 0.87, 49.41 1.54 M29.67 0.53 C36.33 -1.55, 46.41 1.03, 53.61 4.26 C60.8 7.5, 68.86 13.56, 72.83 19.93 C76.81 26.3, 78.54 35.01, 77.45 42.49 C76.36 49.97, 71.2 59.18, 66.3 64.81 C61.39 70.43, 54.9 74.86, 48.02 76.24 C41.14 77.61, 32.06 76.02, 25.01 73.06 C17.96 70.1, 9.63 64.9, 5.7 58.49 C1.76 52.08, 0.86 42.13, 1.39 34.59 C1.93 27.05, 3.97 18.68, 8.93 13.24 C13.89 7.8, 27.48 4.06, 31.16 1.96 C34.85 -0.14, 31.28 0.05, 31.05 0.64" stroke="white" stroke-width="4" fill="none"></path></g><g stroke-linecap="round" transform="translate(733.15595026643 641.3956976514703) rotate(0 38.50355239786856 38.50355239786855)"><path d="M43.45 1.07 C50.58 1.45, 60.09 5.02, 65.58 10.11 C71.07 15.2, 75.23 23.97, 76.42 31.62 C77.6 39.26, 75.98 49.29, 72.68 55.98 C69.38 62.67, 63.11 68.43, 56.6 71.75 C50.09 75.08, 41.03 76.68, 33.65 75.91 C26.27 75.15, 17.78 72.26, 12.32 67.17 C6.86 62.09, 2.2 53.11, 0.91 45.41 C-0.39 37.7, 1.4 27.79, 4.55 20.96 C7.69 14.12, 12.6 7.77, 19.79 4.4 C26.98 1.03, 42.44 0.8, 47.67 0.74 C52.9 0.69, 51.32 3.42, 51.18 4.05 M54.95 4.07 C61.68 7, 69.93 15.11, 73.77 21.85 C77.6 28.59, 79.11 37.48, 77.96 44.5 C76.81 51.52, 72.17 58.52, 66.88 63.97 C61.6 69.41, 53.76 75.43, 46.24 77.2 C38.73 78.96, 28.92 77.97, 21.81 74.55 C14.69 71.13, 7.11 63.38, 3.55 56.68 C0 49.98, -0.65 41.91, 0.46 34.34 C1.56 26.77, 4.97 16.65, 10.2 11.26 C15.42 5.87, 24.11 3.02, 31.8 1.99 C39.5 0.95, 52.69 4.75, 56.38 5.05 C60.08 5.35, 54.29 3.48, 53.98 3.77" stroke="white" stroke-width="4" fill="none"></path></g><g stroke-linecap="round" transform="translate(898.54351687389 641.3956976514703) rotate(0 38.50355239786856 38.50355239786855)"><path d="M52.6 2.82 C59.43 4.88, 65.89 11.06, 69.94 17.18 C73.99 23.31, 76.99 32.08, 76.9 39.6 C76.81 47.11, 74.19 56.24, 69.41 62.3 C64.63 68.36, 55.71 73.83, 48.21 75.96 C40.7 78.09, 31.19 77.71, 24.38 75.08 C17.57 72.44, 11.38 66.38, 7.34 60.14 C3.29 53.9, 0.09 45.31, 0.12 37.63 C0.15 29.96, 2.89 20.21, 7.53 14.09 C12.16 7.97, 19.81 2.67, 27.94 0.93 C36.08 -0.81, 50.72 2.49, 56.33 3.64 C61.95 4.8, 61.95 6.96, 61.65 7.84 M49.53 2.81 C56.8 4.64, 65.72 10.47, 70.39 16.36 C75.06 22.25, 77.81 30.66, 77.57 38.17 C77.33 45.67, 73.17 55.24, 68.94 61.38 C64.7 67.52, 58.81 72.83, 52.17 75.02 C45.53 77.21, 36.42 76.67, 29.08 74.51 C21.74 72.35, 12.78 67.99, 8.14 62.06 C3.5 56.13, 1.58 46.48, 1.27 38.91 C0.96 31.35, 2 22.62, 6.29 16.67 C10.58 10.71, 19.64 5.88, 27.01 3.17 C34.38 0.47, 46.96 0.47, 50.52 0.46 C54.07 0.44, 48.79 2.04, 48.33 3.08" stroke="white" stroke-width="4" fill="none"></path></g><g stroke-linecap="round" transform="translate(71.60568383658966 774.973406354845) rotate(0 38.50355239786856 38.50355239786856)"><path d="M35.9 -0.49 C43.05 -1.7, 52.35 1.43, 58.63 5.59 C64.92 9.76, 70.72 17.61, 73.59 24.48 C76.46 31.34, 77.47 39.71, 75.85 46.8 C74.24 53.89, 69.53 61.88, 63.89 67.04 C58.25 72.2, 49.54 77.04, 42 77.77 C34.47 78.5, 25.08 75.64, 18.69 71.43 C12.29 67.21, 6.66 59.48, 3.64 52.46 C0.61 45.45, -1.02 36.64, 0.54 29.35 C2.1 22.06, 5.97 13.46, 13 8.74 C20.03 4.03, 36.37 2.09, 42.73 1.07 C49.08 0.05, 50.91 1.99, 51.14 2.6 M38.69 1.39 C46.15 0.75, 55.48 3.51, 61.62 7.33 C67.75 11.15, 73.02 17.15, 75.51 24.29 C78 31.43, 78.76 42.47, 76.54 50.17 C74.33 57.87, 68.53 66, 62.21 70.49 C55.89 74.99, 46.19 76.97, 38.63 77.14 C31.06 77.31, 22.97 75.88, 16.8 71.51 C10.62 67.15, 4.12 58.02, 1.57 50.94 C-0.98 43.86, -0.9 35.99, 1.5 29.02 C3.9 22.04, 10.17 14.08, 15.98 9.11 C21.79 4.13, 32.63 0.65, 36.34 -0.83 C40.05 -2.31, 37.81 -0.68, 38.25 0.2" stroke="white" stroke-width="4" fill="none"></path></g><g stroke-linecap="round" transform="translate(236.99325044404952 774.973406354845) rotate(0 38.50355239786856 38.50355239786856)"><path d="M32.46 0.4 C39.35 -1.27, 49.55 0.48, 56.44 3.99 C63.33 7.5, 70.57 14.55, 73.79 21.47 C77.01 28.39, 77.29 37.97, 75.75 45.5 C74.21 53.02, 69.72 61.39, 64.57 66.62 C59.41 71.86, 52.15 75.82, 44.82 76.92 C37.48 78.02, 27.53 76.91, 20.58 73.24 C13.64 69.57, 6.51 61.89, 3.15 54.92 C-0.21 47.95, -0.94 38.9, 0.4 31.39 C1.75 23.88, 4.76 15.15, 11.22 9.86 C17.67 4.58, 33.8 0.99, 39.12 -0.32 C44.45 -1.62, 43.2 1.35, 43.18 2.03 M33.71 1.83 C40.77 0.09, 50.15 1.49, 56.44 4.86 C62.72 8.22, 67.94 15.38, 71.42 22.01 C74.9 28.64, 78.01 37.51, 77.32 44.62 C76.63 51.74, 72.71 59.38, 67.3 64.7 C61.88 70.03, 52.3 75.33, 44.82 76.58 C37.34 77.84, 29.24 75.65, 22.41 72.22 C15.57 68.8, 7.23 62.48, 3.81 56.04 C0.39 49.6, 0.45 41.2, 1.86 33.57 C3.28 25.94, 7.36 15.65, 12.3 10.26 C17.24 4.88, 28.23 2.53, 31.49 1.27 C34.76 0.01, 31.54 2.23, 31.88 2.68" stroke="white" stroke-width="4" fill="none"></path></g><g stroke-linecap="round" transform="translate(402.38081705150984 774.973406354845) rotate(0 38.50355239786855 38.50355239786856)"><path d="M51.93 2.33 C58.67 4.56, 65.92 11.71, 70.08 17.89 C74.24 24.07, 77.05 32.12, 76.88 39.41 C76.71 46.71, 73.66 55.49, 69.07 61.67 C64.48 67.85, 56.63 74.3, 49.35 76.47 C42.07 78.64, 32.43 77.59, 25.4 74.69 C18.36 71.79, 11.46 65.37, 7.15 59.05 C2.83 52.72, -0.61 44.23, -0.49 36.74 C-0.38 29.25, 3.22 19.88, 7.82 14.11 C12.43 8.35, 19.29 3.93, 27.14 2.14 C34.99 0.35, 49.61 2.59, 54.91 3.36 C60.2 4.13, 59.14 6.17, 58.91 6.77 M41.69 0.62 C48.79 0, 57.48 2.39, 63.33 7.15 C69.18 11.9, 74.86 21.4, 76.76 29.14 C78.67 36.89, 77.76 46.66, 74.75 53.61 C71.73 60.56, 65.03 66.75, 58.69 70.85 C52.35 74.96, 44.22 78.68, 36.73 78.22 C29.24 77.76, 19.66 72.78, 13.75 68.08 C7.84 63.38, 3 57.06, 1.28 50.04 C-0.43 43.03, 0.95 33.42, 3.45 25.99 C5.94 18.56, 10 9.88, 16.28 5.46 C22.56 1.04, 36.88 0.14, 41.13 -0.54 C45.37 -1.22, 41.96 0.77, 41.73 1.39" stroke="white" stroke-width="4" fill="none"></path></g><g stroke-linecap="round" transform="translate(567.7683836589699 774.973406354845) rotate(0 38.50355239786856 38.50355239786856)"><path d="M46.47 0.36 C53.8 1.33, 62.91 6.92, 67.85 12.67 C72.79 18.43, 75.57 27.29, 76.11 34.89 C76.65 42.49, 74.61 51.74, 71.1 58.26 C67.58 64.77, 61.77 70.89, 55.02 73.99 C48.26 77.09, 38.21 78.58, 30.56 76.86 C22.9 75.15, 14.17 69.53, 9.09 63.72 C4 57.91, 0.77 49.58, 0.04 42 C-0.7 34.42, 0.76 24.73, 4.69 18.23 C8.61 11.73, 15.65 5.43, 23.59 3 C31.53 0.57, 46.46 3.11, 52.33 3.66 C58.2 4.21, 59.02 5.82, 58.8 6.28 M54.51 3.95 C60.84 6.31, 66.55 13.72, 70.39 20.15 C74.24 26.57, 77.86 35.34, 77.59 42.51 C77.31 49.68, 73.86 57.54, 68.75 63.15 C63.64 68.77, 54.31 74.52, 46.91 76.19 C39.5 77.85, 31.34 76.18, 24.33 73.13 C17.32 70.08, 8.62 64.14, 4.83 57.9 C1.04 51.66, 0.59 43.36, 1.6 35.68 C2.6 28, 6.21 17.48, 10.85 11.81 C15.48 6.15, 22.32 2.86, 29.41 1.67 C36.49 0.47, 49.22 4.33, 53.35 4.65 C57.48 4.96, 54.47 3.3, 54.2 3.55" stroke="white" stroke-width="4" fill="none"></path></g><g stroke-linecap="round" transform="translate(733.15595026643 774.973406354845) rotate(0 38.50355239786856 38.50355239786856)"><path d="M26.44 2.5 C33.1 -0.26, 43.33 -0.85, 50.62 1.3 C57.92 3.45, 65.75 9, 70.22 15.41 C74.7 21.81, 77.56 32.04, 77.48 39.72 C77.4 47.4, 74.2 55.71, 69.76 61.49 C65.31 67.28, 58.12 72.22, 50.79 74.44 C43.46 76.67, 33.12 77.19, 25.76 74.85 C18.41 72.5, 11.12 66.37, 6.67 60.38 C2.21 54.39, -1.08 46.43, -0.99 38.89 C-0.9 31.35, 1.09 21.5, 7.23 15.15 C13.37 8.79, 29.9 3.14, 35.85 0.74 C41.81 -1.67, 43.05 0.04, 42.98 0.72 M56.23 2.63 C62.85 5.36, 70.24 14.18, 73.68 21.31 C77.11 28.45, 78.27 38.1, 76.85 45.46 C75.43 52.83, 70.47 60.13, 65.18 65.5 C59.89 70.87, 52.51 76.52, 45.13 77.7 C37.74 78.88, 27.64 75.9, 20.85 72.6 C14.06 69.29, 7.62 64.28, 4.37 57.87 C1.12 51.46, 0.44 41.98, 1.34 34.13 C2.24 26.29, 4.56 16.51, 9.79 10.81 C15.02 5.12, 24.87 1.03, 32.73 -0.02 C40.58 -1.07, 53.25 3.87, 56.93 4.53 C60.6 5.2, 55.41 3.54, 54.79 3.96" stroke="white" stroke-width="4" fill="none"></path></g><g stroke-linecap="round" transform="translate(898.54351687389 774.973406354845) rotate(0 38.50355239786856 38.50355239786856)"><path d="M39.57 -0.09 C46.64 -0.4, 54.92 3.36, 60.74 7.94 C66.56 12.53, 71.97 20.23, 74.5 27.42 C77.02 34.6, 78.15 43.85, 75.89 51.04 C73.63 58.23, 67.36 66.33, 60.94 70.57 C54.51 74.81, 44.95 76.75, 37.37 76.48 C29.78 76.21, 21.43 73.52, 15.41 68.95 C9.4 64.38, 3.41 56.24, 1.29 49.07 C-0.83 41.9, 0.31 32.78, 2.71 25.95 C5.11 19.11, 9.1 12.37, 15.7 8.06 C22.31 3.74, 37.59 1.2, 42.35 0.08 C47.1 -1.03, 44.24 0.55, 44.22 1.35 M53.78 4.88 C60.5 7.41, 69.06 14.1, 73.12 20.39 C77.18 26.68, 79.23 35.18, 78.14 42.63 C77.05 50.08, 71.8 59.59, 66.56 65.1 C61.33 70.61, 54.27 74.37, 46.75 75.72 C39.23 77.06, 28.23 76.16, 21.45 73.17 C14.67 70.19, 9.4 64.61, 6.06 57.8 C2.73 50.99, 0.85 39.84, 1.46 32.34 C2.07 24.83, 4.84 17.8, 9.75 12.75 C14.66 7.71, 23.28 3.62, 30.93 2.06 C38.59 0.5, 51.82 3.09, 55.68 3.38 C59.54 3.68, 54.52 3.35, 54.08 3.85" stroke="white" stroke-width="4" fill="none"></path></g><g transform="translate(918.5 917.3055555555555) rotate(0 50.00000000000003 12.5)"><text x="50" y="18" font-family="Virgil, Segoe UI Emoji" font-size="20px" fill="#e5e5e5" text-anchor="middle" style="white-space: pre;" direction="ltr">aadimator</text></g></svg>
