<svg version="1.1" xmlns="http://www.w3.org/2000/svg" viewBox="0 0 805.1860119047615 706.1443433029907" width="805.1860119047615" height="706.1443433029907">
  <!-- svg-source:excalidraw -->
  
  <defs>
    <style>
      @font-face {
        font-family: "Virgil";
        src: url("https://excalidraw.com/Virgil.woff2");
      }
      @font-face {
        font-family: "Cascadia";
        src: url("https://excalidraw.com/Cascadia.woff2");
      }
    </style>
  </defs>
  <rect x="0" y="0" width="805.1860119047615" height="706.1443433029907" fill="#14213d"></rect><g stroke-linecap="round" transform="translate(10 10) rotate(0 392.59300595238074 343.07217165149535)"><path d="M0.96 1.46 L785.02 -1.09 L783.81 690.13 L3.59 685.76" stroke="none" stroke-width="0" fill="#14213d"></path><path d="M-1.2 0.2 C292.61 -4.42, 585.58 -6.71, 783.75 -1.55 M783.84 -0.21 C787.06 229.34, 787.23 461.48, 786.45 684.69 M786.52 685.88 C511.96 684.14, 238.1 684.65, -1.28 686.6 M-1.37 686.08 C1.44 494.41, 2.8 302.97, -0.04 -0.85" stroke="#e5e5e5" stroke-width="4.5" fill="none" stroke-dasharray="8 12"></path></g><g stroke-linecap="round" transform="translate(217.02833763864612 46.55352305096352) rotate(0 171.53608582574768 41.658763700538714)"><path d="M0 0 C0 0, 0 0, 0 0 M0 0 C0 0, 0 0, 0 0 M-1.05 7.05 C0.86 5.18, 2.71 4.13, 4.45 1.16 M-0.44 6.61 C1.4 4.83, 2.8 2.87, 4.93 0.09 M0.41 12.78 C4.61 6.5, 6.02 2.39, 10.21 0.69 M-0.6 12.36 C3.94 7.9, 6.57 3.69, 10.56 -0.29 M1.15 17.12 C1.16 15.96, 6.52 9.38, 15.78 0.63 M0.79 18.24 C3.81 12.89, 8.33 8.15, 14.82 0.91 M-1.2 25.48 C5.9 14.89, 13.56 5.5, 22.65 0.82 M0.91 23.57 C4.97 18.85, 11.05 12.35, 21.12 0.07 M0.57 29.01 C4.74 23.64, 14.62 15.41, 27.72 1.74 M-0.77 30.98 C8.59 20.97, 14.44 13.7, 27.2 0.49 M-1.78 37.45 C7.97 29.94, 16.54 20.51, 32.14 0.82 M-0.16 36.92 C11.64 23.35, 22.71 10.78, 31.48 0.11 M2.02 43.69 C9.67 29.38, 20.87 17.86, 35.81 0.83 M0.36 41.99 C13.69 27.6, 25.92 14.38, 36.83 -0.54 M-1.35 48.24 C10.77 38.82, 17.63 27, 42.53 -2.08 M-0.96 49.13 C15.44 29.92, 31.77 12.95, 42.93 -0.43 M-0.31 55.95 C12.26 42.29, 23.82 28.16, 46.59 1.84 M0.39 54.23 C11.03 43.53, 20.06 32.8, 48 -0.07 M0.22 60.3 C22.32 38.24, 39.7 14.32, 53.94 -0.03 M-0.98 60.19 C11.99 46.84, 23.11 34.78, 53.19 0.38 M-0.69 68.14 C21.4 39.91, 45.73 17.72, 56.78 1.52 M-0.74 67.49 C14.23 51.07, 26.42 34.75, 58.36 1.11 M1.91 72.15 C14.48 54.62, 30.23 37.63, 62.7 1.63 M0.31 72.44 C18.42 51.91, 38.01 30.65, 64.4 0.53 M0.77 79.17 C23.3 51.17, 42.7 28.63, 69.29 1.46 M-0.72 79.37 C14.89 59.93, 32.49 43.22, 69.02 -0.71 M1.54 82.35 C24.17 56.79, 43.92 32.02, 73.3 0.38 M1.54 84.53 C22.81 57.99, 47.24 32.57, 75.09 0.12 M4.72 85.48 C33.62 52.31, 58.73 23.53, 81.23 0.04 M5.77 84.31 C34.63 52.42, 62.03 20.37, 78.45 -0.13 M11.65 84.47 C40.18 53.54, 68.54 22.04, 86.46 0.51 M11.25 84.44 C34.34 59.59, 55.37 33.8, 84.2 -0.65 M15.49 84.11 C31.54 63.68, 49.32 45.11, 91.88 0.44 M17.92 84.64 C39.4 60.21, 60.16 34.67, 90.55 -0.66 M23.92 82.77 C42.86 62.63, 61.68 38.23, 95.04 1.12 M22.37 85.09 C50.14 51.57, 79.09 19.51, 95.09 0.49 M28.26 84.46 C49.86 62.41, 68.73 37.87, 98.72 -1.32 M28.03 84.31 C55.93 52.72, 82.94 21.31, 100.63 -0.73 M34.09 83.02 C54.27 59.6, 74.75 36.38, 108.11 0.13 M33.07 83.19 C50.08 65.93, 65.84 47.78, 105.5 -0.08 M37.71 82.95 C64.74 54.47, 90.02 24.83, 109.41 -0.42 M38.05 83.57 C57.15 63.94, 75.33 42.12, 111.38 0.35 M44.07 83.79 C63.72 61.41, 81.79 38.27, 114.29 -0.97 M42.95 84.53 C68.63 55.52, 95.29 25.98, 116.94 0.88 M48.65 84.53 C68.59 60.44, 87.44 39.49, 121.81 0.78 M48.34 84.51 C75.04 55.11, 100.82 25.89, 120.92 0.35 M53.95 84.45 C70.45 64.2, 88.37 42.76, 128.32 -0.17 M54.99 84.01 C69.33 64.55, 87.76 45.14, 127.28 0.41 M60.12 83.26 C86.65 54.81, 110.39 24.88, 131.94 0.72 M59.69 83.57 C81.86 57.41, 104.9 30.24, 132.78 0.12 M66.04 85.21 C90.85 54.73, 112.13 29.77, 139.18 1.65 M65.57 83.63 C82.66 63.45, 99.48 43.68, 136.86 -0.06 M68 83.25 C92.87 58.31, 114.31 32.21, 142.04 -1.35 M69.94 84.54 C99.01 51.28, 127.73 17.85, 143.88 -0.38 M76.8 83.08 C103.38 52.52, 132.86 19.93, 148.69 1.66 M74.52 84.45 C94.26 61.6, 113.18 40.93, 149.03 0.21 M80.37 83.39 C105.52 54.47, 132.71 23.83, 152.52 -1.34 M79.35 85.3 C98.98 64.41, 118.15 41.55, 154.56 -0.09 M84.89 83.87 C107.92 58.4, 128.69 33.72, 158.85 -0.17 M85.03 84.67 C105.81 61.25, 126.64 36.92, 159.6 0.08 M89.47 85.43 C108.72 62.59, 125.18 42.63, 165.99 1.62 M90.57 83.81 C115.67 53.86, 142.89 24.15, 164.54 -0.88 M95.18 82.23 C123.24 55.53, 146.72 27.08, 167.87 -1.06 M95.71 83.53 C124.67 50.95, 154.27 17.82, 168.75 0.48 M99.75 85.89 C121.26 60.34, 143.71 38.25, 175.21 1.23 M100.68 84.15 C128.17 51.67, 156.77 21.26, 174.98 0.5 M106.68 85.58 C127.12 58.25, 150.34 35.97, 178.12 0.62 M106.59 83.42 C122.56 65.5, 138.1 48.13, 179.09 0.45 M111.85 84.14 C137.44 58.25, 160.04 29.95, 187.19 0.01 M113.16 84.48 C129.46 65.13, 144.89 47.05, 186.42 0.37 M116.64 82.21 C142.54 58.16, 166.22 30.71, 192.17 1.26 M117.09 83.78 C135.14 63.88, 153.36 43.38, 191.6 1.11 M122.58 82.34 C148.83 52.92, 175.55 25.21, 195.06 1.26 M121.86 85.05 C149.85 53.67, 177.45 21.29, 196.83 0.17 M128.46 85.17 C148.76 61.3, 169.16 36.15, 200.77 0.09 M128.05 83.17 C152.19 56.6, 178.08 29.46, 201.72 -0.3 M132.96 85.47 C153.62 58.49, 175.82 36.05, 206.2 1.12 M133.1 84.2 C157.82 55.27, 181.04 29.06, 207.57 0.4 M139.75 84.35 C154.01 64.78, 170.43 46.06, 210.89 -0.84 M139.7 83.22 C152.94 67.24, 168.14 49.94, 211.24 -0.48 M144.16 85.32 C161.56 65.72, 174.37 45.24, 218.13 0.55 M143.54 84.37 C161.16 64.67, 177.34 45.71, 217.41 -1.31 M149.63 83.2 C168.09 59.57, 188.02 38.47, 221.63 -0.67 M149.03 85.44 C171.25 59.41, 192.91 33.77, 222.41 -0.01 M153.59 84.48 C178.04 55.48, 200.65 27.77, 226.58 1.3 M154.31 84.11 C181.28 54.17, 210 21.41, 228.52 -0.26 M161.4 83.72 C186.16 54.06, 215.19 20.71, 232.33 0.24 M160.41 84.14 C188.51 50.59, 215.46 19.22, 233.83 0.6 M166.8 84.38 C192.73 53.32, 220.43 20.41, 236.82 -1.31 M164.89 84.03 C186.85 58.47, 210.68 30.83, 237.84 0.11 M170.55 82.98 C194.23 54.75, 222.76 25.21, 242.49 0.39 M169.63 85 C194.54 57.35, 216.64 31.05, 244.56 0.96 M177.55 85.23 C194.71 63.42, 216.01 39.74, 250.24 -1.39 M175.19 84.87 C204.52 49.92, 232.02 18.2, 249.65 1.17 M179.45 86.13 C209.57 52.9, 239.05 18.11, 255.81 1.05 M180.57 84.05 C202.18 61.1, 223.91 37.89, 254.03 0.76 M187.79 82.09 C201.74 66.76, 216.5 49.43, 260.48 1.99 M187.55 83.44 C211.62 53.57, 238.52 23.9, 259.71 -0.32 M192.63 83.11 C206.2 65.48, 222 48.54, 264.16 -1.66 M192.49 84.39 C216.28 53.88, 243.11 25.65, 266.09 -0.23 M195.65 84.81 C224.14 53.54, 249.41 21.09, 272.02 1.86 M196.67 84.64 C224.8 53.66, 253.04 21.91, 269.81 0.71 M200.81 84.67 C223.99 57, 247.17 32.1, 275.62 -0.83 M202.07 84.24 C225.17 56.34, 249.17 30.38, 275 -0.11 M207.45 82.04 C229.44 61.74, 249.49 35.36, 279.53 0.02 M207.69 83.48 C225.14 66.54, 239.43 48.06, 281.16 0.44 M212.92 82.38 C232.42 62.45, 247.26 41.98, 286.44 1.27 M213.39 84.89 C232.9 60.99, 254.48 36.88, 285.42 -0.92 M217.69 85.28 C247.61 53.96, 272.4 20.69, 291.84 -0.88 M218.15 83.07 C237.67 62.16, 256.88 39.73, 290.37 0.14 M224.04 84.64 C236.78 67.37, 251.84 49.75, 297.07 1.17 M223.93 84.73 C242.31 62.01, 262.58 40.27, 296.4 -0.59 M229.08 84.79 C250.02 59.5, 266.62 38.22, 300.01 -1.4 M229.98 84.58 C252.01 58.26, 275.13 32.55, 301.47 0.16 M235.46 84.63 C253.51 62.04, 267.93 43.19, 308.14 -1.76 M234.6 85.26 C260.94 53.46, 288.74 21.3, 307.43 -0.97 M240.48 85.7 C259.88 61.4, 280.41 38.79, 313.25 -1.28 M239.53 83.3 C265.87 54.81, 290.29 25.85, 311.88 -0.02 M246.67 84.37 C262.4 63.96, 280.15 44.81, 316.47 -1.38 M245.7 85.05 C263.13 62.73, 281.96 42.53, 318.39 0.21 M250.98 83.91 C271.57 61.31, 289.75 40.35, 322.98 0.56 M249.56 84.61 C280.6 51.25, 307.77 18.67, 322.42 0.13 M255.33 82.67 C274.69 61.57, 296.3 37.68, 327.06 -0.69 M254.93 83.79 C272.64 65.43, 287.8 45.76, 329.56 -0.72 M259.16 82.91 C278.5 61.13, 298.06 39.09, 334.79 1.98 M260.58 84.75 C280.38 60.41, 299.12 38.16, 333.36 0.26 M265.28 83.18 C294.02 52.01, 318.85 21.06, 341.12 0.09 M265.4 84.23 C290.98 55.62, 317.23 24.82, 339.63 -1.31 M269.8 82.73 C285.99 65.29, 301.65 45.52, 343.83 2.46 M271.45 83.76 C299.97 50.76, 329.12 17.9, 343.66 -0.13 M278.57 82.33 C294.65 61.8, 313.34 41.16, 345.45 7.11 M277.64 84.25 C302.21 53.03, 328.81 23.73, 343.15 6.52 M281.86 84.47 C296.9 67.08, 313.05 47.02, 342.89 12.05 M281.51 84.05 C295.4 68.68, 307.51 54.73, 343.19 13.35 M287.42 85.39 C303.61 69.45, 319.29 49.68, 344.26 18.77 M287.57 84.8 C298.77 70.88, 309.31 57.97, 344.23 18.38 M291.16 83.3 C310.63 60.89, 329.13 40.63, 345.96 23.77 M293.12 85.4 C311.65 62.61, 330.51 40.69, 344.27 24.31 M298.24 82.43 C317.33 63.26, 335.89 40.21, 343.24 30.76 M298.53 83.93 C315.33 64.33, 333.16 43.46, 344.73 30.47 M301.71 85.2 C317.8 69.3, 332.87 50.92, 342.73 39.49 M303.08 83.63 C315.22 69.14, 329.62 54.16, 344.08 37.52 M307.63 84.32 C317.62 75.31, 325.02 68.55, 344.33 42.13 M309.26 84.78 C322.66 69.27, 335.64 53.71, 344.96 43.6 M313.7 82.95 C322.75 71.4, 331.57 61.28, 343.07 51.67 M312.57 84.69 C324.75 71.61, 333.89 61.54, 343.22 50.58 M318.39 82.77 C325.8 75.17, 332.05 69.05, 345.66 54.73 M319.89 83.59 C324.84 78.01, 330.62 70.27, 343.64 54.67 M323.53 84.17 C332.68 77.18, 338.49 67.98, 345.04 59.8 M323.2 84.62 C329.34 78.38, 336.16 71.92, 343.71 62.45 M331.48 82.29 C333.85 78.14, 340.22 71.85, 344.9 69.98 M329.98 83.7 C332.35 80.75, 335.89 76.36, 343.26 67.46 M335.46 83.58 C337.01 81.23, 338.64 79.09, 345.08 74.95 M334.92 83.78 C337.74 81.21, 339.55 78.31, 343.73 74.24 M340.85 84 C341.24 82.76, 342.55 81.62, 343.26 80.59 M340.45 83.83 C341.44 82.39, 342.54 81.45, 343.95 80.01" stroke="#fca311" stroke-width="0.5" fill="none"></path><path d="M-0.59 -0.64 C95.14 0.91, 191.6 2.42, 342.28 0.72 M-0.4 0.62 C105.58 1.2, 211.08 1.39, 342.83 -0.49 M343.56 -1.88 C341.89 27.29, 342.73 50.6, 343.62 84.74 M343.49 -0.61 C342.85 23.61, 342.35 48.08, 342.98 82.63 M344.24 83.71 C227.33 85.32, 110.33 83.69, -0.23 82.66 M342.86 83.01 C257.46 85.32, 170.6 84.73, 0.06 83.86 M0.97 81.55 C0.74 51.72, -0.43 20.04, -1.23 0.2 M-0.3 83.27 C0.24 58.55, 0.05 31.78, -0.56 0.52" stroke="#e5e5e5" stroke-width="1" fill="none"></path></g><g stroke-linecap="round" transform="translate(222.54199754018885 41.03986314942182) rotate(0 171.53608582574768 41.658763700538714)"><path d="M1.89 0.77 L342.57 -0.92 L342.27 82.8 L-1.09 84.72" stroke="none" stroke-width="0" fill="#fca311"></path><path d="M-0.64 -0.63 C73.59 1.06, 149.97 0.22, 343.79 0.11 M0.62 -0.17 C134 0.93, 268.07 1.11, 342.58 0.04 M341.19 -0.41 C345.25 17.65, 343.08 34.98, 344.49 83 M342.46 0.02 C343.59 22.15, 344.38 45.18, 342.39 83.69 M343.47 83.44 C266.33 84.29, 187.02 85.09, -0.65 82.67 M342.77 83.92 C274.54 82.56, 205.05 82.66, 0.55 83.92 M-1.77 84.8 C0.7 51.21, 1.63 17.24, 0.2 0.1 M-0.05 84.26 C0.99 52.1, -0.38 18.82, 0.52 -0.39" stroke="#e5e5e5" stroke-width="1" fill="none"></path></g><g transform="translate(229.41705494828375 57.27452841507113) rotate(0 162.34665265651117 28.487242824633114)"><text x="162.34665265651117" y="39.97448564926621" font-family="Virgil, Segoe UI Emoji" font-size="45.08948541705373px" fill="#ffff" text-anchor="middle" style="white-space: pre;" direction="ltr">#30DaysOfQC</text></g><g stroke-linecap="round" transform="translate(105.18953247527236 219.77264561211047) rotate(0 303.74585910527986 211.20679808754213)"><path d="M0 0 C0 0, 0 0, 0 0 M0 0 C0 0, 0 0, 0 0 M0.82 14.56 C3.97 7.46, 7.34 7.79, 10.34 -1.1 M1.49 10.87 C3.88 8.75, 4.26 6.71, 9.6 0.97 M-2.86 20.22 C3.87 15.19, 15.17 9.23, 21.37 1.99 M-0.39 23.58 C2.82 18.62, 8.18 11.8, 22.36 -0.73 M1.97 37.68 C8.3 24.32, 24.23 9.07, 34.09 -2.97 M-2.02 37.4 C10.79 20.85, 26.27 8.84, 31.33 0.86 M-1.61 46.36 C5.26 41.3, 20.29 25.98, 45.19 -3.5 M1.82 48.61 C17.64 31.34, 31.75 12.9, 43.17 -0.06 M1.92 63.32 C19.35 44.88, 38.68 21.33, 52.26 -1.06 M-1.82 59.61 C12.14 48.23, 23.42 31.32, 51.84 1.07 M3.61 76.67 C15.48 56.73, 30.05 42.05, 66 -3.61 M-1.2 73.69 C19.55 48.64, 39.88 26.24, 62.16 1.65 M-2.42 86.01 C25.62 49.89, 58.82 20.21, 74.48 -1.82 M-0.73 85.97 C26.75 56.13, 47.39 27.18, 73.71 -2 M0.68 94.98 C19.93 73.41, 37.24 52.99, 87.33 -1.34 M-1.69 98.23 C19.21 77.64, 35.71 54.75, 84.72 -0.51 M3.31 108 C27.53 78.48, 53.47 46.61, 92.08 0.96 M0.24 110.05 C31.49 75.19, 59.82 41.62, 95.94 -1.36 M1.75 118.49 C35.43 83.77, 67.12 41, 106.32 0.71 M-1.08 121.45 C24.84 96.81, 45.66 73.76, 106.47 1.32 M-2.94 137.68 C34.77 94.52, 66.39 57.61, 117.36 2.61 M0.25 131.99 C28.46 99.12, 59.99 63.8, 117.06 1.54 M-1.38 147.03 C49.44 87.63, 103.59 32.97, 129.08 1.07 M1.41 147.66 C43.69 101.22, 83.61 54.45, 128.54 0.61 M-3.75 155.28 C50.37 103.51, 97.29 45.68, 138.14 0.53 M-1.76 159.63 C34.68 123.61, 64.46 85.12, 137.75 1.61 M-2.83 169.09 C50.05 110.93, 101.81 56.89, 149.14 -3.09 M-1.07 171.78 C53.43 112.75, 106.69 51, 148.2 1.19 M-2.73 184.26 C29.01 146.22, 63.31 108.15, 161.62 -0.86 M0.95 183.01 C34.9 139.27, 68.12 101.9, 157.3 -0.35 M0.88 197.5 C51.87 137.2, 104.07 75.69, 168.58 1.5 M1.73 194.16 C45.85 139.91, 89.8 87.81, 170.67 -1.07 M-2.53 206.71 C36.12 167.63, 77.39 120.32, 179.34 -2.01 M1.07 206.78 C64.04 129.29, 130.32 51.17, 178.83 0.84 M2.67 217.48 C77.01 134.19, 151.81 52.92, 190.1 0.31 M0.05 219.36 C58.85 151.22, 119.26 81.98, 189.59 -0.31 M1.53 232.83 C62.59 152.18, 126.28 82.7, 200.71 0.01 M0.31 232.26 C62.92 156.07, 125.63 81.85, 201.93 -0.47 M-2.24 246.47 C76.74 155.41, 156.65 62.09, 211.42 -0.48 M0.27 244.64 C73.11 160.66, 141.54 83.24, 212.99 0.07 M-0.44 257.69 C67.88 175.18, 133.54 100.85, 220.39 -0.52 M0.56 256.2 C74.87 172.1, 147.97 88.86, 223.66 -1.17 M0.32 265.77 C78.31 175.87, 153.25 91.01, 231.87 -1.18 M0.45 269.02 C56.71 203.43, 115.97 135.21, 232.7 0.63 M-1.89 280.48 C75.56 192.83, 152.27 106.97, 242.91 -0.09 M-0.2 281.81 C70.83 196.01, 141.76 115.03, 244.48 0.26 M-0.1 293.27 C72.03 208.94, 148.21 119.69, 256.65 -1.75 M-0.91 293.66 C98.74 181.36, 199.04 67.28, 253.61 -0.14 M0.51 302.95 C96.2 195.46, 189.83 88.97, 265.53 1.75 M0.09 304.73 C98.28 195.01, 195.04 84.82, 264.89 -0.36 M-1.73 315.86 C100.24 199.68, 201.61 80.58, 277.24 -2.02 M-0.77 316.77 C107.81 191.24, 214.16 69.64, 276.06 -0.61 M0 328.29 C63.56 255.92, 124.08 188.22, 285.11 -0.72 M0.35 328.33 C92.56 223.77, 184.88 117.49, 285.38 -0.34 M1.12 341 C113.91 216.82, 224.29 88.15, 296.52 -1.65 M-1.16 341.08 C63.46 269.25, 127.75 194.47, 297.33 0.68 M0.02 355.2 C93.33 245.77, 186.15 139.26, 305.97 -1.72 M0.62 353.63 C58.43 284.97, 121.13 212.91, 308.19 -0.25 M-0.72 366.01 C77.81 274.38, 156.51 183.9, 317.25 -0.38 M0.55 365.36 C63.02 293.92, 128.52 217.54, 318.38 -0.22 M-1.32 377.68 C71.07 292.97, 148.16 207.41, 329.85 0.89 M0.28 377.93 C88.12 281.48, 173.03 182.97, 328.18 -0.96 M0.04 389.45 C80.52 298.05, 157.16 211.53, 338.62 -1 M-0.11 390 C72.4 309.55, 144.76 227.74, 339.14 -0.84 M-1.03 403.46 C70.27 320.53, 143.95 238.04, 350.53 -1.02 M-0.99 402.26 C74.37 320.99, 147.43 236.7, 348.81 0.2 M-1.48 415.1 C95.39 302.73, 193.87 189.89, 360.11 1.4 M-0.53 415.2 C86 315.7, 171.49 219.07, 359.66 0.09 M2.61 424.77 C105.63 304.37, 210.06 182.51, 369.68 0.42 M1.66 424.21 C146.6 256.69, 292.12 89.35, 370.3 -0.04 M13.33 425.34 C103.83 323.03, 192.6 219.64, 380.82 -0.17 M12.91 424.04 C95.42 333.26, 178.02 238.5, 381.25 0.43 M21.92 425.45 C132.26 301.46, 239.12 181.98, 392.28 0.95 M23.93 424.99 C94.5 338.9, 169.54 252.85, 392.64 -0.01 M34.1 425.42 C140.22 295.94, 251.8 170.28, 401.64 -0.7 M33.96 425.03 C130.93 319.15, 224.21 210.5, 402.56 0.65 M44.02 423.82 C144.63 309.63, 245.46 194.6, 413.41 0.5 M43.8 423.68 C141.73 313.22, 238.21 201.1, 413.37 0.78 M55.18 423.7 C176.27 284.52, 297.85 143.31, 424.77 1.01 M55.73 424.37 C189.21 273.36, 320.28 121.72, 423.74 0.77 M66.12 422.91 C174.05 294.24, 287.8 164.21, 433.62 0.76 M65.53 424.21 C154.63 320.3, 243.99 216.95, 434.89 0.7 M75.32 423.63 C199.6 285.84, 319.04 148.1, 446.68 -0.08 M76.73 424.35 C181.76 297.55, 289.59 173.59, 445.84 -0.45 M86.09 422.66 C175.07 320.42, 266.59 220.1, 455.66 -1.25 M87.85 424.45 C181.7 318.38, 276.59 209.95, 456.48 -0.72 M98.69 424.07 C240.64 262.25, 382 101.74, 467.68 0.73 M97.12 423.56 C235.3 265.9, 370.89 109.95, 465.97 -0.73 M108.82 423.18 C244.66 266.92, 380.45 110.73, 478.19 -0.34 M108.8 424.16 C200.86 319.58, 293.98 213.53, 477.48 0.36 M118.92 425.59 C235.5 293.31, 350.28 163.4, 488.71 -1.29 M118.76 423.37 C201.88 325.46, 285.93 228.01, 486.92 -0.68 M130.27 424.73 C266.26 266.88, 404.71 107.08, 498.88 0.8 M128.84 423.45 C207.98 330.75, 289.43 237.81, 498.93 -0.71 M141.5 424.12 C220.07 330.48, 302.86 234.49, 508.19 -1.15 M140.38 424.63 C237.7 314.22, 332.87 204.14, 509.16 -0.56 M150.26 424.5 C285.31 271.97, 419.61 120.19, 520.87 1.28 M150.96 424.36 C297.75 259.07, 441.39 92, 520.32 0.59 M161.36 423.73 C293.76 274.96, 421.01 127.81, 531.57 -0.09 M160.78 424.54 C304.8 261.39, 447.17 96.83, 530.83 -0.32 M171.78 423.82 C250.37 331.99, 333.62 238.35, 539.92 -1.3 M171.93 425.18 C258.62 322.76, 347.8 220.63, 541.24 0.25 M181.42 424.63 C266.21 328.27, 349.69 231.61, 552.17 0.8 M181.39 425.37 C286.65 303.8, 391.02 184.34, 550.95 0.42 M194.05 425.08 C297.54 304.35, 401.22 185.85, 560.49 -1.13 M192.99 423.89 C297.92 304.06, 401.54 184.21, 561.34 0.22 M202.43 423.26 C317.09 294.65, 430.85 166.02, 573.53 0.57 M204.06 425.04 C331.59 275.49, 460.09 127.8, 572.59 -0.83 M214.97 423.48 C306.8 313.08, 401.62 202.4, 582.19 0.45 M214.26 424.24 C313.83 313.34, 410.57 201.99, 582.89 1.12 M225.41 423.33 C344.91 288.32, 465.87 149.18, 592.81 -0.82 M223.97 424.88 C349.05 280.61, 475.4 135.54, 592.68 0.89 M233.74 423.24 C342.11 295.65, 451.02 171.67, 602.47 1.63 M235.81 424.77 C374.69 262.73, 515.13 100.39, 603.81 0.84 M244.7 423.12 C379.36 268.23, 512.26 114.71, 613.55 3.9 M246.62 424.98 C369.6 277.56, 495.63 131.55, 611.54 3.67 M256.64 425.5 C372.34 287.71, 490.24 151.19, 611.67 17.23 M256.99 424.32 C356.67 309.09, 453.48 196.83, 611.14 16.48 M266.47 425.84 C402.4 265.29, 538.39 109.23, 611.4 27.46 M266.4 424.96 C399.74 268.47, 535.63 112.36, 611.43 28.8 M277.76 425.18 C388.04 295.37, 497.29 171, 610.6 39.69 M278 423.68 C347.93 338.81, 419.15 256.66, 611.39 40.56 M289.61 423.67 C387.8 314.66, 482.33 204.54, 612.22 53.29 M288.96 423.94 C371.43 328.32, 452.83 233.43, 612.22 52.45 M298.18 423.68 C375.76 340.19, 452.86 252.82, 612.59 65.77 M298.27 423.92 C397.98 307.23, 498.46 193.33, 611.79 64.33 M308.51 423.26 C389.35 333.08, 470.28 241.35, 611.93 76.09 M310.51 423.76 C381.01 344.16, 451.71 261.04, 612.16 76.8 M319.86 422.43 C391.75 345.33, 464.25 267.08, 612.56 89.85 M319.89 425.13 C422.88 307.03, 522.33 191.77, 611.9 89.26 M330.12 423.73 C445.11 298.89, 556.07 171.05, 613.04 101.23 M329.91 424.44 C442.2 295.43, 553.52 166.71, 610.79 101.64 M342.26 423.98 C423.75 327.57, 508.65 230.32, 612.6 112.15 M340.71 423.48 C421.18 332.22, 498.51 243.6, 611.2 112.08 M354.3 426.3 C428.62 331.46, 508.72 237.07, 612.97 126.14 M352.6 422.99 C436.13 326.03, 519.6 227.95, 610.89 125.53 M360.61 422.48 C424.95 357.93, 484.91 287.62, 611.27 139.61 M363.61 423.56 C456.44 314.05, 550.33 204.98, 610.7 138.31 M373.94 425.21 C449.57 335.56, 526.16 251.64, 609.37 151.84 M373.91 424.45 C459.15 326.85, 545.14 227.31, 610.55 149.08 M385.16 425.63 C435.78 359.42, 494.53 298.32, 613.43 160.11 M383.62 424.61 C459.06 343.37, 531.26 258.37, 612.53 160.79 M393.99 426.42 C451.17 358.14, 503.02 296.45, 613.4 172.02 M395.49 424.13 C473.59 330.38, 553.64 236.72, 610.77 173.97 M402.04 422.29 C469.92 351.32, 537.8 279.85, 610.2 185.65 M403.29 423.95 C447.13 373.34, 489.5 324.82, 611.5 185.83 M413.13 424.44 C468.16 368.02, 518.64 304.86, 608.75 199.83 M416.21 424.33 C488.59 341.05, 561.26 258.63, 611.36 197.76 M426.55 425.85 C474.43 366.67, 522.85 307.44, 612.54 211.08 M426.99 425.28 C464.3 382.42, 501.84 339.87, 610.2 211.62 M436.15 425.61 C504.78 350.57, 576.53 268.48, 609.62 224.18 M436.89 424.69 C491.75 361.49, 547.52 296.64, 610.55 223.78 M445.19 424.36 C504.21 360.85, 566.02 291.47, 608.99 237.07 M446.68 423.84 C501.23 362.37, 555.21 303.23, 611.18 235.47 M458.13 424.34 C516.87 355.38, 577.48 292.91, 612.79 247.72 M456.41 423.09 C507.13 373.59, 551.73 317.42, 611.61 247.02 M470.52 422.47 C519.33 358.72, 578.89 298.26, 614.44 257.83 M468.65 423.58 C526.11 360.99, 579.04 296.38, 611.38 259.86 M478.53 423.58 C521.72 373.5, 568.39 329.23, 611.17 270.91 M478 425.59 C526.02 368.21, 576.85 314.27, 612.91 272.72 M490.52 426.83 C520.62 391.48, 550.75 357.42, 611.59 281.3 M488.09 422.89 C529.65 384.79, 562.41 342.44, 609.83 283.42 M502.23 423.6 C545.77 377.57, 587.7 324.7, 610.21 297.39 M502.17 423.37 C532.42 390.79, 567.53 352.8, 612.15 295.69 M514.96 421.67 C538.3 385.65, 578.23 348.26, 612.61 310.44 M509.38 424.88 C546.65 383.3, 581.72 341.59, 611.07 310.8 M524.42 421.23 C544.37 395.46, 561.12 371.52, 610.96 323.54 M521.22 424.56 C554.33 387.02, 591.23 343.77, 612.79 322.22 M532.92 422.46 C559.01 391.37, 587.29 356.13, 608.34 331.88 M531.34 425.11 C557.77 391.95, 584.6 362.62, 610.53 334.35 M545.63 425.34 C561.69 401.51, 584.75 378.08, 609.57 343.36 M543.4 424.89 C563.75 400.65, 582.81 374.2, 611.04 345.64 M550.8 421.34 C575.22 395.83, 596.69 371.64, 608.83 355.2 M554.96 424.09 C568.64 406.39, 583.37 390.21, 613.85 355.48 M564.05 425.24 C573.92 406.61, 590.96 394.21, 609.24 370.37 M565.3 422.79 C575.67 410.09, 587.83 393.43, 610.48 371.04 M576.6 426.82 C586.12 411.09, 598.33 397.79, 613.74 378.36 M575.38 423.15 C585.13 410.69, 597.3 397.48, 610.91 382.42 M583.52 422.64 C597.07 416.19, 603.16 399.1, 609.42 391.45 M583.66 423.48 C594.38 411.07, 605.5 402.45, 611.54 393.29 M595.97 423.79 C601.08 419.2, 604.17 419.75, 614.35 409.43 M597.97 424.41 C599.69 420.1, 605.25 416.1, 613.7 403.96" stroke="#fca311" stroke-width="1" fill="none"></path><path d="M-1.55 0.06 C155.54 1.36, 311.38 2.45, 608.94 -0.77 M0.14 -0.51 C146.3 0.97, 291.26 1.31, 606.75 0.35 M609.41 0.46 C602.91 137.57, 604.79 273.65, 606.89 423.92 M607.41 -0.51 C605.51 144.4, 604.03 289.39, 606.71 422.91 M608.62 421.17 C370.79 422.58, 134.98 422.07, -1.59 423.56 M607.95 422.37 C444.28 426.92, 282.25 427.57, 0.71 422.72 M1.08 422.75 C6.03 273.96, 4.17 128.23, 1.77 -0.92 M0.67 423.21 C-0.57 307.83, 0.76 194.02, 1 0.41" stroke="#e5e5e5" stroke-width="2" fill="none"></path></g><g stroke-linecap="round" transform="translate(111.85826440868505 213.57997963625212) rotate(0 303.74585910527986 211.20679808754213)"><path d="M-0.92 -0.81 L606.97 -1.09 L608.89 421.17 L-1.25 421.11" stroke="none" stroke-width="0" fill="#fca311"></path><path d="M0.03 0.14 C152.36 2.79, 305.75 3.08, 607.11 -0.48 M-0.26 0.18 C239.35 -0.72, 479.02 -0.8, 607.67 0.1 M607.72 -0.19 C607.33 87.7, 606.87 173.61, 608.24 422.86 M607.23 0.38 C607.48 100.55, 607.73 201.43, 607.74 422.88 M606.87 421.99 C407.01 423.73, 206.42 423.33, 0.57 422.16 M607.47 422.28 C453.14 424.14, 299.09 424.16, 0.15 422.61 M0.17 423.45 C-2.31 333.2, -1.61 244.66, -0.46 -0.32 M0.4 422.02 C-2.4 297.99, -2.31 173.53, 0.2 -0.13" stroke="#e5e5e5" stroke-width="1" fill="none"></path></g><g stroke-linecap="round" transform="translate(142.9309534393691 236.4659664231537) rotate(0 23.588388102560543 23.588388102560543)"><path d="M17.53 0.57 C21.84 -0.99, 27.69 0.72, 32.15 2.79 C36.61 4.86, 42.02 8.58, 44.32 13 C46.62 17.41, 47.09 24.52, 45.94 29.29 C44.8 34.07, 41.38 38.82, 37.47 41.64 C33.56 44.46, 27.39 46.3, 22.47 46.21 C17.56 46.13, 11.85 44.44, 7.98 41.13 C4.11 37.81, -0.21 31.34, -0.76 26.32 C-1.31 21.3, 1.19 15.31, 4.68 11.01 C8.16 6.71, 16.79 2.28, 20.14 0.5 C23.49 -1.28, 24.75 -0.14, 24.78 0.32 M28.4 -0.21 C33.49 0.47, 40.3 4.74, 43.26 8.94 C46.21 13.15, 46.68 19.81, 46.13 25 C45.59 30.19, 42.99 36.36, 40 40.1 C37.01 43.83, 32.97 46.64, 28.17 47.4 C23.38 48.15, 15.91 47.53, 11.21 44.64 C6.51 41.75, 1.6 35.18, -0.02 30.07 C-1.64 24.96, -0.5 18.79, 1.47 13.99 C3.44 9.19, 7.12 3.59, 11.8 1.26 C16.49 -1.06, 26.93 -0.14, 29.59 0.04 C32.24 0.22, 27.84 1.9, 27.73 2.35" stroke="white" stroke-width="4" fill="none"></path></g><g stroke-linecap="round" transform="translate(244.25215279683061 236.4659664231537) rotate(0 23.588388102560543 23.588388102560543)"><path d="M29.41 0.26 C34.26 1.06, 41 5.81, 43.97 9.97 C46.94 14.12, 47.81 20.19, 47.24 25.21 C46.68 30.22, 44.34 36.38, 40.58 40.04 C36.82 43.7, 29.97 46.63, 24.7 47.16 C19.43 47.69, 12.91 46.33, 8.96 43.23 C5.01 40.13, 2.14 33.37, 0.99 28.55 C-0.15 23.74, -0.08 18.78, 2.09 14.34 C4.26 9.91, 9.04 3.98, 14.02 1.95 C19 -0.09, 28.79 2.09, 31.97 2.15 C35.15 2.21, 33.16 1.99, 33.1 2.31 M15.76 2.16 C20.23 0.28, 27.59 -0.81, 32.47 0.77 C37.36 2.34, 42.6 6.72, 45.08 11.59 C47.55 16.47, 48.44 24.87, 47.33 30.02 C46.21 35.16, 42.35 39.77, 38.4 42.44 C34.45 45.1, 28.87 46.27, 23.62 45.98 C18.36 45.7, 10.89 44.07, 6.87 40.73 C2.84 37.38, 0.24 30.73, -0.54 25.94 C-1.32 21.15, -0.55 16.24, 2.21 11.99 C4.96 7.73, 13.38 2, 16.02 0.4 C18.65 -1.19, 17.82 1.99, 18 2.4" stroke="white" stroke-width="4" fill="none"></path></g><g stroke-linecap="round" transform="translate(345.57335215428975 236.4659664231537) rotate(0 23.588388102560543 23.588388102560543)"><path d="M23.96 0.96 C28.58 0.97, 35.5 3.01, 39.22 6.33 C42.95 9.66, 45.67 16.06, 46.33 20.91 C46.98 25.77, 45.73 31.43, 43.15 35.47 C40.56 39.51, 35.48 43.44, 30.79 45.13 C26.11 46.83, 19.89 47.45, 15.05 45.65 C10.21 43.84, 4.02 38.81, 1.75 34.33 C-0.52 29.85, 0.24 23.61, 1.45 18.75 C2.66 13.9, 4.46 8.26, 9.01 5.18 C13.55 2.1, 25.08 0.71, 28.73 0.26 C32.39 -0.19, 31.07 2.17, 30.95 2.48 M24.88 -0.14 C29.53 -0.18, 34.41 2.8, 37.89 6.23 C41.37 9.65, 44.53 15.45, 45.75 20.42 C46.98 25.38, 47.59 31.61, 45.23 36.02 C42.87 40.43, 36.77 45.41, 31.59 46.89 C26.4 48.36, 18.94 46.96, 14.15 44.89 C9.35 42.82, 5.21 38.97, 2.8 34.45 C0.38 29.94, -1.48 22.71, -0.33 17.79 C0.81 12.86, 5.76 7.64, 9.67 4.9 C13.58 2.17, 20.62 2.12, 23.12 1.37 C25.62 0.62, 24.63 0.2, 24.66 0.39" stroke="white" stroke-width="4" fill="none"></path></g><g stroke-linecap="round" transform="translate(446.89455151175116 236.4659664231537) rotate(0 23.588388102560543 23.588388102560543)"><path d="M34.82 2.1 C39.38 3.92, 43.3 8.7, 45.29 13.3 C47.28 17.89, 48.27 24.69, 46.74 29.66 C45.2 34.64, 40.5 40.2, 36.08 43.17 C31.67 46.14, 25.11 48.17, 20.25 47.49 C15.39 46.81, 10.3 42.62, 6.91 39.08 C3.51 35.53, 0.23 31.11, -0.14 26.2 C-0.51 21.29, 1.65 13.72, 4.68 9.59 C7.72 5.47, 12.65 2.32, 18.1 1.43 C23.54 0.53, 33.51 3.14, 37.33 4.25 C41.15 5.35, 41.33 7.69, 41.03 8.05 M22.55 -1.01 C27.55 -1.86, 34.48 0.36, 38.61 3.85 C42.75 7.34, 46.31 14.78, 47.35 19.93 C48.4 25.08, 47.2 30.67, 44.9 34.73 C42.6 38.78, 38.44 42.42, 33.55 44.26 C28.67 46.1, 20.7 47.26, 15.59 45.79 C10.47 44.32, 5.69 39.48, 2.89 35.42 C0.08 31.37, -2 26.46, -1.27 21.46 C-0.54 16.46, 3.05 8.85, 7.27 5.42 C11.49 1.99, 21.49 1.78, 24.05 0.88 C26.61 -0.03, 22.81 -0.45, 22.62 0.01" stroke="white" stroke-width="4" fill="none"></path></g><g stroke-linecap="round" transform="translate(548.2157508692096 236.4659664231537) rotate(0 23.588388102560543 23.588388102560543)"><path d="M17.73 0.85 C22.31 -0.66, 28.87 0.81, 33.38 2.89 C37.9 4.98, 42.66 8.95, 44.81 13.35 C46.96 17.74, 47.57 24.24, 46.29 29.26 C45.01 34.28, 41.49 40.52, 37.12 43.45 C32.76 46.38, 25.02 47.39, 20.07 46.83 C15.13 46.28, 10.82 43.68, 7.45 40.11 C4.08 36.54, 0.23 30.5, -0.13 25.4 C-0.49 20.29, 1.36 13.59, 5.28 9.48 C9.19 5.36, 19.31 2.2, 23.37 0.71 C27.42 -0.78, 29.56 0.29, 29.61 0.55 M16.89 1.26 C21.12 -0.05, 27.93 0.91, 32.86 3.11 C37.79 5.32, 44.22 9.8, 46.48 14.48 C48.73 19.16, 48.2 26.54, 46.39 31.19 C44.57 35.84, 39.83 39.86, 35.57 42.38 C31.31 44.9, 25.78 46.96, 20.83 46.3 C15.87 45.65, 9.14 42.05, 5.86 38.46 C2.58 34.86, 1.46 29.28, 1.13 24.72 C0.79 20.15, 0.9 15.07, 3.84 11.06 C6.78 7.04, 16.5 2.24, 18.78 0.61 C21.07 -1.02, 17.4 0.67, 17.55 1.29" stroke="white" stroke-width="4" fill="none"></path></g><g stroke-linecap="round" transform="translate(649.5369502266699 236.4659664231537) rotate(0 23.588388102560543 23.588388102560543)"><path d="M16.82 0.4 C21.24 -1.32, 28.71 -0.59, 33.22 1.49 C37.72 3.57, 41.76 8.26, 43.84 12.89 C45.91 17.52, 46.61 24.52, 45.65 29.28 C44.69 34.04, 41.98 38.32, 38.07 41.45 C34.16 44.58, 27.26 48.18, 22.2 48.05 C17.15 47.93, 11.38 44.17, 7.75 40.7 C4.13 37.23, 1.14 32.26, 0.45 27.23 C-0.23 22.19, 0.37 14.9, 3.62 10.5 C6.87 6.1, 17.01 2.48, 19.96 0.82 C22.92 -0.84, 21.4 0.31, 21.34 0.55 M32.38 0.38 C37.12 2.16, 42.33 8.66, 44.81 13.26 C47.28 17.86, 48.09 23.43, 47.24 27.98 C46.38 32.54, 43.78 37.44, 39.68 40.59 C35.58 43.75, 27.99 46.88, 22.63 46.92 C17.28 46.96, 11.52 43.88, 7.56 40.82 C3.59 37.77, -0.36 33.57, -1.16 28.59 C-1.96 23.62, -0.27 15.36, 2.77 10.96 C5.8 6.57, 12.22 3.89, 17.04 2.23 C21.87 0.57, 29.27 0.84, 31.73 1 C34.19 1.15, 31.69 2.49, 31.79 3.16" stroke="white" stroke-width="4" fill="none"></path></g><g stroke-linecap="round" transform="translate(142.9309534393691 318.29952822511365) rotate(0 23.588388102560543 23.588388102560543)"><path d="M33.65 3.03 C38.05 4.79, 42.84 9.21, 44.93 13.63 C47.03 18.05, 47.55 24.55, 46.2 29.55 C44.86 34.55, 41.28 40.74, 36.87 43.61 C32.47 46.49, 24.71 47.42, 19.77 46.8 C14.84 46.18, 10.56 43.51, 7.24 39.89 C3.92 36.27, 0.15 30.21, -0.15 25.1 C-0.44 19.99, 2.44 13.2, 5.46 9.24 C8.48 5.27, 12.89 2.4, 18 1.32 C23.1 0.23, 32.97 2.19, 36.1 2.72 C39.22 3.25, 37.11 3.94, 36.76 4.5 M21.4 0.73 C26.57 0.19, 35 2.16, 39.22 5.29 C43.45 8.41, 46.05 14.76, 46.74 19.48 C47.43 24.21, 45.76 29.45, 43.37 33.64 C40.98 37.83, 37.01 42.79, 32.41 44.62 C27.82 46.45, 20.42 46.08, 15.82 44.62 C11.22 43.15, 7.52 39.62, 4.8 35.84 C2.08 32.06, -1.11 26.88, -0.49 21.93 C0.12 16.99, 4.72 9.78, 8.47 6.16 C12.22 2.53, 19.47 0.88, 22.02 0.17 C24.57 -0.55, 23.44 1.4, 23.76 1.87" stroke="white" stroke-width="4" fill="none"></path></g><g stroke-linecap="round" transform="translate(244.25215279683061 318.29952822511365) rotate(0 23.588388102560543 23.588388102560543)"><path d="M20.98 -0.17 C25.55 -0.97, 31.5 0.91, 35.53 3.76 C39.56 6.61, 43.47 12.29, 45.16 16.94 C46.84 21.6, 47.43 26.94, 45.62 31.69 C43.8 36.43, 38.75 42.97, 34.26 45.42 C29.78 47.88, 23.54 47.57, 18.68 46.44 C13.83 45.31, 8.27 42.68, 5.14 38.65 C2 34.62, -0.43 27.36, -0.13 22.26 C0.16 17.16, 2.88 11.77, 6.92 8.06 C10.96 4.36, 20.47 1.29, 24.09 0.04 C27.72 -1.2, 28.46 0.19, 28.66 0.57 M16.37 2.7 C20.77 1.01, 27.45 0.27, 32.24 1.61 C37.04 2.95, 42.85 6.43, 45.15 10.75 C47.44 15.08, 47.21 22.53, 46 27.57 C44.79 32.62, 41.9 37.58, 37.9 41.02 C33.89 44.47, 26.96 48.27, 21.95 48.25 C16.94 48.22, 11.21 44.18, 7.84 40.87 C4.46 37.57, 2.48 33.35, 1.7 28.4 C0.92 23.45, 0.8 15.48, 3.15 11.18 C5.5 6.89, 13.46 3.95, 15.8 2.61 C18.14 1.27, 16.99 2.87, 17.19 3.15" stroke="white" stroke-width="4" fill="none"></path></g><g stroke-linecap="round" transform="translate(345.57335215428975 318.29952822511365) rotate(0 23.588388102560543 23.588388102560543)"><path d="M25.29 -0.65 C30.21 -0.77, 36.63 2.24, 40.33 5.98 C44.04 9.72, 47.25 16.63, 47.52 21.79 C47.79 26.94, 44.79 32.79, 41.96 36.92 C39.14 41.06, 35.34 45.21, 30.59 46.59 C25.83 47.98, 18.04 47.44, 13.43 45.24 C8.82 43.04, 5.07 37.9, 2.92 33.39 C0.76 28.88, -0.74 23.14, 0.52 18.18 C1.79 13.23, 5.72 6.58, 10.49 3.65 C15.26 0.72, 25.58 0.71, 29.13 0.58 C32.68 0.45, 31.9 2.6, 31.79 2.88 M29.33 0.86 C34.31 1.53, 39.23 6.03, 42 9.74 C44.78 13.45, 46.14 18.38, 46 23.13 C45.87 27.88, 44.42 34.55, 41.19 38.26 C37.96 41.97, 31.4 44.53, 26.63 45.39 C21.86 46.24, 16.92 45.49, 12.58 43.37 C8.25 41.26, 2.32 37.42, 0.62 32.71 C-1.07 28, 0.57 20.06, 2.4 15.13 C4.23 10.2, 7.12 5.36, 11.6 3.14 C16.07 0.92, 26.3 2.07, 29.25 1.79 C32.19 1.51, 29.42 1.52, 29.26 1.46" stroke="white" stroke-width="4" fill="none"></path></g><g stroke-linecap="round" transform="translate(446.89455151175116 318.29952822511365) rotate(0 23.588388102560543 23.588388102560543)"><path d="M15.4 1.26 C19.63 -0.4, 26.48 0.4, 31.34 2.09 C36.2 3.79, 42.06 6.9, 44.58 11.43 C47.11 15.95, 47.51 24.16, 46.49 29.24 C45.47 34.32, 42.34 38.79, 38.45 41.9 C34.57 45, 28.32 48.04, 23.2 47.88 C18.09 47.72, 11.48 44.35, 7.77 40.94 C4.06 37.54, 1.78 32.4, 0.96 27.45 C0.15 22.5, -0.17 15.84, 2.89 11.25 C5.94 6.65, 15.88 1.7, 19.31 -0.11 C22.73 -1.92, 23.47 -0.14, 23.44 0.4 M15.55 1.71 C19.98 -0.71, 27.72 -1.47, 32.29 0.1 C36.87 1.68, 40.69 6.75, 43 11.16 C45.31 15.56, 47.05 21.3, 46.15 26.52 C45.25 31.73, 41.37 39.11, 37.6 42.44 C33.84 45.77, 28.13 46.42, 23.56 46.48 C18.98 46.54, 14 45.94, 10.14 42.8 C6.27 39.66, 1.53 32.54, 0.36 27.64 C-0.82 22.74, 0.4 17.54, 3.09 13.42 C5.77 9.3, 14.35 4.69, 16.48 2.92 C18.6 1.14, 16.16 2.41, 15.85 2.74" stroke="white" stroke-width="4" fill="none"></path></g><g stroke-linecap="round" transform="translate(548.2157508692096 318.29952822511365) rotate(0 23.588388102560543 23.588388102560543)"><path d="M29.01 -0.32 C33.88 0.65, 40.03 5.51, 42.89 9.68 C45.76 13.84, 46.4 19.63, 46.2 24.67 C46 29.72, 45.04 36.16, 41.71 39.93 C38.38 43.7, 31.28 46.74, 26.23 47.28 C21.18 47.82, 15.66 45.87, 11.41 43.18 C7.16 40.49, 2.25 36.06, 0.73 31.14 C-0.78 26.23, 0.28 18.49, 2.32 13.71 C4.35 8.93, 8.3 4.45, 12.95 2.47 C17.59 0.48, 26.99 1.97, 30.18 1.8 C33.37 1.63, 32.06 1.31, 32.08 1.44 M29.24 1.71 C33.56 2.33, 38.45 5.01, 41.38 8.77 C44.32 12.54, 47.11 19.37, 46.88 24.3 C46.64 29.22, 43.22 34.63, 39.96 38.34 C36.7 42.05, 32.34 45.5, 27.32 46.55 C22.31 47.6, 14.12 47.35, 9.87 44.62 C5.63 41.9, 3.23 35.25, 1.83 30.2 C0.43 25.15, -0.6 18.71, 1.48 14.32 C3.56 9.93, 9.48 6.03, 14.31 3.85 C19.13 1.67, 27.87 1.91, 30.44 1.23 C33.01 0.56, 29.85 -0.63, 29.72 -0.22" stroke="white" stroke-width="4" fill="none"></path></g><g stroke-linecap="round" transform="translate(649.5369502266699 318.29952822511365) rotate(0 23.588388102560543 23.588388102560543)"><path d="M18.35 0.83 C23.18 -0.51, 30.92 -0.45, 35.44 2.11 C39.96 4.68, 43.71 11.36, 45.48 16.22 C47.24 21.08, 47.65 26.54, 46.04 31.27 C44.44 36.01, 40.26 42.07, 35.84 44.62 C31.43 47.17, 24.46 47.45, 19.55 46.57 C14.64 45.69, 9.73 43.13, 6.37 39.34 C3.01 35.55, -0.43 29.03, -0.61 23.82 C-0.79 18.62, 1.33 12.09, 5.3 8.11 C9.28 4.13, 19.94 1.12, 23.24 -0.07 C26.53 -1.26, 25.28 0.46, 25.06 0.95 M34.72 1.09 C38.98 2.8, 42.41 8.81, 44.23 13.47 C46.04 18.13, 47.05 23.98, 45.6 29.08 C44.15 34.17, 39.65 41.16, 35.54 44.05 C31.42 46.94, 25.5 46.89, 20.94 46.39 C16.38 45.89, 11.68 44.6, 8.19 41.04 C4.7 37.49, 0.62 30.02, 0 25.05 C-0.62 20.07, 1.32 15.02, 4.48 11.2 C7.64 7.38, 14.01 3.48, 18.97 2.11 C23.93 0.74, 32.05 2.7, 34.24 2.98 C36.44 3.27, 32.27 3.52, 32.13 3.8" stroke="white" stroke-width="4" fill="none"></path></g><g stroke-linecap="round" transform="translate(142.9309534393691 400.1330900270739) rotate(0 23.588388102560543 23.58838810256055)"><path d="M15.44 1.86 C19.64 -0.05, 25.33 -0.58, 30.2 1.04 C35.06 2.65, 41.89 7.14, 44.64 11.54 C47.4 15.93, 47.52 22.48, 46.73 27.42 C45.94 32.35, 43.69 37.73, 39.88 41.14 C36.07 44.55, 28.96 47.84, 23.85 47.88 C18.75 47.92, 13.17 44.68, 9.27 41.4 C5.38 38.11, 1.62 32.88, 0.48 28.15 C-0.67 23.41, -0.43 17.66, 2.41 12.99 C5.25 8.31, 14.47 2.25, 17.52 0.08 C20.58 -2.09, 20.55 -0.68, 20.75 -0.04 M25.92 -0.53 C30.65 -0.41, 37.59 3.56, 41.01 7.23 C44.43 10.9, 46.09 16.4, 46.44 21.5 C46.79 26.59, 46.25 33.38, 43.11 37.81 C39.97 42.24, 32.58 47, 27.59 48.07 C22.6 49.14, 17.59 46.85, 13.18 44.23 C8.77 41.61, 2.94 36.83, 1.15 32.36 C-0.63 27.9, 0.55 22.18, 2.46 17.46 C4.37 12.74, 8.39 7.14, 12.61 4.05 C16.84 0.96, 25.23 -0.64, 27.81 -1.07 C30.4 -1.49, 28.27 0.64, 28.13 1.49" stroke="white" stroke-width="4" fill="none"></path></g><g stroke-linecap="round" transform="translate(244.25215279683061 400.1330900270739) rotate(0 23.588388102560543 23.58838810256055)"><path d="M24.51 -0.93 C29.44 -1.02, 35.29 3.38, 39.06 6.87 C42.84 10.36, 46.33 15.02, 47.14 19.99 C47.96 24.96, 46.65 32.39, 43.94 36.68 C41.22 40.96, 35.58 44.15, 30.85 45.7 C26.13 47.24, 20.37 47.75, 15.59 45.93 C10.82 44.12, 4.75 39.4, 2.22 34.8 C-0.31 30.21, -0.83 23.3, 0.41 18.34 C1.65 13.37, 5.58 7.97, 9.67 5 C13.75 2.02, 22.18 1.1, 24.92 0.46 C27.67 -0.17, 25.91 0.8, 26.13 1.18 M23.86 -0.23 C28.37 -0.24, 35.2 1.85, 38.81 5.49 C42.41 9.13, 44.8 16.6, 45.49 21.62 C46.19 26.64, 45.23 31.38, 42.99 35.6 C40.74 39.83, 36.77 45.41, 32.01 46.96 C27.26 48.5, 19.32 46.76, 14.45 44.89 C9.58 43.01, 4.88 39.87, 2.79 35.69 C0.71 31.5, 0.77 24.8, 1.94 19.79 C3.11 14.77, 6.27 8.69, 9.84 5.58 C13.4 2.47, 20.73 1.94, 23.32 1.14 C25.92 0.33, 24.95 0.68, 25.4 0.73" stroke="white" stroke-width="4" fill="none"></path></g><g stroke-linecap="round" transform="translate(345.57335215428975 400.1330900270739) rotate(0 23.588388102560543 23.58838810256055)"><path d="M12.03 2.32 C16.27 -0.11, 24.86 -0.39, 29.91 0.84 C34.95 2.08, 39.32 5.76, 42.31 9.75 C45.3 13.74, 48.15 19.65, 47.85 24.77 C47.54 29.89, 43.99 36.86, 40.48 40.47 C36.97 44.07, 31.75 45.94, 26.78 46.4 C21.81 46.86, 15.05 45.79, 10.67 43.24 C6.29 40.68, 1.99 36.04, 0.51 31.09 C-0.96 26.15, -0.69 18.64, 1.83 13.59 C4.34 8.54, 12.88 2.71, 15.61 0.79 C18.33 -1.12, 18.04 1.61, 18.17 2.12 M31.47 0.71 C36.16 1.97, 40.59 5.95, 43.33 10.37 C46.06 14.8, 48.76 21.83, 47.88 27.28 C46.99 32.73, 41.92 39.77, 38 43.07 C34.08 46.38, 29.39 47.32, 24.37 47.1 C19.35 46.87, 11.68 44.77, 7.88 41.75 C4.09 38.73, 2.14 33.89, 1.58 28.98 C1.02 24.07, 2.08 17.12, 4.54 12.31 C6.99 7.49, 11.6 1.75, 16.32 0.07 C21.04 -1.61, 30.26 1.67, 32.84 2.21 C35.42 2.76, 32.28 3.09, 31.8 3.36" stroke="white" stroke-width="4" fill="none"></path></g><g stroke-linecap="round" transform="translate(446.89455151175116 400.1330900270739) rotate(0 23.588388102560543 23.58838810256055)"><path d="M28.47 1.46 C33.22 2.33, 39.35 5.06, 42.51 9.04 C45.67 13.01, 47.71 20.28, 47.43 25.31 C47.15 30.34, 44.17 35.55, 40.83 39.23 C37.5 42.91, 32.48 46.68, 27.4 47.39 C22.31 48.11, 14.71 46.37, 10.32 43.51 C5.92 40.65, 2.32 35.05, 1.02 30.21 C-0.28 25.38, 0.67 19.01, 2.5 14.49 C4.33 9.96, 7.59 5.25, 12 3.05 C16.4 0.85, 25.68 1.47, 28.91 1.26 C32.13 1.06, 31.3 1.39, 31.34 1.81 M13.88 1.04 C18.09 -0.84, 24.4 0.64, 29.26 2.18 C34.12 3.72, 39.86 6.05, 43.04 10.28 C46.22 14.52, 48.94 22.55, 48.33 27.59 C47.72 32.63, 43.33 37.07, 39.4 40.54 C35.46 44.01, 29.5 47.88, 24.7 48.39 C19.89 48.9, 14.48 46.77, 10.55 43.6 C6.62 40.43, 2.66 34.33, 1.12 29.36 C-0.41 24.38, -1.01 18.31, 1.37 13.75 C3.74 9.19, 12.9 4.09, 15.39 2.01 C17.87 -0.07, 16.22 0.95, 16.27 1.28" stroke="white" stroke-width="4" fill="none"></path></g><g stroke-linecap="round" transform="translate(548.2157508692096 400.1330900270739) rotate(0 23.588388102560543 23.58838810256055)"><path d="M27.35 0.39 C32.28 0.75, 37.23 4.13, 40.65 7.76 C44.07 11.39, 47.6 17.06, 47.85 22.18 C48.1 27.3, 45.24 34.52, 42.15 38.48 C39.07 42.45, 34.2 44.95, 29.33 45.96 C24.46 46.97, 17.57 46.61, 12.91 44.54 C8.26 42.47, 3.39 38.28, 1.4 33.53 C-0.6 28.78, -0.68 21.1, 0.93 16.02 C2.55 10.95, 6.33 5.49, 11.11 3.08 C15.88 0.66, 26.13 1.72, 29.59 1.54 C33.05 1.36, 31.9 1.87, 31.85 1.98 M16.73 -0.68 C21.51 -2.17, 30.01 -0.88, 34.6 1.72 C39.19 4.33, 42.16 10.32, 44.27 14.96 C46.37 19.6, 48.51 24.9, 47.24 29.58 C45.97 34.26, 40.73 39.89, 36.66 43.04 C32.59 46.18, 27.53 48.82, 22.8 48.46 C18.07 48.1, 11.93 44.89, 8.27 40.87 C4.6 36.85, 1.3 29.35, 0.82 24.34 C0.33 19.34, 2.55 14.52, 5.36 10.85 C8.17 7.17, 15.81 3.85, 17.69 2.28 C19.57 0.7, 16.58 1.07, 16.65 1.42" stroke="white" stroke-width="4" fill="none"></path></g><g stroke-linecap="round" transform="translate(649.5369502266699 400.1330900270739) rotate(0 23.588388102560543 23.58838810256055)"><path d="M13.1 2.39 C17.33 -0.09, 24.32 0.2, 29.18 1.32 C34.04 2.44, 39.16 5.13, 42.28 9.12 C45.39 13.11, 48.2 20.16, 47.86 25.25 C47.51 30.35, 43.8 36.16, 40.22 39.7 C36.64 43.25, 31.17 45.92, 26.38 46.52 C21.58 47.11, 15.78 45.88, 11.44 43.27 C7.11 40.66, 2.06 35.59, 0.34 30.85 C-1.37 26.11, -1.8 19.78, 1.14 14.83 C4.09 9.89, 14.58 3.46, 18.01 1.2 C21.44 -1.06, 21.91 1.02, 21.74 1.26 M20.09 1.16 C24.9 0.46, 32.07 0.73, 36.68 3.61 C41.29 6.48, 46.39 13.47, 47.75 18.39 C49.12 23.31, 47.21 28.48, 44.86 33.12 C42.52 37.76, 38 43.79, 33.66 46.22 C29.32 48.65, 23.62 49.1, 18.81 47.7 C14 46.29, 8.16 41.99, 4.82 37.8 C1.48 33.62, -1.72 27.71, -1.23 22.6 C-0.75 17.48, 3.66 11.02, 7.71 7.11 C11.75 3.21, 20.7 0.24, 23.04 -0.84 C25.39 -1.92, 21.77 0.19, 21.77 0.63" stroke="white" stroke-width="4" fill="none"></path></g><g stroke-linecap="round" transform="translate(142.9309534393691 481.9666518290337) rotate(0 23.588388102560543 23.58838810256055)"><path d="M21.02 0.39 C25.73 -0.45, 33.39 1, 37.55 3.92 C41.71 6.83, 44.67 13.08, 46 17.87 C47.33 22.66, 47.55 28.16, 45.53 32.64 C43.51 37.12, 38.58 42.32, 33.88 44.75 C29.18 47.17, 22.24 48.51, 17.32 47.17 C12.41 45.83, 7.18 41.05, 4.37 36.71 C1.55 32.37, -0.02 25.91, 0.44 21.13 C0.9 16.35, 3.47 11.53, 7.14 8.03 C10.82 4.53, 19.69 1.52, 22.48 0.13 C25.27 -1.26, 23.99 -0.65, 23.88 -0.3 M18.9 0.24 C23.49 -0.75, 28.67 1.46, 33.19 3.73 C37.7 6, 43.87 9.45, 45.97 13.86 C48.07 18.27, 47.11 25.07, 45.8 30.18 C44.48 35.28, 41.95 41.57, 38.07 44.48 C34.19 47.39, 27.63 48.6, 22.52 47.63 C17.41 46.67, 10.95 42.29, 7.39 38.69 C3.83 35.09, 1.62 30.63, 1.17 26.06 C0.73 21.48, 2.09 15.44, 4.71 11.24 C7.33 7.04, 14.68 2.33, 16.9 0.87 C19.12 -0.6, 17.87 2.15, 18.01 2.43" stroke="white" stroke-width="4" fill="none"></path></g><g stroke-linecap="round" transform="translate(244.25215279683061 481.9666518290337) rotate(0 23.588388102560543 23.58838810256055)"><path d="M34.18 3.09 C38.57 4.9, 42.84 9.12, 44.97 13.69 C47.1 18.26, 48.44 25.58, 46.98 30.49 C45.52 35.4, 40.51 40.47, 36.19 43.15 C31.87 45.83, 25.88 47.11, 21.07 46.56 C16.26 46.02, 10.97 43.39, 7.35 39.9 C3.73 36.41, -0.03 30.58, -0.63 25.63 C-1.23 20.69, 0.53 14.32, 3.76 10.21 C6.98 6.11, 13.43 2.05, 18.74 1 C24.06 -0.04, 32.75 3.44, 35.64 3.96 C38.53 4.48, 36.31 3.99, 36.07 4.13 M17.43 0.01 C22.49 -1.48, 30.71 1, 35.31 3.26 C39.92 5.51, 43.22 8.85, 45.06 13.53 C46.91 18.21, 47.56 26.19, 46.4 31.35 C45.25 36.51, 42.25 41.76, 38.13 44.49 C34.01 47.23, 27.16 48.34, 21.68 47.77 C16.21 47.2, 8.75 44.79, 5.28 41.07 C1.8 37.35, 0.7 30.83, 0.82 25.45 C0.94 20.07, 3.11 12.9, 5.98 8.78 C8.85 4.67, 15.84 2.15, 18.05 0.77 C20.27 -0.61, 19.28 0.15, 19.27 0.5" stroke="white" stroke-width="4" fill="none"></path></g><g stroke-linecap="round" transform="translate(345.57335215428975 481.9666518290337) rotate(0 23.588388102560543 23.58838810256055)"><path d="M26.83 -0.02 C31.62 0.27, 36.87 4.39, 40.32 7.96 C43.77 11.53, 47.16 16.49, 47.54 21.4 C47.93 26.31, 45.78 33.13, 42.65 37.43 C39.52 41.73, 33.67 46.1, 28.74 47.21 C23.82 48.31, 17.49 46.54, 13.09 44.07 C8.7 41.6, 4.34 36.74, 2.39 32.38 C0.44 28.02, 0.01 22.62, 1.41 17.9 C2.8 13.19, 5.7 7, 10.75 4.08 C15.81 1.17, 27.74 0.52, 31.76 0.43 C35.77 0.34, 35.19 3.12, 34.87 3.54 M11.68 4.21 C15.72 1.72, 24.2 -0.41, 29.19 0.4 C34.18 1.21, 38.39 4.88, 41.59 9.08 C44.79 13.28, 48.24 20.49, 48.4 25.62 C48.57 30.74, 46.01 36.5, 42.57 39.83 C39.13 43.16, 32.8 44.83, 27.76 45.6 C22.72 46.36, 16.73 46.63, 12.34 44.44 C7.96 42.26, 3.38 37.4, 1.44 32.5 C-0.49 27.6, -1.1 19.79, 0.73 15.06 C2.56 10.32, 10.57 6.14, 12.44 4.1 C14.31 2.05, 11.78 2.43, 11.94 2.8" stroke="white" stroke-width="4" fill="none"></path></g><g stroke-linecap="round" transform="translate(446.89455151175116 481.9666518290337) rotate(0 23.588388102560543 23.58838810256055)"><path d="M21.33 -0.19 C26.16 -0.96, 33.73 1.72, 37.8 4.66 C41.87 7.6, 44.57 12.73, 45.75 17.46 C46.94 22.19, 46.82 28.47, 44.91 33.03 C43 37.6, 38.99 42.57, 34.31 44.86 C29.63 47.14, 21.96 47.97, 16.84 46.76 C11.71 45.56, 6.2 41.77, 3.55 37.62 C0.91 33.48, 0.4 26.87, 0.97 21.87 C1.54 16.87, 2.82 11.34, 6.97 7.64 C11.12 3.94, 21.82 0.72, 25.88 -0.32 C29.95 -1.37, 31.36 1.07, 31.36 1.38 M33.21 2.35 C37.88 3.78, 41.75 7.02, 44.03 11.48 C46.32 15.95, 47.6 23.84, 46.93 29.12 C46.25 34.39, 43.8 39.99, 39.97 43.12 C36.14 46.25, 29.47 47.98, 23.97 47.9 C18.47 47.82, 10.76 46.01, 6.95 42.64 C3.13 39.28, 1.46 33.05, 1.09 27.73 C0.72 22.4, 2.26 15.08, 4.72 10.7 C7.19 6.32, 11.13 3.07, 15.86 1.43 C20.59 -0.21, 30.54 0.77, 33.1 0.84 C35.66 0.91, 31.34 1.23, 31.23 1.86" stroke="white" stroke-width="4" fill="none"></path></g><g stroke-linecap="round" transform="translate(548.2157508692096 481.9666518290337) rotate(0 23.588388102560543 23.58838810256055)"><path d="M26.51 0.93 C31.26 1.21, 38.04 3.52, 41.49 7.14 C44.93 10.75, 47.14 17.34, 47.18 22.61 C47.22 27.88, 44.86 34.87, 41.74 38.76 C38.62 42.65, 33.27 45.13, 28.48 45.96 C23.68 46.79, 17.34 45.81, 12.96 43.72 C8.58 41.62, 4.14 37.92, 2.22 33.38 C0.3 28.84, -0.16 21.55, 1.43 16.46 C3.01 11.37, 7.09 5.48, 11.73 2.85 C16.37 0.21, 25.89 0.84, 29.28 0.66 C32.66 0.49, 32.21 1.25, 32.03 1.78 M20.72 0.22 C25.45 -1.05, 30.82 0.65, 35.22 3.49 C39.62 6.33, 45.16 12.39, 47.12 17.24 C49.07 22.09, 48.85 28.31, 46.96 32.58 C45.07 36.85, 40.24 40.38, 35.79 42.87 C31.33 45.36, 25.28 48.01, 20.24 47.52 C15.2 47.03, 9.05 43.95, 5.52 39.93 C1.99 35.9, -0.97 28.46, -0.92 23.37 C-0.87 18.28, 2.48 13.32, 5.83 9.4 C9.19 5.48, 16.87 1.05, 19.21 -0.16 C21.55 -1.36, 19.53 1.52, 19.86 2.17" stroke="white" stroke-width="4" fill="none"></path></g><g stroke-linecap="round" transform="translate(649.5369502266699 481.9666518290337) rotate(0 23.588388102560543 23.58838810256055)"><path d="M32.5 1.89 C37.03 3.33, 41.11 7.7, 43.48 11.94 C45.85 16.18, 47.4 22.39, 46.72 27.34 C46.03 32.29, 43.35 38.29, 39.35 41.66 C35.36 45.03, 28.06 47.49, 22.76 47.55 C17.46 47.62, 11.17 45.32, 7.58 42.04 C3.99 38.75, 1.93 32.79, 1.22 27.84 C0.51 22.9, 1.05 16.87, 3.32 12.38 C5.6 7.88, 9.6 2.49, 14.88 0.85 C20.15 -0.79, 31.21 1.92, 34.96 2.52 C38.72 3.12, 37.46 4.07, 37.42 4.45 M18.14 0.14 C22.55 -1.19, 29.64 1.2, 34.39 3.78 C39.14 6.37, 44.59 11.09, 46.65 15.66 C48.71 20.22, 48.66 26.36, 46.74 31.16 C44.83 35.95, 39.36 41.77, 35.16 44.45 C30.95 47.13, 26.09 48.19, 21.54 47.24 C16.98 46.3, 11.4 42.51, 7.84 38.79 C4.28 35.08, 0.5 29.95, 0.19 24.95 C-0.13 19.95, 3.04 12.86, 5.97 8.79 C8.9 4.72, 15.48 1.67, 17.77 0.55 C20.07 -0.58, 19.39 1.82, 19.74 2.02" stroke="white" stroke-width="4" fill="none"></path></g><g stroke-linecap="round" transform="translate(142.9309534393691 563.8002136309937) rotate(0 23.588388102560543 23.58838810256055)"><path d="M22.15 -0.54 C26.97 -1.35, 33.34 1.15, 37.3 4.31 C41.27 7.46, 44.69 13.6, 45.94 18.39 C47.19 23.18, 46.82 28.73, 44.79 33.05 C42.76 37.38, 38.26 41.96, 33.75 44.32 C29.25 46.67, 22.64 48.41, 17.76 47.2 C12.88 45.99, 7.27 41.48, 4.45 37.04 C1.62 32.6, 0.47 25.63, 0.81 20.55 C1.16 15.48, 2.19 10.05, 6.53 6.6 C10.87 3.14, 22.67 0.41, 26.85 -0.19 C31.02 -0.79, 31.59 2.6, 31.56 2.99 M33.48 2.55 C37.99 4.63, 44.04 10.71, 46.39 15.4 C48.74 20.09, 49.08 26.3, 47.59 30.71 C46.1 35.11, 41.71 38.99, 37.47 41.84 C33.24 44.69, 27.31 47.88, 22.2 47.81 C17.09 47.74, 10.68 45.16, 6.83 41.41 C2.99 37.67, -0.5 30.42, -0.87 25.35 C-1.24 20.27, 1.58 15.13, 4.6 10.95 C7.62 6.76, 12.39 1.43, 17.27 0.24 C22.15 -0.95, 30.98 3.2, 33.89 3.81 C36.8 4.43, 35.05 3.98, 34.7 3.95" stroke="white" stroke-width="4" fill="none"></path></g><g stroke-linecap="round" transform="translate(244.25215279683061 563.8002136309937) rotate(0 23.588388102560543 23.58838810256055)"><path d="M19.65 0.25 C24.23 -0.87, 31.46 0.42, 35.97 3.08 C40.49 5.73, 45.25 11.22, 46.72 16.17 C48.19 21.11, 46.92 27.98, 44.79 32.76 C42.66 37.54, 38.16 42.5, 33.97 44.87 C29.77 47.23, 24.42 47.97, 19.61 46.97 C14.8 45.97, 8.51 42.96, 5.12 38.85 C1.72 34.74, -0.89 27.53, -0.77 22.28 C-0.64 17.03, 1.83 11.22, 5.86 7.34 C9.89 3.46, 19.69 0.15, 23.41 -0.99 C27.12 -2.13, 28.16 -0.23, 28.16 0.48 M30.4 2.2 C35.33 3.57, 41.74 7.75, 44.61 11.88 C47.48 16, 48.62 21.97, 47.61 26.95 C46.59 31.94, 42.15 38.39, 38.52 41.79 C34.89 45.19, 30.4 47.39, 25.83 47.37 C21.25 47.34, 15.22 44.67, 11.05 41.65 C6.88 38.62, 2.03 34.07, 0.81 29.2 C-0.41 24.33, 1.57 16.99, 3.72 12.44 C5.87 7.89, 9.04 3.65, 13.7 1.9 C18.36 0.14, 28.74 2.18, 31.67 1.91 C34.59 1.64, 31.74 -0.05, 31.25 0.3" stroke="white" stroke-width="4" fill="none"></path></g><g stroke-linecap="round" transform="translate(345.57335215428975 563.8002136309937) rotate(0 23.588388102560543 23.58838810256055)"><path d="M31.82 1.4 C36.27 3.01, 41.13 8.35, 43.61 12.64 C46.09 16.93, 47.47 22.42, 46.7 27.15 C45.93 31.88, 42.81 37.54, 39.01 41.02 C35.21 44.51, 28.97 47.95, 23.91 48.06 C18.84 48.16, 12.42 45.2, 8.61 41.65 C4.79 38.1, 2.02 31.78, 1.04 26.75 C0.05 21.73, 0.36 15.8, 2.71 11.49 C5.07 7.18, 10.11 2.27, 15.17 0.88 C20.23 -0.5, 29.65 2.71, 33.06 3.16 C36.47 3.61, 35.48 3.26, 35.62 3.59 M24.18 1.38 C29.28 1.02, 35.72 3, 39.59 5.69 C43.46 8.39, 46.45 12.55, 47.42 17.53 C48.4 22.52, 47.93 30.68, 45.44 35.59 C42.95 40.5, 37.53 45.24, 32.49 46.99 C27.45 48.75, 20.02 47.75, 15.2 46.12 C10.38 44.48, 6.16 41.6, 3.56 37.19 C0.96 32.78, -1.11 24.65, -0.39 19.67 C0.32 14.7, 3.82 10.44, 7.87 7.35 C11.92 4.26, 21.57 2.42, 23.9 1.14 C26.22 -0.15, 21.86 -0.47, 21.85 -0.36" stroke="white" stroke-width="4" fill="none"></path></g><g stroke-linecap="round" transform="translate(446.89455151175116 563.8002136309937) rotate(0 23.588388102560543 23.58838810256055)"><path d="M28.44 0.03 C33.42 0.72, 39.89 4.86, 42.9 8.99 C45.91 13.12, 46.9 19.66, 46.48 24.81 C46.05 29.95, 43.49 36.12, 40.37 39.86 C37.24 43.6, 32.6 46.51, 27.73 47.25 C22.87 47.99, 15.72 47.11, 11.16 44.29 C6.6 41.47, 1.97 35.34, 0.37 30.33 C-1.23 25.32, -0.39 19, 1.56 14.24 C3.5 9.48, 6.73 3.88, 12.05 1.76 C17.36 -0.36, 29.49 0.95, 33.47 1.54 C37.45 2.12, 36.13 4.86, 35.95 5.26 M21.18 1.64 C25.95 0.49, 32.35 1.5, 36.24 4.05 C40.13 6.6, 42.84 12.25, 44.53 16.94 C46.23 21.63, 47.73 27.81, 46.41 32.2 C45.08 36.58, 41.08 40.81, 36.57 43.25 C32.05 45.69, 24.32 47.73, 19.32 46.83 C14.32 45.93, 9.86 41.79, 6.57 37.85 C3.27 33.91, -0.55 27.98, -0.45 23.19 C-0.35 18.41, 3.57 13.13, 7.14 9.13 C10.7 5.13, 18.96 0.45, 20.94 -0.81 C22.92 -2.07, 19.27 0.73, 19.04 1.54" stroke="white" stroke-width="4" fill="none"></path></g><g stroke-linecap="round" transform="translate(548.2157508692096 563.8002136309937) rotate(0 23.588388102560543 23.58838810256055)"><path d="M16.01 1.8 C20.48 -0.03, 27.71 -0.58, 32.52 1.11 C37.33 2.8, 42.46 7.21, 44.89 11.96 C47.32 16.7, 48.2 24.5, 47.09 29.57 C45.98 34.65, 42.22 39.59, 38.25 42.39 C34.28 45.19, 28.45 46.64, 23.27 46.37 C18.08 46.11, 11.05 44.18, 7.13 40.81 C3.2 37.45, 0.45 31.05, -0.29 26.18 C-1.03 21.32, -0.95 16.06, 2.7 11.63 C6.36 7.2, 17.37 1.31, 21.65 -0.4 C25.92 -2.11, 28.28 0.95, 28.36 1.37 M26.06 0.61 C30.78 0.09, 36.65 1.48, 40.33 4.94 C44 8.4, 47.54 15.9, 48.1 21.38 C48.66 26.86, 46.74 33.67, 43.66 37.81 C40.59 41.96, 34.51 44.8, 29.66 46.27 C24.8 47.73, 19.15 48.65, 14.54 46.6 C9.92 44.54, 4.31 38.4, 1.97 33.94 C-0.37 29.47, -0.87 24.46, 0.51 19.79 C1.89 15.13, 6.41 9.37, 10.26 5.94 C14.11 2.5, 21.07 0.19, 23.61 -0.82 C26.14 -1.82, 25.07 -0.71, 25.47 -0.08" stroke="white" stroke-width="4" fill="none"></path></g><g stroke-linecap="round" transform="translate(649.5369502266699 563.8002136309937) rotate(0 23.588388102560543 23.58838810256055)"><path d="M24.52 -0.09 C29.22 -0.2, 34.63 2.66, 38.23 6.04 C41.83 9.42, 45.03 15.21, 46.12 20.18 C47.21 25.15, 47.22 31.48, 44.79 35.87 C42.36 40.26, 36.58 44.99, 31.54 46.53 C26.5 48.08, 19.31 47.12, 14.54 45.15 C9.76 43.18, 5.32 39.18, 2.88 34.7 C0.44 30.22, -1.16 23.23, -0.09 18.29 C0.98 13.35, 5.07 7.94, 9.31 5.06 C13.55 2.18, 22.18 1.73, 25.33 1.01 C28.49 0.3, 28.26 0.53, 28.25 0.78 M33.62 2.7 C37.69 4.31, 41.12 9.77, 43.39 14.22 C45.67 18.67, 48 24.81, 47.28 29.38 C46.55 33.95, 43.21 38.69, 39.04 41.66 C34.87 44.63, 27.33 47.48, 22.25 47.2 C17.17 46.93, 12.33 43.52, 8.57 40.01 C4.81 36.5, 0.23 30.89, -0.31 26.14 C-0.84 21.38, 2.3 15.86, 5.36 11.47 C8.42 7.09, 13.59 1.3, 18.06 -0.16 C22.54 -1.61, 29.83 2.09, 32.2 2.75 C34.56 3.41, 32.19 3.66, 32.27 3.83" stroke="white" stroke-width="4" fill="none"></path></g><g transform="translate(661.7628680920286 650.9969984919087) rotate(0 30.631443897454943 7.657860974363729)"><text x="30.631443897454943" y="10.315721948727472" font-family="Virgil, Segoe UI Emoji" font-size="12.252577558981985px" fill="#e5e5e5" text-anchor="middle" style="white-space: pre;" direction="ltr">aadimator</text></g></svg>
